<?xml version="1.0" encoding="UTF-8"?>
<svg width="100pt" height="100pt" version="1.1" viewBox="0 0 100 100" xmlns="http://www.w3.org/2000/svg">
 <path d="m52.797 3.5156 0.46094-1.6016c0.09375-0.33594 0.35547-0.60156 0.6875-0.70703l3.6953-1.1602c0.20703-0.066406 0.43359-0.0625 0.64062 0.0078125l1.3047 0.43359c0.28125 0.09375 0.51172 0.30469 0.62891 0.58203l1.3008 3.0664c0.21484 0.50781 0 1.0938-0.49219 1.3398l-5.043 2.5234-3.293 3.5625-1.8672 2.375-0.53516 2.9336c-0.019531 0.11328-0.058594 0.21875-0.11328 0.32031l-0.91016 1.6406c0.24219 0 0.48438 0.085938 0.67578 0.25l1.0156 0.86719c0.14062 0.12109 0.24609 0.27734 0.30469 0.44922l1.0898 3.1328 1.1641 1.293c0.13672 0.15234 0.22656 0.34375 0.25781 0.55078l0.28906 2.0273c0.015625 0.125 0.011718 0.25391-0.015625 0.37891l-0.46484 2.0391 0.21094 0.023438c0.35156 0.039062 0.66016 0.25391 0.82031 0.57031l0.78516 1.5742 7.0078-0.26562c0.09375-0.003906 0.19141 0.003906 0.28125 0.027344l3.6211 0.87109c0.20312 0.046875 0.38672 0.15625 0.52734 0.30859l3.9844 4.3594 0.54688-0.42187c0.23828-0.1875 0.54688-0.26172 0.84375-0.19922l3.3867 0.67578 3.6797-0.95312c0.1875-0.050781 0.38672-0.042969 0.57031 0.011719l2.3164 0.72656c0.48828 0.15234 0.79297 0.63672 0.72266 1.1406l-0.14453 1.0156-0.042969 0.17969-1.0156 3.043c-0.058594 0.17188-0.16016 0.32813-0.29688 0.44922l-0.9375 0.83594 0.125 4.1602 1.0742 3.6953 1.6445 2.3984c0.28516 0.41406 0.23438 0.96875-0.12109 1.3242l-1.7266 1.7266c0.027344 0.027344 0.054688 0.058594 0.078125 0.09375l2.3203 3.0391c0.0625 0.085937 0.11328 0.17578 0.14844 0.27344l2.1719 5.9414c0.22266 0.60156-0.15234 1.2617-0.78516 1.3789l-3.8203 0.72656c-0.64063 0.12109-1.2344-0.37109-1.2344-1.0234v-0.53125l-1.2109-3.1719-0.71875 0.78516c-0.35547 0.39062-0.95312 0.44922-1.3789 0.13672l-0.13281-0.09375c-0.18359 0.26172-0.48828 0.43359-0.83203 0.4375l-7.3477 0.12891v1.5l2.2383 0.20312c0.38281 0.035156 0.71484 0.28125 0.86328 0.63672l1.1602 2.75c0.28125 0.66406-0.18359 1.4062-0.90625 1.4453l-4.5898 0.23828v2.8203l2.3906 1.7188c0.27344 0.19531 0.43359 0.50781 0.43359 0.84375v1.3477l1.0508 2.0977c0.10156 0.20703 0.13672 0.44141 0.089844 0.66797l-3.4766 17.672c-0.17188 0.87109-1.2812 1.1406-1.8359 0.44922l-1.4258-1.7812h-2.25c-0.75 0-1.2539-0.76953-0.95703-1.457l2.6055-6.0234-2.8203-1.9648-2.3945 0.83984c-0.28516 0.10156-0.59766 0.070313-0.85938-0.078125l-1.5117-0.86328-2.5273 1.4414c-0.20703 0.11719-0.44531 0.16406-0.67969 0.125l-3.6211-0.57812c-0.14062-0.023437-0.27344-0.074219-0.39453-0.15234l-1.5938-1.0117c-0.30078-0.19141-0.48438-0.52344-0.48438-0.87891v-1.3203l-1.332-0.26562c-0.48828-0.097656-0.83984-0.52734-0.83984-1.0234v-1.8203l-1.2734-0.36328c-0.10156-0.03125-0.19922-0.074219-0.28906-0.13672l-2.6094-1.7383c-0.19531-0.12891-0.34375-0.32812-0.41406-0.55469l-0.61328-1.9531-2.7305-1.7383-4.6289-1.2617c-0.13281-0.039062-0.26172-0.10156-0.37109-0.1875l-1.8672-1.4727-0.24219 0.36328c-0.23438 0.35156-0.66016 0.52734-1.0742 0.44141l-6.375-1.3047c-0.48438-0.097656-0.83203-0.52344-0.83203-1.0195v-0.66016l-3.4805-1.7383-0.17578-0.11328-4.6328-3.6211c-0.51562-0.40234-0.53906-1.1719-0.046875-1.6016l1.1602-1.0156c0.1875-0.16406 0.42578-0.25391 0.67578-0.25781l-0.50781-1.1406c-0.14062-0.31641-0.11328-0.67969 0.066406-0.96875l1.1562-1.8867c0.32422-0.51953 1.0234-0.65234 1.5156-0.28516l0.73047 0.54688 1.7969-0.56641 1.2578-2.7656 0.10938-0.1875 2.4648-3.3477-1.7227-1.4688c-0.35156-0.30078-0.46484-0.79297-0.27734-1.2148l1.0195-2.293-1.082-4.8828c-0.078125-0.34766 0.027344-0.70703 0.27734-0.96094l0.78516-0.78516-0.98828-2.0859c-0.14062-0.30078-0.13281-0.64844 0.023438-0.9375l0.75391-1.4219-1.8008-1.4844c-0.14062-0.11328-0.24609-0.26172-0.3125-0.42969l-0.72266-1.8828c-0.078125-0.20703-0.089844-0.42969-0.035156-0.64062l0.72266-2.75c0.18359-0.69141 0.99219-1 1.5859-0.60156l0.44922 0.29688 0.77734-1.1289-0.37109-2.4336c-0.125-0.80469 0.68359-1.4336 1.4336-1.1172l1.0156 0.42969v-0.54297c0-0.37891 0.20703-0.72656 0.53906-0.91016l2.6758-1.4727 2.1758-3.2617c0.19141-0.28906 0.51953-0.46484 0.86719-0.46484h1.2383l0.62109-5.7344c0.03125-0.26562 0.16016-0.50781 0.36328-0.68359l3.7656-3.1836c0.26172-0.22266 0.61719-0.30078 0.94922-0.21094l2.3164 0.63281 0.65625-1.4961c0.1875-0.43359 0.65234-0.6875 1.125-0.60938l3.1484 0.52734 3.5781-1.7227zm5.1445-1.3789-2.8359 0.89062-0.42578 1.4883c-0.078126 0.27344-0.26563 0.5-0.51563 0.63281l-3.8711 2.0469-3.9141 1.8828c-0.19141 0.09375-0.41016 0.125-0.62109 0.089844l-2.6758-0.44922-0.6875 1.5742c-0.20703 0.47656-0.73047 0.72656-1.2305 0.58984l-2.6562-0.72656-3.0312 2.5664-0.67969 6.2461c-0.058594 0.53125-0.50391 0.92969-1.0352 0.92969h-1.6133l-2.0117 3.0117c-0.089844 0.14062-0.21484 0.25781-0.36328 0.33594l-2.3555 1.2969v1.5c0 0.74609-0.76172 1.25-1.4492 0.95703l-0.74609-0.3125 0.15234 0.99219c0.042969 0.26172-0.019531 0.53125-0.17188 0.75l-1.5898 2.3164c-0.32422 0.46875-0.96484 0.59375-1.4375 0.27734l-0.089843-0.0625-0.26563 1.0195 0.50391 1.3125 2.25 1.8516c0.38281 0.31641 0.49219 0.85938 0.25781 1.2969l-0.91406 1.707 1.082 2.2812c0.1875 0.39844 0.10547 0.87109-0.20703 1.1797l-0.89844 0.90234 1.0352 4.6562c0.046874 0.21484 0.023437 0.44531-0.066407 0.64844l-0.84375 1.8945 1.8711 1.5977c0.41797 0.35547 0.48828 0.96875 0.16406 1.4102l-2.9766 4.0391-1.4062 3.0898c-0.12109 0.26562-0.35156 0.47266-0.63281 0.5625l-2.7539 0.86719c-0.32031 0.10156-0.66797 0.042968-0.9375-0.16016l-0.24609-0.18359-0.26953 0.44141 0.93359 2.1055c0.30859 0.69141-0.19531 1.4648-0.94922 1.4648h-1.0273l3.4688 2.7109 3.9609 1.9805c0.35156 0.17578 0.57812 0.53516 0.57812 0.92969v0.45703l4.8516 0.99219 0.48047-0.72266c0.33594-0.50391 1.0352-0.61719 1.5117-0.23828l2.5859 2.0391 4.5742 1.25c0.10156 0.027344 0.19922 0.070312 0.28516 0.125l3.1875 2.0273c0.20703 0.13281 0.36328 0.33594 0.43359 0.57031l0.61719 1.9648 2.1641 1.4453 1.8711 0.53125c0.44922 0.12891 0.75781 0.53906 0.75781 1.0039v1.7539l1.332 0.26562c0.48828 0.097656 0.83984 0.52344 0.83984 1.0234v1.5977l0.92969 0.59375 3.043 0.48828 2.7227-1.5586c0.32031-0.18359 0.71484-0.18359 1.0352 0l1.6172 0.92188 2.4453-0.85547c0.31641-0.10938 0.66797-0.0625 0.94141 0.12891l3.9531 2.75c0.40625 0.28516 0.55859 0.81641 0.36328 1.2695l-2.3125 5.3516h1.168c0.31641 0 0.61328 0.14453 0.8125 0.39453l0.33594 0.41797 2.9727-15.121-1-2c-0.070312-0.14453-0.10938-0.30078-0.10938-0.46484v-1.0586l-2.3906-1.7148c-0.27344-0.19531-0.43359-0.51172-0.43359-0.84766v-4.3438c0-0.55469 0.43359-1.0117 0.98828-1.043l4.0938-0.21094-0.33984-0.80859-2.5625-0.23438c-0.53906-0.046875-0.94922-0.49609-0.94922-1.0352v-3.4766c0-0.57031 0.45703-1.0312 1.0234-1.043l7.3516-0.125v-0.28125c0-0.85156 0.96484-1.3438 1.6523-0.84375l0.84375 0.61328 1.2266-1.3398c0.51953-0.57422 1.4648-0.39453 1.7383 0.32812l1.832 4.7891 1.5-0.28516-1.6953-4.6367-1.9102-2.5078h-0.93359c-0.92578 0-1.3906-1.1211-0.73438-1.7773l2.5742-2.5742-1.25-1.8242c-0.0625-0.089844-0.10938-0.19141-0.14062-0.29688l-1.1562-3.9844c-0.027344-0.082031-0.039062-0.16797-0.042968-0.25781l-0.14453-4.7812c-0.007812-0.30859 0.11719-0.60547 0.34766-0.80859l1.0977-0.97266 0.89453-2.6914 0.007812-0.042969-1.1875-0.37109-3.625 0.94141c-0.15234 0.039063-0.30859 0.042969-0.46484 0.011719l-3.1523-0.62891-0.92969 0.71875c-0.42578 0.33594-1.0391 0.28125-1.4062-0.11719l-4.4219-4.8359-3.1719-0.76172-7.5312 0.28516c-0.41016 0.015625-0.78906-0.21094-0.97266-0.57422l-0.83203-1.6641-0.80859-0.085938c-0.61719-0.0625-1.043-0.65625-0.90625-1.2656l0.68359-3-0.21875-1.5234-1.0898-1.2109c-0.09375-0.10156-0.16406-0.22266-0.21094-0.35547l-1.0664-3.0664-0.35156-0.30078-1.6133 0.53906c-0.90234 0.29687-1.7031-0.66406-1.2422-1.4961l2.0898-3.7617 0.55078-3.0156c0.027344-0.16797 0.097656-0.32422 0.20312-0.45703l2.082-2.6445 3.4766-3.7656c0.085937-0.089843 0.1875-0.16797 0.30078-0.22266l4.3398-2.1719-0.73828-1.7344z" fill-rule="evenodd"/>
</svg>
