<?xml version="1.0" encoding="UTF-8"?>
<svg width="100pt" height="100pt" version="1.1" viewBox="0 0 100 100" xmlns="http://www.w3.org/2000/svg">
 <path d="m61.895 25.594c0.17969 0.070312 0.33984 0.19531 0.45312 0.35156l1.1445 1.5742c0.26562 0.36328 0.26562 0.85547 0.003906 1.2227l-3.5508 4.9141-0.33203 3.7773 0.52344 0.19141 3.8398-0.92969c0.24219-0.054687 0.49219-0.027343 0.71094 0.082032l2.0039 1c0.62109 0.3125 0.76953 1.1328 0.29297 1.6445l-1.4688 1.5703 2.2539 3.793 5.8789 5.8789 19.047 6.4453h6.2617c0.92188 0 1.3906 1.1016 0.75 1.7656l-19.297 20.012c-0.19531 0.20312-0.46484 0.31641-0.75 0.31641h-7.2305l-4.7773 1.9375-1.1055 1.8477c-0.16016 0.26562-0.42969 0.44531-0.73438 0.49219l-5.0703 0.78125-0.46875 0.83984c-0.18359 0.32813-0.53125 0.53516-0.91016 0.53516h-4.7188c-0.22266 0-0.44531-0.074219-0.625-0.20703l-2.3594-1.7734-5.043 2.3359-1.8398 2.6289c-0.23438 0.33984-0.64844 0.50391-1.0508 0.42578l-6.4766-1.2656h-2.7578c-0.21094 0-0.41797-0.0625-0.58984-0.18359l-7.4531-5.1055h-5.3945c-0.34766 0-0.67578-0.17578-0.86719-0.46484l-1.4297-2.1445c-0.11328-0.17187-0.17578-0.37109-0.17578-0.57812v-2.9297l-0.90234-0.25781-1.0977 0.4375c-0.6875 0.27734-1.4297-0.22656-1.4297-0.96484v-0.71094l-1.5547-1.5547c-0.19531-0.19531-0.30469-0.46094-0.30469-0.73828v-3.8281l-2.8867-2.6328-3.2148-2.0977c-0.26562-0.17578-0.44141-0.46094-0.46875-0.78125l-0.097656-1.0547-2.3281-1.4414-2.875-0.12891c-0.44141-0.019532-0.82031-0.31641-0.94922-0.74219l-0.42969-1.4297c-0.12109-0.41016 0.019531-0.85547 0.35938-1.1211l0.88281-0.6875v-1.4922c0-0.57422 0.46875-1.043 1.043-1.043h3.1445c0.26562 0 0.51953 0.10156 0.71094 0.28125l1.25-0.80469v-5.4375c0-0.11328 0.015625-0.22266 0.054687-0.32812l1.3477-4.0508-0.39063-2.4648c-0.046874-0.30469 0.042969-0.61719 0.25-0.85156l2.1445-2.4297c0.39453-0.44922 1.0898-0.47266 1.5156-0.046875l0.65234 0.65234 0.28516-0.31641v-5.0312c0-0.29297 0.125-0.57812 0.34375-0.77344l1.3203-1.1875 2.9219-4.7344c0.14453-0.23047 0.37109-0.39453 0.63672-0.46094l2.2109-0.55469v-0.86328c0-0.125 0.023438-0.24609 0.066407-0.36328l1.9766-5.3711 0.70312-2.9414c0.085938-0.37109 0.37109-0.66406 0.73828-0.76562l1.5703-0.42969c0.17969-0.046875 0.37109-0.046875 0.55078 0l0.84766 0.23438 0.15625-0.23438c0.14844-0.22266 0.375-0.37891 0.64062-0.4375l1.2852-0.28906c0.41797-0.089844 0.85547 0.082031 1.0938 0.44141l0.17188 0.26172 1.7578-3.3164c0.31641-0.60547 1.125-0.74219 1.625-0.27734l3.2227 2.9727 3.3789-1.4492c0.34375-0.14844 0.73828-0.10156 1.0352 0.12109l1.125 0.84766 0.67578-0.44922c0.28906-0.19531 0.65234-0.23047 0.97266-0.097656l1.918 0.78906 0.82422-0.55078c0.4375-0.28906 1.0195-0.21094 1.3633 0.18359l0.85938 0.98047 4.2422 2.0547c0.17188 0.082031 0.31641 0.21094 0.41797 0.36719l2.0195 3.0977 2.5234 1.5938c0.13281 0.085938 0.24609 0.19531 0.32812 0.32812l1.9648 3.1445zm-1.0547 1.8203-1.1484-0.46094c-0.20703-0.082031-0.37891-0.22656-0.49609-0.41406l-2.0195-3.2266-2.5156-1.5898c-0.125-0.082031-0.23438-0.1875-0.31641-0.3125l-1.9844-3.043-4.1719-2.0195c-0.125-0.0625-0.23828-0.14844-0.32812-0.25l-0.39844-0.45703-0.52734 0.35156c-0.28906 0.19141-0.65625 0.22656-0.97656 0.09375l-1.9141-0.78906-0.82812 0.55078c-0.36719 0.24609-0.84766 0.23047-1.2031-0.035156l-1.2305-0.92188-3.4492 1.4766c-0.37891 0.16016-0.81641 0.085937-1.1172-0.19141l-2.7227-2.5117-1.9414 3.6641c-0.36719 0.69531-1.3477 0.74609-1.7852 0.089844l-0.75-1.1211-0.17969 0.039063-0.33984 0.50781c-0.25 0.375-0.70703 0.54688-1.1406 0.42969l-1.2969-0.35547-0.70312 0.19141-0.57422 2.4023-0.035156 0.11719-1.9375 5.2578v1.6719c0 0.57422-0.46484 1.043-1.0391 1.043h-0.58594l-1.7539 0.4375-2.7773 4.5c-0.054688 0.082032-0.11719 0.16016-0.19141 0.22656l-1.082 0.97656v4.9688c0 0.25781-0.097656 0.50391-0.26953 0.69531l-1.2852 1.4297c-0.39844 0.44531-1.0898 0.46094-1.5117 0.039062l-0.64453-0.64453-1.0859 1.2305 0.35156 2.2305c0.027344 0.16797 0.011718 0.33594-0.042969 0.49219l-1.375 4.1289v5.8359c0 0.35156-0.17969 0.68359-0.47656 0.875l-2.4297 1.5703c-0.41016 0.26953-0.95312 0.21094-1.3008-0.13672l-0.26562-0.26562h-1.6719v0.95703c0 0.32422-0.14844 0.625-0.40234 0.82422l-0.72266 0.5625 0.011718 0.039063 2.4062 0.10938c0.17578 0.007812 0.34766 0.058594 0.5 0.15234l3 1.8594c0.28125 0.17188 0.46094 0.46484 0.49219 0.79297l0.09375 1.0664 2.8672 1.8711 0.13281 0.10156 3.2891 3.0039c0.21484 0.19531 0.33984 0.47656 0.33984 0.76953v3.8555l1.5508 1.5547c0.10547 0.10547 0.1875 0.23047 0.23828 0.36719l0.066406-0.027344c0.21484-0.085937 0.45312-0.097656 0.67578-0.035156l2 0.57031c0.44922 0.12891 0.75781 0.53906 0.75781 1.0039v3.4023l0.94141 1.418h5.1641c0.20703 0 0.41406 0.0625 0.58594 0.17969l7.4531 5.1055h2.5352l0.20312 0.019532 5.9102 1.1562 1.6133-2.3008c0.10547-0.15234 0.24609-0.27344 0.41406-0.34766l5.8594-2.7188c0.34766-0.16016 0.75781-0.11719 1.0625 0.11328l2.582 1.9375h3.7578l0.41797-0.75391c0.15625-0.28125 0.43359-0.47266 0.75-0.52344l5.0938-0.78125 1.0352-1.7266c0.11328-0.19141 0.29297-0.34375 0.5-0.42969l5.2891-2.1445c0.125-0.046874 0.25781-0.074218 0.39062-0.074218h6.9922l17.289-17.93h-3.9805c-0.11328 0-0.22656-0.019531-0.33594-0.054687l-19.441-6.5742c-0.14844-0.050781-0.28906-0.13672-0.40234-0.25l-6.1445-6.1484c-0.0625-0.0625-0.11719-0.12891-0.16016-0.20312l-2.7148-4.5742c-0.23828-0.39844-0.18359-0.90625 0.13281-1.2422l1.0508-1.125-0.41406-0.20703-3.7773 0.91016c-0.19922 0.046875-0.40625 0.035156-0.59766-0.035156l-1.5742-0.57031c-0.44141-0.16016-0.72266-0.60156-0.67969-1.0703l0.42578-4.8594c0.019531-0.1875 0.085938-0.36719 0.19531-0.51953l3.2734-4.5352z" fill-rule="evenodd"/>
</svg>
