<?xml version="1.0" encoding="UTF-8"?>
<svg width="100pt" height="100pt" version="1.1" viewBox="0 0 100 100" xmlns="http://www.w3.org/2000/svg">
 <path d="m83.855 26.922 4.4258-1.2656c0.058594-0.015625 2.0859-0.03125 6.0703-0.039062 0.50391 0 0.9375 0.36328 1.0273 0.85937l0.98047 5.5195 1.7812 3.7969c0.0625 0.13672 0.097656 0.28906 0.097656 0.44141v3.0547c0 0.45313-0.29688 0.85547-0.73047 0.99219l-1.6602 0.52734 3.7422 3.0898c0.37109 0.30469 0.48438 0.82422 0.27734 1.2539l-2.6133 5.3906c-0.089844 0.1875-0.23047 0.33984-0.41016 0.44531l-3.7852 2.2227 0.95703 0.29687c0.24609 0.078126 0.45312 0.24219 0.58594 0.46484l1.6523 2.7734c0.11719 0.19531 0.16406 0.42578 0.13672 0.65234l-0.64062 5.6055c-0.027344 0.21875-0.12109 0.42188-0.26953 0.58594l-2.6289 2.8516c-0.23828 0.25391-0.58594 0.375-0.92578 0.32422l-4.168-0.64844 2.8906 3.9961 2.1406 2.8125 4.0625 2.4219c0.44922 0.26562 0.62891 0.82422 0.42188 1.3047l-2.4688 5.7266c0.41016 1.625 0.69922 2.8594 0.85937 3.7148 0.09375 0.48438 0.14844 0.85547 0.16016 1.1328 0.011719 0.19922 0.007812 0.36328-0.03125 0.52734-0.10156 0.47656-0.42578 0.90625-1.0781 0.90625-0.6875 0-1.918-1.0625-6.6992-5.4609l-5.4375-1.9609-6.6172 0.78906-7.1836-0.70312v2.0312c0 0.64453-0.57812 1.1367-1.2148 1.0273l-5.793-0.97656-1.1133 1.0664c-0.23828 0.22656-0.57031 0.32812-0.89844 0.27344l-13.613-2.3555-5.8789-0.35938c-0.22656-0.011719-0.4375-0.097656-0.60938-0.24609l-2.3203-1.9688-5.8789 1.3789-3.8438 0.76953-2.7617 2.1172 1.1367 3.1836c0.21484 0.60156-0.15234 1.25-0.77734 1.375l-3.9688 0.78125c-0.46094 0.089844-0.92969-0.14062-1.1367-0.56641l-2.3203-4.7812-7.7969-5.043-3.6172 0.67578c-0.33203 0.0625-0.67578-0.039062-0.91797-0.27734l-5.0898-4.9648c-0.26562-0.25781-0.37109-0.64062-0.28125-1l1.9023-7.6211c0.089844-0.36328 0.37109-0.65234 0.73047-0.75l7.2109-2.0078c0.25391-0.070313 0.52344-0.042969 0.75781 0.074218l5.543 2.8438h3.2461c0.125 0 0.25 0.023438 0.36719 0.066406l5.1875 1.9648 1.8047-0.62109c0.35547-0.12109 0.74609-0.042968 1.0273 0.20313l2.2852 2 3.7578-0.77734c0.10938-0.023438 0.21875-0.027344 0.33203-0.015625l7.707 0.87891h4.3242c0.1875 0 0.375 0.050781 0.53516 0.14844l2.3242 1.4023 4.0391-0.66016c0.0625-0.011719 2.2227 0.21094 6.4883 0.66797l5.1094-3.7031c0.20312-0.14844 0.45312-0.21875 0.70312-0.19531l7.5195 0.66797 0.76562-2.5156-6.5195-3.6094c-0.12891-0.074219-0.24609-0.17578-0.33203-0.29688l-4.6719-6.3555-4.7812-3.4258c-0.40234-0.28516-0.54687-0.81641-0.34766-1.2695l0.68359-1.5352c0.125-0.28125 0.36328-0.49219 0.66016-0.57813l1.8086-0.52734-2.2891-2.5156c-0.32813-0.36328-0.35938-0.89844-0.082032-1.3008l1.5781-2.2578-0.53516-2.3203c-0.10156-0.42969 0.085937-0.87891 0.46094-1.1172l1.793-1.1289h-1.2383c-0.20703 0-0.40625-0.0625-0.57812-0.17578l-5.8828-3.9102-4.4922-2.8789-0.83594 0.66406c-0.27344 0.21875-0.64453 0.28516-0.97656 0.17188l-3.082-1.0312-4.3633 1.0547c-0.33984 0.082031-0.69922-0.011719-0.95703-0.24609l-3.7695-3.5039c-0.30078-0.28125-0.41016-0.71875-0.27344-1.1094l1.1055-3.1406c0.089844-0.25781 0.27734-0.46875 0.52344-0.58984l9.4492-4.6406c0.20703-0.10156 0.44141-0.13281 0.66797-0.085937l4.3633 0.89453 7.6484-1.8789c0.16016-0.039063 0.32422-0.039063 0.48828-0.003906l8.2266 1.9375c0.10938 0.023437 0.21094 0.066406 0.30859 0.125l6.0039 3.6992c0.13281 0.082032 0.24609 0.19141 0.32812 0.32422l1.3789 2.1328 2.7031-2.3555c0.40234-0.34766 1-0.33984 1.3906 0.019531zm4.8555 0.77734-4.8438 1.3828c-0.34766 0.10156-0.72266 0.011719-0.99219-0.23438l-4.2852-3.9336-2.9141 2.5312c-0.47656 0.41797-1.2148 0.3125-1.5586-0.22266l-1.8984-2.9414-5.6602-3.4883-7.8203-1.8398-7.6328 1.875c-0.14844 0.039063-0.30469 0.042969-0.45703 0.011719l-4.2461-0.87109-8.7461 4.2969-0.73828 2.0938 2.8594 2.6562 4.1133-0.99219c0.19141-0.046876 0.39062-0.039063 0.57812 0.023437l2.8281 0.94531 0.97266-0.77344c0.34766-0.27734 0.83203-0.30078 1.207-0.0625l5.1406 3.2891 5.6328 3.7461h1.8906c0.53125 0 0.97656 0.39844 1.0352 0.92188l0.18359 1.5508c0.042969 0.39844-0.14062 0.78906-0.48047 1l-1.7617 1.1133 0.47656 2.0508c0.066406 0.28516 0.007812 0.58594-0.16406 0.82812l-1.3672 1.957 2.8516 3.1406c0.51563 0.57031 0.25781 1.4844-0.48047 1.6992l-2.9453 0.85547-0.14062 0.32031 4.2266 3.0273c0.089843 0.066406 0.16797 0.14062 0.23438 0.23047l4.6328 6.3047 7.0547 3.9102c0.43359 0.23828 0.63672 0.74609 0.49219 1.2148l-1.2578 4.1289c-0.14453 0.47266-0.59766 0.77734-1.0898 0.73438l-7.9688-0.70703-5.125 3.7148c-0.20703 0.14844-0.46484 0.21875-0.72266 0.19141l-6.4648-0.70703-4.2734 0.69922c-0.24609 0.039062-0.49609-0.007813-0.70703-0.13672l-2.4023-1.4492h-4.0938l-7.7188-0.87109-4.1016 0.84766c-0.32031 0.066406-0.65234-0.019531-0.89844-0.23438l-2.2227-1.9453-1.5938 0.54688c-0.23047 0.078125-0.48047 0.074219-0.70703-0.011718l-5.3594-2.0312h-3.3047c-0.16406 0-0.32812-0.039063-0.47656-0.11328l-5.4062-2.7734-6.2344 1.7383-1.6133 6.4531 4.2734 4.1719 3.4961-0.65625c0.26172-0.046875 0.53125 0.003906 0.75781 0.14844l8.3867 5.4258c0.16016 0.10547 0.28906 0.25 0.37109 0.42188l2.0977 4.3203 1.9922-0.39453-0.98828-2.7578c-0.15234-0.42578-0.011718-0.90234 0.34766-1.1797l3.5586-2.7266c0.125-0.097656 0.27344-0.16406 0.42969-0.19531l4.0469-0.80859 6.3555-1.4883c0.32031-0.078125 0.66016 0.003906 0.91016 0.21875l2.457 2.082 5.5898 0.33984 13.27 2.2891 1.1094-1.0625c0.23828-0.22656 0.56641-0.32812 0.89062-0.27344l5.0977 0.85938v-1.9531c0-0.61719 0.53125-1.0977 1.1445-1.0352l7.9883 0.80859 6.7461-0.80859c0.16016-0.015625 0.32422 0 0.47656 0.054687l5.8672 2.1211c0.13281 0.046875 0.25 0.12109 0.35156 0.21484 1.7266 1.5859 3.0859 2.8125 4.0781 3.6836-0.16406-0.72656-0.38281-1.6133-0.65234-2.6602-0.054687-0.22266-0.039062-0.46094 0.054688-0.67188l2.25-5.2109-3.4492-2.0547c-0.11328-0.066406-0.21484-0.15625-0.29688-0.26562l-2.2539-2.9648-3.6211-4.6484c-0.33984-0.43359-0.28125-1.0586 0.13672-1.4219l1.2344-1.082c0.23047-0.20312 0.53906-0.29297 0.84766-0.24609l4.0977 0.63672 2.0234-2.1953 0.5625-4.9141-1.2656-2.1328-2.8281-0.875c-0.86328-0.26953-0.99609-1.4375-0.21875-1.8945l5.5469-3.2578 2.1172-4.3672-4.5898-3.7891c-0.63672-0.52734-0.4375-1.5508 0.34766-1.7969l2.7617-0.87109v-2.0586l-1.7383-3.7148c-0.039062-0.082031-0.066406-0.16797-0.082031-0.25781l-0.85156-4.7969zm-37.254-12.871c-1.0234-0.12109-1.2695-1.4961-0.35156-1.9648l4.5234-2.3086c0.14844-0.074219 0.30859-0.11328 0.47266-0.11328h6.2695c0.26953 0 0.52734 0.10547 0.72266 0.29297l4.207 4.0664c0.71484 0.69531 0.14453 1.8984-0.84766 1.7852zm12.18-0.67188-1.6875-1.6289h-5.5977l-1.2383 0.63281zm-22.844 42.43c-0.60156-0.375-0.65625-1.2344-0.10938-1.6836l2.75-2.2656c0.27734-0.23047 0.65234-0.29688 0.99609-0.18359l4.4141 1.4922 7.7109 3.2148c0.15625 0.0625 0.29297 0.16797 0.40234 0.29688l3.8398 4.6602c0.60938 0.73437-0.011719 1.832-0.95312 1.6914l-9.6211-1.418c-0.14062-0.019531-0.27734-0.070313-0.39844-0.14844zm9.9531 3.7773 6.7227 0.99219-1.9531-2.3711-7.4062-3.0898-3.7969-1.2812-1.1875 0.97656z" fill-rule="evenodd"/>
</svg>
