<?xml version="1.0" encoding="UTF-8"?>
<svg width="100pt" height="100pt" version="1.1" viewBox="0 0 100 100" xmlns="http://www.w3.org/2000/svg">
 <path d="m4.168 47.832-1.5703-1.6484c-0.27344-0.28906-0.35938-0.71094-0.21875-1.082l1.5078-4.0586c0.11328-0.30859 0.36719-0.54688 0.68359-0.63672l2.1641-0.62891 12.363-10.438c0.09375-0.078125 0.20312-0.14062 0.32031-0.18359l6.3359-2.2812c0.17188-0.0625 0.35547-0.078125 0.53906-0.046875l6 1.0938 8.2891 1.1484 3.1953-1.1016c0.21875-0.078125 0.45703-0.078125 0.67578 0l3.0664 1.0469 9.3281-4.2344c0.26953-0.125 0.58203-0.125 0.85156-0.003906l4.5859 2.0352h4.8672l2.6289-1.0117c0.25391-0.097656 0.53906-0.09375 0.78906 0.015625l3.2812 1.4297 5.9922 0.67188c0.11719 0.011719 0.23047 0.046875 0.33594 0.09375l4.5586 2.1875c0.35938 0.17578 0.58984 0.53906 0.58984 0.94141v4.207l2.293 1.6133h6.7617c0.25781 0 0.50781 0.09375 0.69922 0.26562l4.543 4.0938c0.71094 0.64063 0.25781 1.8164-0.69531 1.8164h-4.1602l-3.6289 3.1172c-0.14062 0.12109-0.30469 0.19922-0.48438 0.23438l-6.0898 1.1602-5.25 1.4609c-0.15625 0.042969-0.31641 0.046875-0.47266 0.019531l-3.6797-0.69141c-0.22266-0.039062-0.42187-0.15234-0.57812-0.32031l-1.4648-1.6094h-0.5625l-2.5625 2.9922-1.6016 3.2578 0.035157 1.7578c0.011718 0.52344-0.37109 0.97266-0.89063 1.0508l-2.0742 0.30469-5.2734 4.1562-0.58594 1.4688c-0.21875 0.54688-0.84766 0.80469-1.3867 0.56641l-3.9414-1.7266c-0.37891-0.16406-0.625-0.53906-0.625-0.95313v-0.63281l-3.4258 4.4492c-0.22266 0.28516-0.57422 0.4375-0.93359 0.39844l-5.2461-0.55859 0.58984 7.332c0.050781 0.60547-0.42969 1.125-1.0391 1.125h-2.0977l-0.49609 1.9648c-0.050781 0.20703-0.16016 0.39062-0.32031 0.52734l-1.4219 1.2539c-0.19141 0.16797-0.4375 0.26172-0.69141 0.26172h-4.0625c-0.30469 0-0.59375-0.13281-0.78906-0.36328l-3.4492-4.0078c-0.16406-0.1875-0.25391-0.42969-0.25391-0.67969v-0.94922l-3.4531-0.27344c-0.54297-0.039063-0.96094-0.49219-0.96094-1.0352v-2.9492c0-0.21094 0.0625-0.41797 0.18359-0.58984l1.4297-2.0703-0.95312-1.2812-2.3047 0.78906c-0.39453 0.13672-0.83203 0.023438-1.1094-0.28516l-1.2461-1.3828h-1.5742l-3.0586 1.6055c-0.46484 0.24219-1.0352 0.10547-1.3359-0.32422l-1.1055-1.582-8.7539-6.2578-4.6367-0.65625c-0.77344-0.10547-1.1563-0.99609-0.70312-1.6328l2.0703-2.918c0.19531-0.27344 0.51172-0.4375 0.85156-0.4375h0.8125zm1.4883-5.5742-1.0977 2.9609 1.4062 1.4805c0.18359 0.19141 0.28516 0.44922 0.28516 0.71484v1.8516c0 0.57422-0.46484 1.043-1.043 1.043h-1.3164l-0.76562 1.082 3.1953 0.44922c0.16406 0.023437 0.32031 0.085937 0.45703 0.18359l9.1094 6.5117c0.09375 0.070313 0.17969 0.15234 0.24609 0.25l0.67969 0.97656 2.4727-1.3008c0.15234-0.078126 0.31641-0.12109 0.48438-0.12109h2.293c0.29688 0 0.57812 0.125 0.77344 0.34375l1.0977 1.2188 2.3711-0.81641c0.42969-0.14453 0.90234 0 1.1719 0.36328l1.8555 2.4883c0.26953 0.35938 0.27734 0.84766 0.023438 1.2148l-1.6719 2.4219v1.6562l3.4531 0.26953c0.54297 0.042969 0.96094 0.49609 0.96094 1.0391v1.5273l2.8867 3.3516h3.1953l0.88281-0.77734 0.61328-2.4414c0.11719-0.46094 0.53516-0.78516 1.0117-0.78516h1.7812l-0.60156-7.457c-0.050782-0.65234 0.5-1.1914 1.1484-1.1211l5.918 0.62891 3.4062-4.4219c0.16016-0.20703 0.38672-0.34375 0.64453-0.39062l1.5273-0.27344c0.64062-0.11328 1.2266 0.37891 1.2266 1.0273v1.2969l2.332 1.0195 0.29297-0.72656c0.066407-0.16797 0.17969-0.31641 0.32031-0.42969l5.7109-4.5039c0.14453-0.11328 0.3125-0.1875 0.49219-0.21094l1.4414-0.21484-0.023437-1.0898c0-0.16797 0.035156-0.33203 0.10937-0.48047l1.7695-3.6055c0.039062-0.078126 0.085937-0.15234 0.14453-0.21875l2.9609-3.457c0.19922-0.23047 0.48828-0.36328 0.79297-0.36328h1.5c0.29297 0 0.57031 0.125 0.76953 0.33984l1.543 1.6953 3.0938 0.57812 5.1016-1.4141 5.9023-1.1289 3.7148-3.1875c0.1875-0.16406 0.42969-0.25 0.67578-0.25h1.832l-2.2305-2.0117h-6.6914c-0.21484 0-0.42578-0.066407-0.60156-0.19141l-3.0039-2.1133c-0.27734-0.19531-0.44141-0.51172-0.44141-0.85156v-4.0898l-3.8086-1.8281-5.9727-0.67188c-0.10156-0.011719-0.20312-0.035156-0.30078-0.078125l-3.0312-1.3203-2.4102 0.92578c-0.12109 0.046875-0.24609 0.070312-0.375 0.070312h-5.2852c-0.14453 0-0.28906-0.03125-0.42188-0.089843l-4.3594-1.9336-9.2773 4.2148c-0.24219 0.10937-0.51953 0.12109-0.76953 0.035156l-3.1172-1.0664-3.0898 1.0664c-0.15625 0.054687-0.32031 0.070312-0.48438 0.046875l-8.582-1.1914-5.7656-1.0469-5.8945 2.1211-12.395 10.461c-0.10938 0.09375-0.23828 0.16406-0.37891 0.20312z" fill-rule="evenodd"/>
</svg>
