<?xml version="1.0" encoding="UTF-8"?>
<svg width="100pt" height="100pt" version="1.1" viewBox="0 0 100 100" xmlns="http://www.w3.org/2000/svg">
 <path d="m82.934 10.805h6.9883c0.84375 0 1.3398 0.94922 0.85547 1.6367l-5.7422 8.207-0.11719 0.14062-2.9766 2.9766v36.016l5.6797 7.793c0.27734 0.38281 0.26562 0.90625-0.035156 1.2734l-3.0078 3.6914c-0.19922 0.24219-0.49609 0.38281-0.80859 0.38281h-0.19141c0.019531 0.37109-0.16016 0.73438-0.49219 0.9375l-2.6055 1.6133-0.6875 1.4961c-0.085938 0.18359-0.22656 0.33984-0.40234 0.44922l-1.7773 1.0938c-0.1875 0.11719-0.41016 0.16797-0.63281 0.15234l-1.2852-0.10937-1.6172 1.0469-0.35156 2.9336-0.039062 0.19141-0.82031 2.5977c-0.050782 0.16016-0.14063 0.30469-0.25781 0.42188l-1.1953 1.1953-0.77344 2.3125-1.3984 3.2109-3.4219 6.5625c-0.17969 0.34766-0.53516 0.5625-0.92187 0.5625h-1.0781l-0.4375 0.26172c-0.35547 0.21094-0.80078 0.19531-1.1367-0.042968l-14.359-10.117c-0.12891-0.09375-0.23828-0.21484-0.3125-0.35547l-0.71875-1.3125-1.0586-0.82422c-0.47656-0.37109-0.53906-1.0703-0.13672-1.5195l0.87891-0.97266-0.34375-1.6211-35.402-20.059-1.332-0.24219c-0.51172-0.09375-0.87891-0.55078-0.85156-1.0742l0.40234-8.3203-0.64453-2.4414c-0.082032-0.3125-0.015626-0.64453 0.17969-0.89844l1.625-2.1211 0.36719-2.0781c0.050782-0.30078 0.23438-0.5625 0.5-0.71875l1.2773-0.74609 0.16016-0.55469c0.046876-0.16797 0.14063-0.32422 0.26563-0.44922l1.2148-1.2148 0.74219-1.8555c0.089843-0.22266 0.25391-0.41016 0.46875-0.52734l2.1836-1.1914-0.32422-0.77344c-0.17578-0.42187-0.054688-0.91016 0.29688-1.2031l1.4062-1.1719 0.91797-2.8672-1.0352-4.9297-0.019531-0.11719-0.10156-1.1289-0.96484-0.96484c-0.15625-0.15625-0.25781-0.35938-0.29297-0.57812l-0.18359-1.1992-1.1016-0.46094c-0.31641-0.12891-0.54688-0.40625-0.61719-0.74219l-0.27344-1.2812-0.46484-0.11328c-0.40625-0.10156-0.71094-0.4375-0.77734-0.84766l-0.41016-2.6016c-0.015625-0.10547-0.015625-0.21484 0-0.32422l0.29297-1.8438-2.0547-1.0273c-0.20703-0.10156-0.37109-0.26953-0.47266-0.47656l-2.0508-4.2422c-0.1875-0.38672-0.11719-0.84766 0.17578-1.1641l3.8281-4.1016c0.10938-0.11328 0.23828-0.20312 0.38281-0.26172l10.531-4.1016c0.37109-0.14453 0.78906-0.066406 1.0781 0.19922l1.5078 1.3672c0.21484 0.19922 0.33984 0.48047 0.33984 0.77344v1.5195l0.71484 0.52344 1.8906-0.33594c0.40625-0.070313 0.82031 0.10547 1.0469 0.44922l0.78516 1.1758h7.6484c0.20312 0 0.40234 0.0625 0.57422 0.17187l12.547 8.2773 3.7344-0.375c0.12109-0.011718 0.24219 0 0.35938 0.027344l5.2461 1.3516 4.2695 0.71094 2.6328-3.832c0.11328-0.16016 0.26953-0.28906 0.44922-0.36719l9.5742-4.1016c0.37109-0.16016 0.80078-0.089844 1.1016 0.17969zm4.9883 2.082h-5.3828c-0.25391 0-0.5-0.09375-0.69141-0.26172l-3.1992-2.8438-8.6875 3.7227-2.8359 4.1289c-0.23047 0.33203-0.63281 0.50391-1.0312 0.4375l-5.0117-0.83984-5.1523-1.3203-3.9219 0.39062c-0.23828 0.023438-0.47656-0.035156-0.67578-0.16797l-12.594-8.3047h-7.8945c-0.34766 0-0.67188-0.17578-0.86328-0.46484l-0.71875-1.0742-1.6523 0.29297c-0.28125 0.046875-0.56641-0.019531-0.79688-0.18359l-1.5039-1.0938c-0.26953-0.19922-0.42969-0.51172-0.42969-0.84375v-1.5898l-0.68359-0.625-9.707 3.7812-3.1797 3.4102 1.5859 3.2773 2.418 1.207c0.40625 0.20312 0.63281 0.64453 0.5625 1.0938l-0.38672 2.4375 0.27734 1.7539 0.42578 0.10547c0.38672 0.097656 0.68359 0.40625 0.76562 0.79297l0.29688 1.3828 1.1367 0.47266c0.33594 0.14062 0.57422 0.44531 0.62891 0.80469l0.22266 1.4375 0.98828 0.99219c0.17188 0.17188 0.28125 0.39844 0.30078 0.64063l0.13281 1.4453 1.082 5.1367c0.035156 0.17578 0.027344 0.35938-0.027344 0.53125l-1.0938 3.418c-0.0625 0.19141-0.17578 0.35547-0.32812 0.48437l-1.0508 0.875 0.39062 0.93359c0.20312 0.49219 0.003906 1.0586-0.46484 1.3125l-2.6797 1.4648-0.67969 1.7031c-0.050781 0.12891-0.13281 0.25-0.23047 0.34766l-1.1758 1.1758-0.19922 0.69922c-0.074219 0.25781-0.24609 0.47656-0.47656 0.61328l-1.2266 0.71484-0.32422 1.8477c-0.03125 0.16406-0.097657 0.32031-0.19922 0.45313l-1.4688 1.918 0.55469 2.1055c0.027344 0.10547 0.039063 0.21094 0.03125 0.31641l-0.36328 7.5664 0.60547 0.10937c0.11328 0.023438 0.22656 0.0625 0.32812 0.12109l35.965 20.375c0.26172 0.14844 0.44531 0.39844 0.50781 0.69141l0.54688 2.5977c0.066406 0.32812-0.023438 0.66406-0.24609 0.91406l-0.48438 0.53516 0.34766 0.26953c0.11328 0.089843 0.20703 0.19922 0.27734 0.32422l0.70312 1.2891 13.605 9.5898 0.10156-0.058594c0.16406-0.097656 0.34766-0.14844 0.53906-0.14844h0.73438l3.0938-5.9375 1.3359-3.0625 0.82031-2.4609c0.050781-0.15234 0.13672-0.29297 0.25391-0.40625l1.1875-1.1875 0.71484-2.2617 0.39844-3.3242c0.035157-0.30469 0.20703-0.58203 0.46484-0.75l2.3281-1.5039c0.19141-0.125 0.42188-0.18359 0.65234-0.16406l1.2969 0.10938 1.2188-0.75 0.69141-1.4922c0.085938-0.1875 0.22266-0.34375 0.39453-0.44922l2.1445-1.3281-0.10938-0.29297c-0.25391-0.67969 0.25-1.4062 0.97656-1.4062h1.1445l2.1914-2.6875-5.4102-7.418c-0.12891-0.17969-0.19922-0.39453-0.19922-0.61328v-36.789c0-0.27734 0.10938-0.53906 0.30469-0.73438l3.2188-3.2188z" fill-rule="evenodd"/>
</svg>
