<?xml version="1.0" encoding="UTF-8"?>
<svg width="100pt" height="100pt" version="1.1" viewBox="0 0 100 100" xmlns="http://www.w3.org/2000/svg">
 <defs>
  <clipPath id="a">
   <path d="m31 18.512h38v62.977h-38z"/>
  </clipPath>
 </defs>
 <g clip-path="url(#a)">
  <path d="m50.352 73.934 0.93359 0.96875c0.19922 0.20703 0.24219 0.51953 0.10156 0.76953l-0.80859 1.4648c-0.11719 0.21094-0.33594 0.33984-0.57422 0.33984h-2.9336c-0.44922 0-0.76562-0.44141-0.62109-0.86719l0.71484-2.1211c0.082032-0.23047 0.28125-0.40234 0.52734-0.4375l2.0898-0.3125c0.21094-0.03125 0.42188 0.042969 0.57031 0.19531zm-15.922-48.023-0.43359-2c-0.023438-0.12109-0.015625-0.24609 0.027344-0.36328l0.49609-1.3672c0.027344-0.070313 0.066407-0.13672 0.11328-0.19531l1.8086-2.1758c0.0625-0.082032 0.14844-0.14453 0.24219-0.18359l2.4297-1.0586c0.082031-0.035156 0.17188-0.054687 0.26172-0.054687h1.1836c0.14453 0 0.28516 0.046875 0.40234 0.13672l1.6914 1.293h3.4531c0.14062 0 0.28125 0.046875 0.39453 0.13281l4.7227 3.5352 0.74219-0.21875c0.14844-0.042969 0.30859-0.03125 0.44922 0.03125l2.5547 1.1172c0.16016 0.074219 0.28906 0.20703 0.35156 0.37109l0.50391 1.3477 0.76172 0.70313c0.066406 0.066406 0.12109 0.14453 0.15625 0.23047l0.52344 1.25 3.6523 1.5938 3.0117 0.30078c0.13672 0.015624 0.26562 0.070312 0.37109 0.16406l1.5039 1.3281 1.7188 0.45703c0.1875 0.050782 0.34375 0.18359 0.42578 0.35938l0.6875 1.4961c0.074219 0.16406 0.078125 0.35156 0.011719 0.51953l-0.6875 1.6797c-0.019532 0.050781-0.046876 0.097656-0.078126 0.14062l-1.8672 2.5508c-0.039063 0.050781-0.085937 0.097656-0.13672 0.13672l-0.62891 0.47266 0.24219 0.80469c0.03125 0.10938 0.035156 0.22266 0.011718 0.32813l-0.75 3.4219c-0.007812 0.050782-0.027344 0.10156-0.046875 0.14453l-1.4961 3.1133c-0.10938 0.22656-0.33984 0.37109-0.59375 0.37109h-1.9258l-2.8359 1.8203v2.0664c0 0.14062-0.046875 0.27734-0.12891 0.39062l-4.4258 5.9727c-0.14062 0.19141-0.375 0.28906-0.60938 0.26172l-1.4922-0.1875 0.26953 0.90234c0.039062 0.12891 0.039062 0.26953-0.003906 0.39844l-0.5625 1.6797c-0.074219 0.22656-0.26562 0.39453-0.50391 0.4375l-2.9102 0.53516-0.23438 1.4727c-0.039062 0.24219-0.21094 0.44141-0.44141 0.51953l-0.8125 0.26953 0.14453 0.33984c0.074219 0.16406 0.074219 0.34766 0.007813 0.51562l-1.125 2.6758c-0.078125 0.19141-0.24219 0.33203-0.44531 0.38281l-0.98047 0.24609-0.26172 0.42969 0.96875 0.54297c0.20703 0.11328 0.33594 0.33203 0.33594 0.57031v1.1836c0 0.19141-0.085937 0.37891-0.23438 0.5l-1.3242 1.1133v0.6875c0 0.22656-0.11719 0.4375-0.30859 0.55859l-0.62109 0.38672 0.50391 2.8711 2.1797 1.7734c0.38672 0.31641 0.29297 0.93359-0.17578 1.1172l-2.9922 1.1836c-0.22656 0.089844-0.48438 0.046875-0.66797-0.11328l-4.1133-3.5469c-0.10938-0.09375-0.18359-0.21875-0.21484-0.35938l-0.99609-4.7305c-0.019532-0.10156-0.019532-0.20312 0.007812-0.30469l0.98438-3.6836 0.30469-2.7852 0.37109-5.7266c0.003906-0.054687 0.015625-0.10938 0.03125-0.16016l1.3398-4.0703v-2.2578l0.007812-0.10938 1.1719-6.9492-0.27734-2.9648-3.668-2.5039c-0.09375-0.0625-0.16797-0.14453-0.21484-0.24219l-2.293-4.5117-2.0352-3.1445c-0.082031-0.12891-0.12109-0.28125-0.10156-0.43359l0.375-3.2969c0.011718-0.12109 0.058594-0.23438 0.13672-0.33203z"/>
 </g>
</svg>
