<?xml version="1.0" encoding="UTF-8"?>
<svg width="100pt" height="100pt" version="1.1" viewBox="0 0 100 100" xmlns="http://www.w3.org/2000/svg">
 <path d="m70.477 8.2422 7.7461-7.9297c0.49609-0.50391 1.3398-0.38281 1.668 0.24609l2.0742 3.9609c0.078125 0.14844 0.12109 0.31641 0.12109 0.48438v1.0352h0.65625c0.77344 0 1.2773 0.8125 0.92969 1.5039l-0.20703 0.41797 1.8516 0.57812c0.078125 0.023438 0.15234 0.058594 0.22656 0.097657l1.8867 1.1328c0.38281 0.23047 0.57812 0.6875 0.47656 1.125l-0.89453 3.9336 0.76562 3.8164 1.207 0.24219c0.40625 0.082031 0.72656 0.39844 0.8125 0.80859l0.65234 3.0898 1.4375 0.71875c0.097656 0.050782 0.19141 0.11719 0.26953 0.19531l1.3203 1.3203c0.19531 0.19531 0.30469 0.46094 0.30469 0.73828v1.6992l2.4062 2.9219c0.28906 0.35156 0.31641 0.85547 0.0625 1.2383l-0.51172 0.76562 1.793 8.2461c0.03125 0.13672 0.03125 0.28125 0.003906 0.41797l-1.1289 5.8477c-0.042969 0.20703-0.14062 0.39453-0.28906 0.53906l-2.1836 2.1875 0.55078 1.6523c0.10938 0.33594 0.042969 0.70312-0.17578 0.98047l-0.75391 0.94531c-0.10547 0.13281-0.24219 0.23438-0.39844 0.30469l-3.9414 1.7109-1.7266 4.4961c-0.0625 0.16016-0.16016 0.30078-0.28906 0.41016l-1.3945 1.2227-1.2422 1.9492c-0.11719 0.18359-0.28906 0.32812-0.49219 0.41016l-1.3789 0.55078-0.82031 3.6172c-0.03125 0.14062-0.09375 0.27344-0.17969 0.38672l-2.8828 3.9062 1.1484 3.4492c0.054688 0.16406 0.066407 0.34375 0.035157 0.51562l-1.1133 6.1328v8.3945c0 0.57422-0.46875 1.043-1.043 1.043h-53.191l-2.6445 1.0586c-0.12109 0.046876-0.25391 0.074219-0.38672 0.074219h-4.5039l-3.0938 5.1523c-0.125 0.21094-0.32031 0.36719-0.55078 0.44922l-4.3359 1.5078c-0.55078 0.19141-1.1484-0.10156-1.332-0.65234l-0.29297-0.88281c-0.27344 0.11719-0.59766 0.11719-0.88281-0.027344l-1.125-0.55859-1.8516 0.61719c-0.65234 0.21875-1.3359-0.24609-1.3711-0.93359l-0.19141-3.6406v-4.5273c0-0.50781 0.37109-0.94141 0.87109-1.0273l0.28516-0.046875 0.16797-6.1211 0.019531-0.1875 1.4766-7.0117-0.35938-3.6133c-0.046875-0.46094 0.21875-0.89844 0.64844-1.0703l1.3203-0.52734 0.29688-2.2266c0.023437-0.17969 0.09375-0.34766 0.19922-0.48828l2.043-2.7266-0.17578-4.9141c-0.015625-0.47266 0.29297-0.90234 0.74609-1.0352l2.7031-0.79297 1.5195-4.2227c0.15234-0.42969 0.57422-0.71094 1.0312-0.68359l3.0859 0.16016 13.543-15.305-1.5703-1.5703c-0.19531-0.19531-0.30469-0.46094-0.30469-0.73438v-0.69531l-1.8789-0.99609-0.78516 1.0078c-0.31641 0.40625-0.88281 0.52344-1.332 0.26953l-3.0195-1.6992c-0.32812-0.18359-0.53125-0.53125-0.53125-0.90625v-2.832c0-0.17578 0.046875-0.35156 0.13281-0.50781l2.3203-4.1445-1.8867-2.668c-0.20703-0.29297-0.24609-0.67188-0.10938-1.0039l2.582-6.1992-0.71484-0.83203c-0.30078-0.35547-0.33203-0.86719-0.074219-1.2578l2.2656-3.3945c0.11328-0.17188 0.27734-0.30859 0.46875-0.38672l3.207-1.3203c0.125-0.050781 0.26172-0.078125 0.39844-0.078125h2.2617c0.17578 0 0.34766 0.042969 0.50391 0.12891l3.3008 1.8164 4.9883-2.4062c0.50391-0.24609 1.1133-0.042969 1.375 0.45312l1.8828 3.5977 2.168 0.75781 0.03125-0.22656c0.039062-0.32031 0.22266-0.60156 0.49609-0.76562l3.7734-2.2656c0.12109-0.070313 0.25781-0.11719 0.39453-0.13672l6.8125-0.92188 3.2383-1.6211c0.32031-0.15625 0.69922-0.14453 1.0039 0.039063l2.6445 1.5898zm1.125 1.8281c-0.23047 0.23438-0.55859 0.34766-0.88281 0.30469l-5.6602-0.75391c-0.14062-0.019532-0.27734-0.066406-0.39844-0.14062l-2.3398-1.4023-2.8867 1.4414c-0.10156 0.050781-0.21094 0.085938-0.32422 0.10156l-6.7695 0.91406-3.1523 1.8945-0.125 1.0039c-0.085938 0.66016-0.75391 1.0742-1.3789 0.85547l-3.7734-1.3203c-0.25-0.089844-0.45703-0.26562-0.57812-0.5l-1.6094-3.0703-4.5625 2.2031c-0.30469 0.14844-0.66016 0.13672-0.95312-0.023437l-3.5391-1.9492h-1.793l-2.7227 1.1211-1.6484 2.4766 0.61719 0.72266c0.25781 0.29688 0.32422 0.71484 0.17188 1.0781l-2.6094 6.2578 1.9336 2.7383c0.23047 0.32812 0.25391 0.76172 0.054687 1.1094l-2.5078 4.4805v1.9492l1.707 0.95703 0.76953-0.98828c0.30859-0.39844 0.86328-0.51562 1.3086-0.28125l3.207 1.6992c0.34375 0.17969 0.55469 0.53516 0.55469 0.92188v0.88672l1.9609 1.9609c0.38672 0.38672 0.40625 1.0117 0.042969 1.4258l-14.527 16.414c-0.21094 0.23828-0.51953 0.36719-0.83594 0.34766l-2.8125-0.14453-1.4336 3.9883c-0.11328 0.3125-0.36719 0.55078-0.6875 0.64453l-2.4297 0.71484 0.16016 4.4766c0.007812 0.23437-0.066407 0.46875-0.21094 0.66016l-2.0977 2.8008-0.34375 2.5625c-0.050782 0.37109-0.29688 0.6875-0.64453 0.82812l-1.1602 0.46484 0.30078 2.9922c0.011718 0.10547 0.003906 0.21484-0.019532 0.31641l-1.4883 7.0781-0.1875 6.8867c-0.011719 0.5-0.375 0.91797-0.86719 1l-0.26172 0.042969-0.003907 3.5898 0.11719 2.2188 0.96875-0.32031c0.26172-0.089843 0.54688-0.066406 0.79297 0.054688l0.62891 0.31641 0.26562-0.46484c0.44531-0.78516 1.6094-0.66797 1.8906 0.1875l0.60938 1.8281 2.9883-1.0391 3.1992-5.3359c0.19141-0.31641 0.52734-0.50781 0.89453-0.50781h4.8945l2.6445-1.0547c0.12109-0.050781 0.25391-0.074218 0.38672-0.074218h52.348v-7.4492l0.019531-0.1875 1.082-5.9648-1.2344-3.707c-0.10938-0.32031-0.050781-0.67578 0.14844-0.94922l3.0781-4.1641 0.89453-3.9375c0.078125-0.33203 0.3125-0.60937 0.62891-0.73437l1.5742-0.63281 1.1406-1.7891c0.054688-0.085937 0.12109-0.16016 0.19531-0.22656l1.3125-1.1523 1.7969-4.6641c0.097656-0.25781 0.30078-0.46875 0.55469-0.58203l4.1055-1.7812 0.23828-0.30078-0.57422-1.7266c-0.125-0.375-0.027344-0.78516 0.25-1.0664l2.4141-2.4141 1.0312-5.3242-1.8398-8.4727c-0.058594-0.27344-0.003906-0.5625 0.15234-0.79688l0.32422-0.48828-2.1484-2.6094c-0.15625-0.1875-0.23828-0.42188-0.23828-0.66406v-1.6445l-0.89453-0.89453-1.7383-0.86719c-0.28516-0.14453-0.48828-0.40625-0.55078-0.71875l-0.61328-2.9141-1.2148-0.24219c-0.41406-0.082031-0.73438-0.40234-0.81641-0.81641l-0.94531-4.7148c-0.027343-0.14453-0.027343-0.29297 0.007813-0.4375l0.77344-3.4141-1.1328-0.67969-2.8984-0.90625c-0.61328-0.19141-0.90625-0.88672-0.62109-1.4609h-0.011719c-0.57422 0-1.043-0.46875-1.043-1.043v-1.8164l-1.2891-2.4648z" fill-rule="evenodd"/>
</svg>
