<?xml version="1.0" encoding="UTF-8"?>
<svg width="100pt" height="100pt" version="1.1" viewBox="0 0 100 100" xmlns="http://www.w3.org/2000/svg">
 <path d="m58.34 11.336-0.57422-0.91406c-0.39453-0.63281-0.015625-1.4648 0.71875-1.582l16.012-2.5781c0.40234-0.0625 0.80859 0.11328 1.0352 0.45312l2.2656 3.3984h1.8359c0.13281 0 0.26563 0.027344 0.38672 0.078125l1.8398 0.73438c0.39453 0.16016 0.65625 0.54297 0.65625 0.96875v0.61328h1.3516c0.27344 0 0.53906 0.10938 0.73437 0.30469l1.0625 1.0625 3.5508 0.67578c0.23047 0.042969 0.44141 0.16797 0.59375 0.34375l0.96875 1.1289 2.7578 1.3789c0.10938 0.054687 0.21094 0.12891 0.29297 0.21875l2.7617 2.9453c0.17969 0.19531 0.28125 0.44922 0.28125 0.71484v1.793l1.6914 0.98828c0.23047 0.13281 0.39844 0.34766 0.47656 0.60547l0.91797 3.1289c0.125 0.42578-0.035156 0.88672-0.39844 1.1445l-2.4805 1.75 0.65234 1.832c0.097656 0.27734 0.078125 0.58203-0.0625 0.84375l-1.2812 2.4062 0.45312 1.8203c0.023437 0.09375 0.035156 0.19531 0.03125 0.29688l-0.14844 3.4297 1.6211 0.5c0.76953 0.23438 0.99219 1.2188 0.39844 1.7617l-2.207 2.0234c-0.15234 0.14062-0.34375 0.23047-0.54688 0.26172l-1.6367 0.25391-0.24219 1.5586v3.0469c0 0.19531-0.054687 0.38672-0.15625 0.55469l-0.97266 1.543-0.65234 0.875 1.3594 1.9805 1.4258 0.28516c1.0312 0.20703 1.1406 1.6328 0.15625 2l-13.477 4.9805-10.449 3.3711 1.375 4.7344c0.19531 0.66797-0.30469 1.332-1 1.332h-6.3867l-5.7383 2.7891-0.65234 4.0664c-0.054687 0.33984-0.26953 0.62891-0.58203 0.77734l-7.8242 3.6914-1.4102 3.4883c-0.054688 0.13672-0.13672 0.25781-0.24609 0.35938l-4.4141 4.2344c-0.078125 0.070313-0.16406 0.13281-0.25781 0.17969l-2.9453 1.4727c-0.25 0.125-0.54297 0.14453-0.80469 0.050782l-3.8047-1.3242-2.3594 1.2578c-0.44141 0.23828-0.98828 0.125-1.3047-0.26562l-1.1797-1.4766-3.0312-0.16016c-0.22266-0.011719-0.4375-0.09375-0.60938-0.23828l-3.0586-2.5508-4.1484-0.33203-7.7891 1.2695c-0.30859 0.050781-0.625-0.042969-0.85938-0.25l-3.3281-2.957-7.1758-6.625c-0.1875-0.17578-0.30469-0.41016-0.33203-0.66406l-0.13672-1.3711-0.90234-0.64453c-0.27344-0.19531-0.4375-0.51172-0.4375-0.84766v-27.977c0-0.57422 0.46484-1.043 1.043-1.043h15.16l-0.058594-0.10938c-0.10156-0.17969-0.14844-0.39062-0.12891-0.59766l0.18359-2.0273c0.015625-0.17188 0.078125-0.33594 0.17188-0.48047l0.85938-1.293-0.45703-2.1445-0.023438-0.21875v-3.3125l0.023438-0.21875 0.51172-2.4023-0.52734-4.0547c-0.082031-0.625 0.40234-1.1758 1.0312-1.1758h2.5156c0.50781 0 0.94531 0.36719 1.0273 0.87109l0.097657 0.57812 0.99609 0.5c0.35547 0.17578 0.57812 0.53906 0.57812 0.93359v1.8555l0.17969 0.12891 0.85156-0.74609c0.11328-0.097656 0.24609-0.17188 0.38672-0.21484l4.2969-1.2852c0.69141-0.20703 1.3789 0.33203 1.3398 1.0508l-0.14844 2.8359 2.1094 1.1289 3.1094 1.3789h3.0898l0.16406 0.015624 2.6523 0.41797 0.99219-2.6953c0.15234-0.41016 0.54297-0.67969 0.98047-0.67969h1.6562c0.57422 0 1.0391 0.46484 1.0391 1.0391v0.89062l1.8984 1.168c0.19141 0.11719 0.33594 0.29297 0.42188 0.5l0.83984 2.1055h0.85938c0.13281 0 0.26562 0.027344 0.38672 0.074219l2.3008 0.92188 0.125 0.058594 2.9453 1.6562c0.21484 0.12109 0.37891 0.3125 0.46484 0.54297l0.79297 2.1172 0.97266-0.19531c0.49609-0.10156 0.98828 0.17187 1.1719 0.64062l1.3984 3.5703h1.5273l2.2422-0.6875c0.48438-0.15234 1.0078 0.074219 1.2383 0.52734l0.23438 0.47266v-7.9492l-0.42188 0.14062-0.625 1.2812c-0.21094 0.4375-0.69922 0.66797-1.1719 0.55859l-3.2344-0.75391c-0.23047-0.054688-0.4375-0.18359-0.58594-0.375l-2.4102-3.1016-2.332-0.99609c-0.27734-0.12109-0.49219-0.35547-0.58203-0.64844l-0.92188-2.9453c-0.058593-0.19141-0.0625-0.39844-0.007812-0.59375l1.4727-5.1562c0.039063-0.13281 0.10156-0.25391 0.1875-0.36328l1.2461-1.5547v-6.7422l-2.2773-4.375c-0.21094-0.41406-0.12891-0.91797 0.21094-1.2383l3.4023-3.2227zm15.828-2.9102-13.801 2.2227 0.085937 0.14062c0.21484 0.33984 0.21094 0.77344-0.003906 1.1094l-1.2891 2.0273c-0.042968 0.070313-0.097656 0.13672-0.16016 0.19531l-2.9297 2.7734 2.0312 3.9062c0.078126 0.14844 0.11719 0.3125 0.11719 0.48047v7.3594c0 0.23828-0.078125 0.46875-0.22656 0.65234l-1.3438 1.6758-1.3281 4.6523 0.68359 2.1914 2.1367 0.91406c0.16016 0.070313 0.30469 0.17969 0.41016 0.32031l2.3516 3.0195 2.0664 0.48047 0.44922-0.92578c0.125-0.25 0.34375-0.44141 0.60938-0.53125l2.207-0.73828c0.67578-0.22266 1.3711 0.27734 1.3711 0.98828v10.676c0 0.52734-0.39062 0.96875-0.91016 1.0352l-1.4727 0.18359c-0.4375 0.054687-0.86328-0.17188-1.0625-0.56641l-0.33984-0.68359-1.5508 0.47656c-0.097656 0.03125-0.20312 0.046874-0.30469 0.046874h-2.3945c-0.42969 0-0.8125-0.26562-0.96875-0.66406l-1.3398-3.418-0.98438 0.19531c-0.5 0.10156-1-0.17578-1.1797-0.65625l-0.96875-2.5898-2.5547-1.4336-2.0508-0.82031h-1.3633c-0.42578 0-0.80859-0.26172-0.96875-0.65625l-0.97656-2.4414-2.0977-1.293c-0.30859-0.1875-0.49609-0.52344-0.49609-0.88672v-0.12891l-0.92578 2.5156c-0.17187 0.46484-0.64844 0.74609-1.1406 0.66797l-3.4141-0.53906h-3.2344c-0.14453 0-0.28906-0.03125-0.42188-0.089844l-3.3789-1.5039-2.7617-1.4727c-0.35547-0.19141-0.57031-0.57031-0.55078-0.97656l0.10547-2.0195-2.6602 0.80078-1.3047 1.1367c-0.36328 0.32031-0.89453 0.34766-1.2891 0.066406l-1.2891-0.92188c-0.27344-0.19531-0.4375-0.51172-0.4375-0.84766v-1.75l-0.89453-0.44531c-0.29688-0.15234-0.50781-0.43359-0.5625-0.76172l-0.039063-0.23438h-0.44531l0.39844 3.0586c0.015625 0.11719 0.011719 0.23437-0.015625 0.35156l-0.52734 2.4688v3.0938l0.52734 2.4688c0.0625 0.27344 0.007813 0.5625-0.14844 0.79297l-0.96094 1.4375-0.12891 1.4414 0.76562 1.375c0.38281 0.69531-0.11719 1.5508-0.91016 1.5508h-15.895v26.398l0.85156 0.60547c0.24609 0.17578 0.40234 0.44531 0.43359 0.74609l0.14453 1.4453 6.8711 6.3477 2.9453 2.6133 7.4258-1.207c0.082032-0.015625 0.16406-0.019531 0.25-0.011719l4.6016 0.36719c0.21484 0.019531 0.41797 0.10156 0.58203 0.23828l3.0469 2.5391 3.1523 0.16797c0.29688 0.015625 0.57031 0.15625 0.75781 0.38672l0.93359 1.168 1.9961-1.0664c0.25781-0.13672 0.55859-0.16016 0.83203-0.066407l3.8164 1.3281 2.4141-1.2031 4.1406-3.9688 1.4805-3.6602c0.097657-0.24219 0.28516-0.4375 0.52344-0.55078l7.6914-3.6289 0.64844-4.0586c0.054687-0.33594 0.26953-0.625 0.57422-0.77344l6.4414-3.1289c0.14062-0.070312 0.29688-0.10547 0.45703-0.10547h5.2383l-1.2695-4.375c-0.15625-0.53906 0.14453-1.1094 0.67969-1.2812l11.371-3.6641 10.914-4.0391-1.8398-2.6797c-0.25391-0.36719-0.24609-0.85547 0.023438-1.2148l1.0547-1.3984 0.76172-1.2188v-2.832l0.011718-0.15625 0.36719-2.3945c0.070312-0.44922 0.42188-0.80078 0.87109-0.87109l2.082-0.32031 0.63281-0.58203-0.65234-0.19922c-0.45312-0.14062-0.75391-0.56641-0.73438-1.043l0.17578-4.082-0.51562-2.0625c-0.0625-0.25-0.027344-0.51172 0.09375-0.74219l1.2539-2.3516-0.76562-2.1445c-0.15625-0.44141 0-0.92969 0.38281-1.1992l2.5195-1.7812-0.59375-2.0156-1.8516-1.082c-0.32031-0.18359-0.51563-0.52734-0.51563-0.89844v-1.9805l-2.3516-2.5078-2.7812-1.3906c-0.12109-0.0625-0.23438-0.14844-0.32422-0.25391l-0.86719-1.0117-3.5039-0.66797c-0.20703-0.039063-0.39453-0.13672-0.54297-0.28516l-0.98438-0.98438h-1.9609c-0.57422 0-1.043-0.46484-1.043-1.0391v-0.95312l-0.99609-0.39844h-2.1953c-0.34766 0-0.67188-0.17578-0.86328-0.46484z" fill-rule="evenodd"/>
</svg>
