<svg width="68" height="120" viewBox="0 0 68 120" fill="none" xmlns="http://www.w3.org/2000/svg">
<path d="M33.9427 0C15.1933 0 0 15.2027 0 33.948C0 34.9167 0.052083 35.8647 0.130208 36.8125C0.161458 37.1511 0.203125 37.5 0.244792 37.8282C0.307293 38.4011 0.380206 38.9636 0.473966 39.5208C0.482404 39.5727 0.490772 39.6244 0.499118 39.6759C0.562901 40.0699 0.62544 40.4563 0.708338 40.8385C0.739583 40.9895 0.774733 41.1393 0.809883 41.289C0.845045 41.4387 0.880206 41.5885 0.911458 41.7396C2.64306 49.2703 6.68952 55.9662 11.3308 63.6463C14.9679 69.6647 18.9702 76.2876 22.5101 84.3902C24.9164 89.911 27.0205 95.8225 28.7445 101.229L33.9424 120L39.1403 101.224C40.8643 95.8225 42.9632 89.9058 45.3747 84.3849C48.911 76.2906 52.9088 69.673 56.5417 63.6596C61.1862 55.9716 65.2342 49.271 66.9587 41.7342C67.0368 41.4322 67.0993 41.1353 67.1618 40.8332C67.2503 40.4009 67.3284 39.9634 67.4014 39.5155C67.4899 38.9582 67.5784 38.3957 67.641 37.8228C67.6826 37.4947 67.7243 37.1457 67.7503 36.8072C67.8337 35.8541 67.8857 34.9113 67.8857 33.9427C67.8857 15.2027 52.692 0 33.9427 0ZM33.9375 49.2867C25.4687 49.2867 18.5988 42.4117 18.5988 33.9373C18.5988 25.4629 25.4685 18.5987 33.9375 18.5987C42.4115 18.5987 49.2868 25.4632 49.2868 33.9373C49.2868 42.4115 42.4171 49.2867 33.9375 49.2867Z" fill="#3E8E4F"/>
<path d="M33.9427 0C15.1933 0 0 15.2027 0 33.948C0 34.9167 0.052083 35.8647 0.130208 36.8125C0.161458 37.1511 0.203125 37.5 0.244792 37.8282C0.307293 38.4011 0.380206 38.9636 0.473966 39.5208C0.482404 39.5727 0.490772 39.6244 0.499118 39.6759C0.562901 40.0699 0.62544 40.4563 0.708338 40.8385C0.739583 40.9895 0.774733 41.1393 0.809883 41.289C0.845045 41.4387 0.880206 41.5885 0.911458 41.7396C2.64306 49.2703 6.68952 55.9662 11.3308 63.6463C14.9679 69.6647 18.9702 76.2876 22.5101 84.3902C24.9164 89.911 27.0205 95.8225 28.7445 101.229L33.9424 120L39.1403 101.224C40.8643 95.8225 42.9632 89.9058 45.3747 84.3849C48.911 76.2906 52.9088 69.673 56.5417 63.6596C61.1862 55.9716 65.2342 49.271 66.9587 41.7342C67.0368 41.4322 67.0993 41.1353 67.1618 40.8332C67.2503 40.4009 67.3284 39.9634 67.4014 39.5155C67.4899 38.9582 67.5784 38.3957 67.641 37.8228C67.6826 37.4947 67.7243 37.1457 67.7503 36.8072C67.8337 35.8541 67.8857 34.9113 67.8857 33.9427C67.8857 15.2027 52.692 0 33.9427 0ZM33.9375 49.2867C25.4687 49.2867 18.5988 42.4117 18.5988 33.9373C18.5988 25.4629 25.4685 18.5987 33.9375 18.5987C42.4115 18.5987 49.2868 25.4632 49.2868 33.9373C49.2868 42.4115 42.4171 49.2867 33.9375 49.2867Z" stroke="#347242"/>
</svg>
