<svg width="68" height="120" viewBox="0 0 68 120" fill="none" xmlns="http://www.w3.org/2000/svg">
<path d="M33.9427 0C15.1933 0 0 15.2027 0 33.948C0 34.9167 0.052083 35.8647 0.130208 36.8125C0.161458 37.1511 0.203125 37.5 0.244792 37.8282C0.307293 38.4011 0.380206 38.9636 0.473966 39.5208C0.546882 39.9687 0.614592 40.4062 0.708338 40.8385C0.770838 41.1406 0.848965 41.4375 0.911458 41.7396C3.99999 55.1716 14.4528 65.9476 22.5101 84.3902C24.9164 89.911 27.0205 95.8225 28.7445 101.229L33.9424 120L39.1403 101.224C40.8643 95.8225 42.9632 89.9058 45.3747 84.3849C53.432 65.9422 63.8853 55.1662 66.9587 41.7342C67.0368 41.4322 67.0993 41.1353 67.1618 40.8332C67.2503 40.4009 67.3284 39.9634 67.4014 39.5155C67.4899 38.9582 67.5784 38.3957 67.641 37.8228C67.6826 37.4947 67.7243 37.1457 67.7503 36.8072C67.8337 35.8541 67.8857 34.9113 67.8857 33.9427C67.8857 15.2027 52.692 0 33.9427 0ZM33.9375 49.2867C25.4687 49.2867 18.5988 42.4117 18.5988 33.9373C18.5988 25.4629 25.4685 18.5987 33.9375 18.5987C42.4115 18.5987 49.2868 25.4632 49.2868 33.9373C49.2868 42.4115 42.4171 49.2867 33.9375 49.2867Z" fill="#E59C36"/>
<path d="M53 35C53 44.3888 44.2696 52 33.5 52C22.7304 52 14 44.3888 14 35C14 25.6112 22.7304 18 33.5 18C44.2696 18 53 25.6112 53 35Z" fill="#E59C36"/>
<path fill-rule="evenodd" clip-rule="evenodd" d="M27.9037 44.0178L52.0903 19.8248C53.1897 18.7251 54.9611 18.7251 56.0604 19.8248L59.1755 22.9406C60.2748 24.0403 60.2748 25.8121 59.1755 26.8507L29.919 56.1752C28.8196 57.2749 27.0482 57.2749 25.9489 56.1752L11.7787 42.0014C10.7404 40.9628 10.7404 39.1911 11.7787 38.0913L14.9549 34.9755C15.9932 33.8758 17.7644 33.8758 18.8639 34.9755L27.9034 44.0174L27.9037 44.0178Z" fill="white"/>
</svg>
