<?xml version="1.0" encoding="UTF-8"?>
<svg width="100pt" height="100pt" version="1.1" viewBox="0 0 100 100" xmlns="http://www.w3.org/2000/svg">
 <defs>
  <clipPath id="a">
   <path d="m18.512 23h62.977v54h-62.977z"/>
  </clipPath>
 </defs>
 <g clip-path="url(#a)">
  <path d="m49.863 74.641 2.9297 0.92969 3.6445-0.625c0.35938-0.0625 0.69922 0.17578 0.75781 0.53125 0.0625 0.35547-0.17578 0.69531-0.53516 0.75781l-3.8047 0.65234c-0.10156 0.015625-0.20703 0.011719-0.30859-0.023438l-3.5195-1.1133c-0.023438-0.007812-0.050782-0.015625-0.074219-0.027344-0.015625-0.003906-0.027344-0.011718-0.039063-0.015625l-3.0312-1.4492c-0.12891-0.058593-0.23437-0.16406-0.30078-0.28906l-1.7188-3.3594c-0.26172-0.51562 0.22266-1.0938 0.77734-0.92188l0.53125 0.16406-0.55469-1.7773c-0.019532-0.066407-0.03125-0.12891-0.03125-0.19531v-1.7148l-0.25 0.089844c-0.42578 0.14844-0.875-0.16797-0.875-0.61719v-1.2383l-0.49609-0.67188-0.73047 0.28906-2.2969 2.3477v1.25c0 0.14062-0.046875 0.27734-0.12891 0.39062l-1.125 1.5156c-0.3125 0.42188-0.97266 0.32031-1.1484-0.17578l-1.7969-5.1836-1.8242-1.6484-1.8359-0.14062 0.13281 0.18359c0.15625 0.22656 0.15625 0.53125-0.003907 0.75391l-1.4531 2.0469c-0.066406 0.089843-0.15234 0.16016-0.25 0.20703l-2.3164 1.1211-0.10547 0.042968-2.3164 0.66016c-0.33203 0.09375-0.68359-0.085938-0.79688-0.41016l-0.70703-1.9805-2.543-4.0938c-0.082031-0.13281-0.11328-0.28906-0.089844-0.44141l0.42969-2.8281-2.6367-0.31641c-0.29688-0.035156-0.53125-0.26562-0.57422-0.55859l-0.32812-2.375c-0.0625-0.4375 0.32031-0.80859 0.75781-0.73437l1.8359 0.30469 0.98047-0.28906c0.09375-0.027343 0.19531-0.035156 0.29688-0.015624l1.5625 0.26953 0.027344-0.03125-1.0039-1.1406c-0.15625-0.17578-0.20312-0.41797-0.12891-0.64062l0.72656-2.1758 0.019531-0.050782 1.0039-2.3164v-2.3711c0-0.18359 0.078125-0.35547 0.21094-0.48047l1.7227-1.582c0.0625-0.058594 0.13281-0.10156 0.21484-0.13281l4.0781-1.5195 0.73047-4.2422c0.035156-0.19531 0.15234-0.36328 0.32812-0.46094l2.2461-1.2578-0.56641-1.8008c-0.042969-0.13672-0.042969-0.28516 0.007812-0.42188l0.72656-1.9766c0.042969-0.11328 0.11328-0.21094 0.20703-0.28906l0.99219-0.78906c0.19922-0.15625 0.46875-0.1875 0.69531-0.078125l1.3008 0.62109 1.4023-1.0234c0.058594-0.042968 0.125-0.074218 0.19531-0.097656l1.9648-0.60156-0.089844-0.30859c-0.070313-0.24609 0.011718-0.51562 0.21484-0.67969l2.7109-2.2422c0.089844-0.078125 0.19922-0.125 0.31641-0.14453l2.2539-0.35547 1.4961-1.9648c0.19922-0.26172 0.5625-0.33594 0.84766-0.17188l2.9805 1.7148c0.12891 0.074219 0.22656 0.19141 0.28125 0.32812l0.79297 2.0469c0.089844 0.22656 0.042969 0.48438-0.11719 0.66797l-1.0234 1.1562h1.7891c0.10547 0 0.21484 0.027343 0.30859 0.078125l1.207 0.64453 0.125-0.3125c0.13281-0.33203 0.50781-0.49609 0.83984-0.36719l1.3906 0.52734c0.15625 0.058594 0.28516 0.17578 0.35938 0.32812l0.96094 2.0117 0.33594-0.38281c0.16016-0.17969 0.40625-0.25781 0.64062-0.20312l1.5078 0.35156 0.61719-1.0898c0.14062-0.24609 0.42188-0.375 0.69531-0.32031l2.7148 0.52734c0.125 0.023437 0.23828 0.082031 0.32812 0.16797l1.5312 1.4688h1.8516c0.23438 0 0.44922 0.125 0.57031 0.32422l0.56641 0.97656 1.8672 0.26172 1.2148-0.57812c0.11719-0.054687 0.25-0.074219 0.38281-0.054687l2.1172 0.33203c0.09375 0.011719 0.18359 0.046875 0.26172 0.10156l4.168 2.7695 0.085938 0.066406 1.125 1.0547c0.24219 0.22656 0.27734 0.60156 0.078125 0.86719l-1.125 1.5156c-0.1875 0.25391-0.53125 0.33594-0.8125 0.19922l-1.8516-0.89453-0.35547 0.42578 0.45703 1.1602c0.14062 0.36328-0.066406 0.76953-0.44531 0.87109l-2.3047 0.60547-0.99219 1.2188c-0.12109 0.15234-0.30859 0.24219-0.50781 0.24219h-2.0039l-0.31641 0.78906v1.457c0 0.14844-0.050781 0.29297-0.14453 0.41016l-2.1836 2.7031c-0.31641 0.39062-0.93359 0.30078-1.1211-0.16406l-1.3984-3.4297c-0.082031-0.20703-0.054687-0.44531 0.078125-0.62891l1.6289-2.2383-0.046876-0.054688-1.9297 1.3047c-0.085937 0.058593-0.18359 0.09375-0.28516 0.10937l-2.3555 0.30078-2.1172 2.1602 0.25391 0.26953 1.4336-0.26562c0.48438-0.085937 0.89063 0.36328 0.75 0.83203l-1.125 3.7266c-0.027343 0.085938-0.070312 0.16797-0.12891 0.23438l-2.3828 2.8047c-0.125 0.14453-0.30859 0.23047-0.5 0.23047h-0.64844l-0.61328 0.87891 0.62891 0.97656h1.3516l2.9922-4.2539c0.23828-0.33594 0.72656-0.375 1.0117-0.074219l1.3086 1.3672c0.19922 0.20703 0.23828 0.51563 0.10156 0.76172l-2.0508 3.7617c-0.0625 0.11328-0.15625 0.20703-0.27344 0.26562l-2.6875 1.3984-1.7852 1.0234c-0.32422 0.18359-0.73438 0.066406-0.90625-0.26172l-0.47656-0.89062-1.668-0.57812c-0.21484-0.070312-0.375-0.25-0.42578-0.46484l-0.42188-1.8008-1.25-0.14844-0.27734 0.59375 0.80078 0.24219c0.49219 0.14844 0.62891 0.77734 0.24219 1.1172l-0.53125 0.46875 1.1562 0.89844c0.24219 0.1875 0.32031 0.51172 0.19531 0.78906l-0.73047 1.5859c-0.058593 0.13281-0.16016 0.23828-0.28516 0.30469l-2.8516 1.5234c-0.09375 0.050782-0.19922 0.078125-0.30859 0.078125h-1.0977l-0.027344 0.046875 1.125 1.5547c0.14844 0.19922 0.16797 0.46484 0.050781 0.68359l-0.92578 1.7812c-0.17578 0.33984-0.60547 0.45703-0.92969 0.25l-1.1992-0.75 0.39062 1 0.59375 1.9727c0.035156 0.11328 0.039062 0.23438 0.007812 0.35156l-0.29297 1.1133 0.80078 0.65625c0.15234 0.125 0.24219 0.3125 0.24219 0.50781zm-21.512-16.227-0.65625 1.5703 0.65625 1.6992 1.9688-0.65625zm27.129 13.082c0.32812 0.3125 0.24609 0.85156-0.16016 1.0547l-2.1172 1.0547c-0.12109 0.0625-0.26172 0.082031-0.39844 0.0625l-1.9883-0.33203c-0.25391-0.042969-0.46094-0.23047-0.52344-0.48047l-0.46484-1.7812c-0.085937-0.32812 0.097656-0.66797 0.41797-0.78125l1.2031-0.41797 1.5586-1.3672c0.26953-0.23828 0.67969-0.21094 0.92188 0.054688l0.59375 0.66016c0.21094 0.23047 0.22656 0.57812 0.039062 0.82812l-0.25 0.32812zm4.3594 2.9727c-0.21094 0-0.40625-0.10156-0.53125-0.26953l-1.3047-1.7812c-0.21875-0.30078-0.14453-0.72656 0.16797-0.92969l0.99219-0.65625c0.21094-0.13672 0.47656-0.14453 0.69531-0.019531l0.64062 0.375h1.5742c0.070312 0 0.13672 0.011719 0.20312 0.03125l3.5391 1.1523c0.27344 0.089844 0.45312 0.33984 0.45312 0.625v2.2695c0 0.41797-0.38672 0.72656-0.79688 0.63672l-1.625-0.35938-1.2305 0.35156c-0.25781 0.070313-0.53516-0.019531-0.69922-0.23047l-0.92578-1.1953zm-5.6328-7.7383c-0.10547-0.12109-0.16406-0.27734-0.16406-0.4375v-1.6484c0-0.35938 0.29297-0.65234 0.65625-0.65234 0.35938 0 0.65234 0.29297 0.65234 0.65234v1.4023l1.4258 1.5938c0.10547 0.12109 0.16406 0.27344 0.16406 0.43359v0.92578c0 0.35938-0.29297 0.65234-0.65625 0.65234-0.36328 0-0.65625-0.29297-0.65625-0.65234v-0.67578z"/>
 </g>
</svg>
