<?xml version="1.0" encoding="UTF-8"?>
<svg width="100pt" height="100pt" version="1.1" viewBox="0 0 100 100" xmlns="http://www.w3.org/2000/svg">
 <path d="m25.602 24.422 1.6445-1.1406c0.17188-0.12109 0.37891-0.18359 0.59375-0.18359h4.5078c0.12109 0 0.24219 0.019532 0.35938 0.0625l7.6172 2.7969 2.0469-1.8398c0.48828-0.44141 1.2617-0.32031 1.5938 0.25l3.8516 6.6133 6.1016 4.8828h3.6133c0.57422 0 1.0391 0.46484 1.0391 1.0391v2.2344l8.4102 2.4688c0.39062 0.11328 0.67969 0.44531 0.73828 0.85156l0.53906 3.8125 8.3711-2.4844v-1.7852c0-0.57422 0.46484-1.043 1.0391-1.043h6.8242c0.41016 0 0.78125 0.24219 0.94922 0.61328l1.8164 4.0156 7.5898-2.0312c0.41797-0.10938 0.85938 0.046874 1.1133 0.39453l3.707 5.1133c0.17969 0.25 0.24219 0.56641 0.16406 0.86719l-2.6992 10.539 2.0703 0.80469c0.39844 0.15625 0.66406 0.54297 0.66406 0.97266v2.2031c0 0.4375-0.27344 0.82812-0.68359 0.98047l-4.0898 1.4961 1.75 3.8711c0.20703 0.45703 0.058594 1-0.35547 1.2852l-6.8672 4.7578c-0.17188 0.12109-0.37891 0.1875-0.59375 0.1875h-21.633c-0.058593 0-5.0586-1.3008-14.996-3.8945-0.050782-0.015624-5.8516-3.0469-17.402-9.0938h-11.867c-0.14453 0-0.28906-0.03125-0.42188-0.089843l-4.0742-1.8047h-5.1523c-0.34766 0-0.67188-0.17578-0.86328-0.46484l-1.7148-2.5625-10.301-5.8906c-0.38281-0.21875-0.58594-0.65625-0.50391-1.0938l0.86328-4.707c0.050781-0.28125 0.21484-0.52734 0.44922-0.68359l2.5664-1.6992 2.6602-2.582 4.2773-4.0977c0.23828-0.22656 0.57031-0.32812 0.89453-0.27344l3.8711 0.66016 1.4141-3.6523c0.089844-0.23047 0.25781-0.42188 0.47266-0.53906l4.2227-2.2969c0.082032-0.046875 0.16797-0.078125 0.25781-0.10156l1.9648-0.46094-1.7109-2.25c-0.13672-0.17969-0.21094-0.40234-0.21094-0.62891v-3.9297c0-0.67578 0.63281-1.1719 1.2891-1.0117zm6.5625 0.75781h-4l-1.7617 1.2227c-0.24219 0.17188-0.55078 0.22656-0.83984 0.15625l-1.3906-0.33984v2.25l2.4688 3.25c0.45312 0.60156 0.14062 1.4727-0.59375 1.6445l-3.3867 0.79297-3.7617 2.0508-1.582 4.0859c-0.17969 0.46484-0.65625 0.73438-1.1445 0.65234l-4.1953-0.71484-3.8945 3.7305-2.7227 2.6445-2.4297 1.6289-0.65234 3.5508 9.875 5.6445c0.14062 0.078124 0.25781 0.19141 0.34766 0.32422l1.5391 2.3047h4.8125c0.14453 0 0.28906 0.03125 0.42188 0.089844l4.0781 1.8047h11.902c0.16797 0 0.33594 0.042969 0.48438 0.12109l17.305 9.0703 14.484 3.8008h21.176l5.8867-4.082-1.8555-4.1016c-0.25-0.55469 0.023437-1.1992 0.59375-1.4102l4.4531-1.6289v-0.76562l-2.2656-0.88672c-0.48828-0.19141-0.75781-0.71875-0.62891-1.2266l2.8047-10.957-2.9961-4.1328-7.75 2.0742c-0.49219 0.13281-1.0078-0.11328-1.2188-0.57812l-1.9062-4.207h-5.1094v1.5195c0 0.46094-0.30078 0.86719-0.74609 0.99609l-10.273 3.0508c-0.60938 0.18359-1.2383-0.22266-1.3281-0.85156l-0.61328-4.3438-8.5117-2.4961c-0.44531-0.12891-0.75-0.53906-0.75-1v-1.9727h-2.9336c-0.23828 0-0.46875-0.082031-0.65234-0.23047l-6.5391-5.2266c-0.10156-0.082031-0.18359-0.17969-0.25-0.29297l-3.3047-5.6719-1.5586 1.4023c-0.28906 0.25781-0.69531 0.33594-1.0547 0.20312z" fill-rule="evenodd"/>
</svg>
