<?xml version="1.0" encoding="UTF-8"?>
<svg width="100pt" height="100pt" version="1.1" viewBox="0 0 100 100" xmlns="http://www.w3.org/2000/svg">
 <path d="m29.949 13.828v-12.66c0-0.57812 0.46875-1.043 1.043-1.043h42.5c0.58594 0 1.0586 0.48438 1.043 1.0703l-1.3047 44.703 23.422 2.7031c0.92969 0.10938 1.2578 1.2891 0.51953 1.8594l-22.781 17.621-1.1484 3.7812 1.2617 4.9648c0.078125 0.32422 0.003906 0.66406-0.20703 0.92188l-1.332 1.6133-3.2305 2.75c-0.11328 0.097657-0.24609 0.16797-0.38672 0.20703l-4.2031 1.1953 1.207 2.9062c0.16797 0.40625 0.0625 0.87109-0.25781 1.168l-4.9492 4.5352c-0.19141 0.17578-0.44531 0.27344-0.70312 0.27344h-2.5234l-6.1875 6.9492c-0.32422 0.36328-0.85938 0.45312-1.2852 0.21484l-7.5664-4.2305h-16.242c-0.125 0-0.25-0.023437-0.36719-0.066406l-11.336-4.3203c-0.054688-0.023437-4.1133-2.9492-12.176-8.7812-0.28516-0.20703-0.44531-0.54687-0.42969-0.89844l0.50391-9.4844c0.011719-0.17578 0.066407-0.35156 0.16016-0.5l2.4141-3.8008-2.8984-4.2969c-0.22656-0.33203-0.23828-0.76953-0.035156-1.1133l11.434-19.242c0.1875-0.31641 0.52734-0.51172 0.89453-0.51172h27.309v-3.4883c0-0.29688 0.125-0.57812 0.34375-0.77734l1.6719-1.5-4.3047-1.8945c-0.26562-0.11719-0.47266-0.34375-0.56641-0.62109l-1.7617-5.2461-6.9688-3.4961c-0.089844-0.046875-0.17578-0.10547-0.25-0.17578l-6.5586-6.2656-3.2188-2.2148c-0.79688-0.55078-0.48047-1.7969 0.48438-1.8945zm42.473-11.621h-40.387v12.562c0 0.53125-0.40625 0.98047-0.9375 1.0352l-7.082 0.72266 0.94922 0.65234 6.6328 6.3203 7.2109 3.6211c0.24609 0.12109 0.43359 0.33984 0.51953 0.59766l1.7539 5.2188 5.3594 2.3555c0.69141 0.30469 0.83984 1.2227 0.27734 1.7266l-2.5273 2.2734v4.0664c0 0.57422-0.46484 1.0391-1.0391 1.0391h-27.758l-10.793 18.168 2.9102 4.3125c0.23438 0.34375 0.23828 0.79297 0.015625 1.1406l-2.6289 4.1445-0.45703 8.6445 11.363 8.2383 11.027 4.2031h16.32c0.17578 0 0.35156 0.042969 0.50781 0.13281l7.0703 3.9531 5.9414-6.6719c0.19531-0.22266 0.48047-0.34766 0.77734-0.34766h2.5859l4.1133-3.7695-1.3789-3.3125c-0.23828-0.57812 0.078125-1.2305 0.67969-1.4023l5.1133-1.4531 2.8555-2.4141 0.93359-1.1367-1.1992-4.7344c-0.046875-0.18359-0.042969-0.37891 0.011718-0.55859l1.332-4.375c0.0625-0.20703 0.1875-0.39062 0.35938-0.51953l21.02-16.262-21.832-2.5195c-0.53906-0.0625-0.9375-0.52734-0.92188-1.0664z" fill-rule="evenodd"/>
</svg>
