<?xml version="1.0" encoding="UTF-8"?>
<svg width="100pt" height="100pt" version="1.1" viewBox="0 0 100 100" xmlns="http://www.w3.org/2000/svg">
 <path d="m94.285 54.84c0.21484-0.070313 0.44531-0.070313 0.66016 0l4.3438 1.4492c0.52344 0.17578 0.82031 0.72656 0.67578 1.2617l-2.3984 8.8359 2.3281 4.7812c0.082031 0.17188 0.11719 0.36328 0.10156 0.55078-0.46094 4.9375-0.82812 6.6055-2.2891 6.6055-0.51172 0-3.8359-0.17578-10.125-0.52734-0.24609-0.015625-0.47656-0.11328-0.65625-0.28125-0.72656-0.6875-1.3008-1.1953-1.7148-1.5273-0.13672-0.10938-0.25391-0.19922-0.34766-0.26172-0.4375 0.125-1.8164 0.56641-3.7266 1.2227-0.23047 0.082031-0.48047 0.078125-0.70703-0.007813l-13.199-4.9727-10.66-2.8945c-0.16797-0.046875-0.32031-0.13281-0.44922-0.25391l-6.0664-5.8203c-5.8477 1.0156-9.0195 1.5039-9.793 1.5039-0.70312 0-2.6445-0.87109-8.3242-3.5742-0.085938-0.039063-0.085938-0.039063-0.16797-0.078126-0.39844-0.19141-2.2539-1.0742-2.7422-1.3047-1.0078-0.48047-1.7578-0.83594-2.4023-1.1367-0.75391-0.35156-1.3281-0.61328-1.7461-0.79297-0.21484-0.09375-0.38281-0.16016-0.5-0.20313-0.011718-0.003906-0.042968-0.015624 0.074219-0.015624-0.77344-0.015626-5.5195-2.7539-17.59-9.9961l-6.3164-3.4219c-0.52344-0.28125-0.70312-0.94141-0.39844-1.4492l3.1953-5.3711 1.2812-6.6641c0.039062-0.19922 0.13672-0.38672 0.27734-0.53125l6.4492-6.582c0.40625-0.41406 1.0703-0.41797 1.4805-0.007812l2.4492 2.4492 3.4883-4.582c0.23828-0.3125 0.63281-0.46094 1.0156-0.39063l6.4492 1.1836c0.33594 0.0625 0.62109 0.28125 0.76172 0.59375l1.8242 4.0195 11.926 6.2812c0.16406 0.085937 0.30078 0.21484 0.39844 0.37109l2.6133 4.2031 5.3008-1.4961c0.44922-0.12891 0.92969 0.0625 1.1719 0.46094l3.8711 6.3672 8.9609 2.6523c0.44141 0.12891 0.74609 0.53516 0.74609 0.99609v3.2891l14.609 4.0156c1.0117-0.55859 1.7695-0.84375 2.3789-0.84375 0.63281 0 3.4492 0.97656 9.4961 3.2266zm0.33203 2.0898-4.0156 1.3359c-0.22656 0.074219-0.46875 0.070313-0.69531-0.011719-5.4727-2.043-8.875-3.2266-9.1094-3.2266-0.19531 0-0.81641 0.25781-1.7148 0.78125-0.23828 0.14062-0.52734 0.17969-0.80078 0.10547l-15.793-4.3438c-0.44922-0.125-0.76562-0.53516-0.76562-1.0039v-3.3008l-8.5977-2.543c-0.24609-0.074218-0.45703-0.23828-0.59375-0.46094l-3.668-6.0352-5.293 1.4961c-0.44531 0.125-0.92187-0.058594-1.168-0.45312l-2.875-4.6289-11.992-6.3164c-0.20312-0.10938-0.36719-0.28125-0.46094-0.49219l-1.75-3.8477-5.2852-0.96875-3.8242 5.0195c-0.38281 0.5-1.1172 0.55078-1.5625 0.10547l-2.5469-2.5469-5.4922 5.6055-1.2578 6.5352c-0.023438 0.11719-0.066407 0.23047-0.12891 0.33594l-2.7344 4.5938 5.4023 2.9297c5.4805 3.2852 9.6406 5.75 12.488 7.3945 1.418 0.81641 2.5039 1.4297 3.2617 1.832 0.36719 0.19922 0.65625 0.34375 0.85547 0.4375 0.085938 0.042969 0.15234 0.070313 0.19141 0.085938-0.027344-0.011719-0.050781-0.019531-0.09375-0.023438 0.37109 0.035157 1.0117 0.31641 2.9062 1.2031 0.65234 0.30078 1.4062 0.66016 2.4219 1.1406 0.48828 0.23438 2.3398 1.1172 2.7383 1.3047 0.082032 0.039062 0.082032 0.039062 0.16797 0.078125 4.3594 2.0742 7.25 3.375 7.4297 3.375 0.60547 0 4.0273-0.53516 9.9531-1.5625 0.32812-0.058594 0.66016 0.042969 0.90234 0.27344l6.2578 6 10.496 2.8555 12.941 4.8711c2.5703-0.88281 3.7656-1.25 4.1953-1.25 0.65625 0 1.3945 0.5625 3.0703 2.1289 4.8828 0.27344 7.957 0.4375 9.1367 0.48828 0.046875-0.15234 0.097656-0.34766 0.15234-0.58203 0.18359-0.84766 0.36328-2.125 0.52734-3.8281l-2.375-4.8711c-0.10938-0.22656-0.13281-0.48437-0.066406-0.72656l2.2422-8.2656z" fill-rule="evenodd"/>
</svg>
