<?xml version="1.0" encoding="UTF-8"?>
<svg width="100pt" height="100pt" version="1.1" viewBox="0 0 100 100" xmlns="http://www.w3.org/2000/svg">
 <path d="m7.3359 47.52 0.60937-0.60547c0.17969-0.17578 0.41016-0.28125 0.66016-0.29687l6.3438-0.44531 4.2227-6.2227c0.19531-0.28516 0.51953-0.45703 0.86328-0.45703h1.6016v-9.5977c0-0.57422 0.46875-1.043 1.043-1.043h7.6016l4.1094-6.1406c0.19531-0.28906 0.51953-0.46094 0.86719-0.46094h2.4805c0.26172 0 0.51172 0.097656 0.70312 0.27344l3.8828 3.5742c0-0.44922 0.14844-0.75391 0.40234-0.95312l9.1719-7.0859c0.18359-0.14062 0.40625-0.21875 0.63672-0.21875h2.75l-0.8125-1.8867c-0.10156-0.24219-0.10938-0.51172-0.023437-0.75781l1.9102-5.3945c0.082031-0.23047 0.24219-0.42188 0.44922-0.54688l6.7539-4.0078c0.44531-0.26562 1.0195-0.16016 1.3438 0.24219l2.2148 2.7617 3.8242 0.82031 7.6797-2.4844c0.050781-0.015626 1.8633-0.18359 5.4375-0.50391l8.3906-4.8438c0.15625-0.09375 0.33594-0.14062 0.51953-0.14062h5.9141c0.68359 0 1.1836 0.64453 1.0078 1.3047l-2.0195 7.7227 2.0078 6.457c0.074219 0.24609 0.058594 0.50781-0.046874 0.74219l-5.8477 12.855-1.582 13.336 1.5938 9.4219 0.015625 6.7383c0 0.17578-0.046875 0.34766-0.12891 0.5l-5.1797 9.4609 1.6562 8.1914c0.066407 0.32812-0.03125 0.67188-0.25781 0.91797l-4.168 4.4609 0.41797 5.3711 3.8398 5.4453c0.33203 0.46875 0.21875 1.1211-0.25781 1.4531l-4.4766 3.1328c-0.26172 0.17969-0.58984 0.23438-0.89453 0.14453l-2.6836-0.79297h-4.4727c-0.35938 0-0.69531-0.1875-0.88672-0.49219l-2.7773-4.5039-7.043-2.832-4.4453 3.3984c-0.30078 0.23047-0.70703 0.28125-1.0547 0.12891l-13.332-5.8711-3.2148 4.0273c-0.41016 0.51953-1.1953 0.52344-1.6172 0.015625l-8.5039-10.301-12.477-9.2695c-0.16406-0.12109-0.28906-0.28516-0.35938-0.47656l-2.5234-6.9414-10.477-6.7422c-0.14062-0.089843-0.25391-0.20703-0.33594-0.35156l-2.7305-4.6641-4.6211-2.1992c-0.51953-0.24609-0.74219-0.86719-0.49609-1.3867l2.207-4.6484c0.30859-0.65234 1.1719-0.80078 1.6797-0.28906zm1.7969 1.1484-1.0742 1.0625c-0.41016 0.40234-1.0664 0.39844-1.4727-0.007813l-2.6172-2.6367-1.125 2.3672 3.9766 1.8906c0.1875 0.089844 0.34375 0.23438 0.44922 0.41406l2.7656 4.7266 10.562 6.8008c0.19141 0.12109 0.33984 0.30469 0.41797 0.51953l2.5352 6.9727 12.328 9.1562c0.042969 0.035156 2.6953 3.2266 7.9492 9.582l2.9141-3.6523c0.29297-0.37109 0.80078-0.49609 1.2344-0.30469l13.504 5.9453 4.4258-3.3867c0.29297-0.22266 0.67969-0.27734 1.0234-0.14063l7.9102 3.1836c0.20703 0.082032 0.38281 0.23047 0.49609 0.41797l2.6562 4.3008h4.0391c0.10156 0 0.19922 0.015625 0.29688 0.042969l2.3477 0.69141 3.2109-2.2461-3.3984-4.8242c-0.10938-0.15234-0.17188-0.33203-0.1875-0.51953l-0.47656-6.1094c-0.023438-0.29297 0.078125-0.57812 0.27734-0.79297l4.1133-4.4062-1.625-8.0391c-0.050782-0.23828-0.011719-0.48828 0.10547-0.70703l5.2344-9.5586v-6.2109l-1.6016-9.4844c-0.015625-0.097656-0.019531-0.19531-0.007813-0.29688l1.6172-13.645c0.011719-0.10938 0.042969-0.21094 0.085938-0.30859l5.75-12.641-1.9766-6.3672c-0.058594-0.18359-0.0625-0.38281-0.015625-0.57031l1.7578-6.707h-4.2891l-8.3438 4.8203c-0.13281 0.078125-0.27734 0.125-0.42969 0.13672l-5.3203 0.46875-7.8359 2.5352c-0.17578 0.054687-0.36328 0.066406-0.54297 0.027344l-4.457-0.95703c-0.23437-0.050782-0.44141-0.18359-0.59375-0.36719l-1.8789-2.3438-5.6484 3.3516-1.6484 4.6562 1.2695 2.9648c0.29688 0.6875-0.20703 1.4531-0.95703 1.4531h-3.9727l-8.4844 6.5547v1.9922c0 0.90625-1.0781 1.3789-1.7461 0.76562l-5.3281-4.9062h-1.5195l-4.1094 6.1406c-0.19531 0.28906-0.51953 0.46484-0.86719 0.46484h-7.1172v9.5977c0 0.57422-0.46484 1.0391-1.0391 1.0391h-2.0938l-4.1992 6.1875c-0.17969 0.26562-0.46875 0.43359-0.78906 0.45312z" fill-rule="evenodd"/>
</svg>
