<?xml version="1.0" encoding="UTF-8"?>
<svg width="100pt" height="100pt" version="1.1" viewBox="0 0 100 100" xmlns="http://www.w3.org/2000/svg">
 <defs>
  <clipPath id="a">
   <path d="m18.512 20h62.977v60h-62.977z"/>
  </clipPath>
 </defs>
 <g clip-path="url(#a)">
  <path d="m65.578 21.988c0.050781 0 0.10156 0.003907 0.14844 0.015625l1.9648 0.46094c0.17188 0.039062 0.32031 0.14844 0.41016 0.29688l1.832 3.0352 3.1016 2.2812c0.14453 0.10547 0.23828 0.26562 0.26172 0.44141l0.35156 2.6445 2.7539 1.082c0.26953 0.16797 0.37891 0.51172 0.25391 0.80469l-1.1133 2.6875c-0.13281 0.32812-0.50391 0.48828-0.83203 0.36328l-0.35547-0.12891 0.53516 0.78125c0.10547 0.15234 0.14062 0.34375 0.097656 0.52344l-0.52344 2.2266c-0.089844 0.38281-0.49219 0.60156-0.86328 0.46875l-2.1602-0.78906c-0.085937-0.03125-0.16797-0.082032-0.23438-0.14453l-2.0312-1.9766h-1.3047c-0.42188 0-0.73438-0.39062-0.64062-0.80469l0.32812-1.4414c0.046875-0.21484 0.19922-0.39062 0.40625-0.46875l0.82031-0.55859v-2.1758l-1.8594-1.3672h-0.625l-0.73828 1.3828 0.38281 1.3164c0.0625 0.20703 0.015626 0.43359-0.12109 0.60156l-1.3984 1.707 1.625 1.6797c0.21094 0.21875 0.24219 0.55469 0.078125 0.8125l-1.1758 1.832c-0.18359 0.28516-0.54688 0.38281-0.84766 0.23438l-1.1758-0.58984c-0.078126-0.039062-0.14453-0.089844-0.20313-0.15625l-1.0977-1.2578-0.40234 0.12109-0.27734 0.6875c-0.023438 0.058593-0.054688 0.11719-0.097657 0.16797l-2.0156 2.5039v1.4766l0.62109 0.23438c0.20703 0.078125 0.36328 0.25391 0.41016 0.46875l0.21094 0.92969h0.65625c0.10938 0 0.21875 0.027343 0.31641 0.082031l3.4648 1.9023c0.21094 0.11328 0.34375 0.33594 0.34375 0.57422v1.4648l0.96484 0.81641 0.046875-0.054687-0.28906-2.1367c-0.042969-0.32031 0.15234-0.625 0.46094-0.71875l0.91016-0.27344 0.14453-0.96484-0.92578-0.68359c-0.22266-0.16406-0.32031-0.45312-0.23828-0.71875l0.625-2.0703v-1.7383c0-0.40234 0.36328-0.71094 0.76562-0.64453l1.3867 0.23047 0.48437-0.19531c0.26563-0.10547 0.5625-0.027343 0.74609 0.1875l0.96094 1.1406 1.0586 0.53125c0.21875 0.10938 0.35937 0.33984 0.35937 0.58594v1.3008l0.47656 0.47656 0.26562-0.11328 0.68359-1.5938c0.21094-0.48828 0.88281-0.53906 1.1602-0.085937l1.375 2.2266c0.027344 0.042969 0.050781 0.089844 0.066406 0.13672l0.60156 1.8164 2.8984 2.8359c0.18359 0.17969 0.24609 0.44922 0.16016 0.6875l-0.40234 1.1445 0.60547 0.69922c0.039062 0.042968 0.074218 0.09375 0.097656 0.14844l1.1133 2.3594c0.25 0.53125-0.26172 1.0977-0.8125 0.89844l-3.2812-1.1797c-0.17188-0.0625-0.30859-0.19141-0.38281-0.35938l-0.60937-1.4375h-1.6602l-0.37891 0.51172 0.12891 0.39844 0.30469 0.53125h0.99219c0.25781 0 0.48828 0.14844 0.59766 0.37891l0.39063 0.85547c0.125 0.26953 0.050781 0.58594-0.17578 0.77734l-1.1172 0.93359-0.54297 0.72656c-0.125 0.16406-0.32031 0.26172-0.52734 0.26172h-0.78516c-0.21875 0-0.42188-0.10938-0.54297-0.29297l-0.23438-0.35156-1.1836 0.44141v0.79297c0 0.17188-0.066406 0.33594-0.1875 0.45703l-2.4961 2.5625v1.1719c0 0.17969-0.074219 0.35156-0.20312 0.47656l-1.6133 1.5547-0.48437 1.0156 0.75391 2.0352c0.078125 0.21484 0.042968 0.45313-0.097656 0.63281l-1.1797 1.5078c-0.29297 0.375-0.87109 0.32422-1.0938-0.09375l-1.375-2.5742-1.8828-0.54688-0.58594 0.49219c-0.11719 0.10156-0.26562 0.15625-0.42188 0.15625h-1.8047l-1.4297 0.74219-0.21484 2.8438 1.2031 1.457h0.71094l0.54688-1.1914c0.09375-0.20312 0.28516-0.34766 0.50781-0.375l2.4883-0.32812c0.51172-0.066407 0.89453 0.45312 0.68359 0.92188l-0.82812 1.8359 0.078125 0.375 0.72266-0.17188c0.15625-0.039062 0.32422-0.015625 0.46875 0.066406l1.1797 0.65234c0.26953 0.15234 0.39844 0.46875 0.30859 0.76562l-0.30469 1.0156 0.35938 0.54688h1.1484c0.10938 0 0.21484 0.027344 0.3125 0.078125l1.2422 0.67188c0.3125 0.16406 0.43359 0.54688 0.28125 0.86328l-0.91797 1.8906c-0.16797 0.34766-0.59766 0.47656-0.92578 0.27734l-0.40234-0.23828c-0.1875 0.33203-0.625 0.43359-0.94141 0.21875l-2.75-1.8945c-0.097656-0.066407-0.17578-0.15625-0.22266-0.26562l-0.57422-1.2461-1.9336-0.27734c-0.15625-0.023437-0.29687-0.097656-0.39844-0.21484l-0.78125-0.87891-0.85156 0.22656c-0.15234 0.039062-0.30859 0.023437-0.44922-0.042969l-4.9766-2.3594c-0.22656-0.10938-0.375-0.33984-0.375-0.59375v-1.9609l-1.1484-2.1562-1.8398-2.7344-0.058594-0.023437-0.45312 1.5625 0.16016 0.52734 2.1953 2.4453-0.97656 0.87891-2.293-2.5547c-0.0625-0.070312-0.10938-0.15625-0.13672-0.24609l-0.21484-0.69531-0.60547-0.60547c-0.054688-0.054687-0.097657-0.11719-0.12891-0.18359l-1.0156-2.1562-1.3672-0.68359c-0.14453-0.074219-0.25781-0.19531-0.31641-0.34375l-1.832-4.5859c-0.027343-0.0625-0.042969-0.12891-0.046875-0.19531l-0.375-4.9922-3.4805-3.2969c-0.097657-0.09375-0.16797-0.21875-0.19141-0.35547l-0.42969-2.2656-1.5781-2.0117-1.7891-2.0352-3.2617-1.1719-0.53125-0.14844-0.097657 0.39453c-0.039062 0.14844-0.125 0.27734-0.24219 0.36719l-2.3086 1.7305-2.3789 2.6406-0.070313 0.070313-1.832 1.4961c-0.17578 0.14453-0.41406 0.1875-0.62891 0.11328l-2.0938-0.71094c-0.48828-0.16797-0.60156-0.80859-0.19922-1.1328l2.2734-1.8438 0.61719-1.0156-0.76562 0.25781c-0.41016 0.13672-0.83594-0.15234-0.86328-0.58203l-0.054688-0.8125-0.39062 0.046875c-0.25 0.03125-0.5-0.085937-0.63281-0.30078l-1.1133-1.7695c-0.125-0.19922-0.13281-0.45312-0.023438-0.66016l1.1133-2.0977c0.078125-0.14844 0.21094-0.26172 0.37109-0.3125l1.3164-0.44141v-0.17969h-0.33594l-1.793 0.25391c-0.27344 0.039063-0.53906-0.09375-0.66797-0.33594l-0.78516-1.4414c-0.16797-0.30469-0.066406-0.6875 0.22656-0.87109l1.5703-0.98047c0.10547-0.066406 0.22656-0.10156 0.34766-0.10156h0.28516l-0.38281-0.41016-1.043-0.67578c-0.1875-0.12109-0.30078-0.32812-0.30078-0.55078v-1.1133c0-0.29297 0.19141-0.55078 0.47266-0.63281l0.92578-0.26953 2.2305-2.6055c0.125-0.14453 0.30469-0.23047 0.49609-0.23047h0.55859l0.73828-0.58203c0.17969-0.13672 0.41797-0.17578 0.62891-0.097656l3.0273 1.0938 4.1992 0.77734c0.066406 0.011719 0.12891 0.035156 0.1875 0.0625l3.2734 1.7305 4.2031-2.5c0.24609-0.14844 0.5625-0.11328 0.77734 0.082031l1.3164 1.2031h1.7109c0.082031 0 0.16797 0.015625 0.24609 0.046875l1.2812 0.52344-0.066406-0.33203-0.46875-1.7422-1.7578 0.61719c-0.24609 0.085937-0.52344 0.019531-0.69922-0.17578l-1.4414-1.5742c-0.15625-0.17188-0.21094-0.41406-0.14453-0.63672l0.79687-2.5703-0.34375-1.2578c-0.097656-0.35156 0.11328-0.71484 0.46875-0.80859l2.0312-0.52344c0.11328-0.027344 0.23438-0.027344 0.34766 0.007812l1.7695 0.52344c0.11719 0.035156 0.22266 0.10156 0.30469 0.19531l1.3906 1.5742 2.1562 0.75391 2.2852-1.4648c0.082031-0.050782 0.17578-0.085938 0.27734-0.097656l6.6758-0.78516c0.066406-0.011719 0.13672-0.007812 0.20312 0.007813l3.9297 0.77344z"/>
 </g>
</svg>
