<?xml version="1.0" encoding="UTF-8"?>
<svg width="100pt" height="100pt" version="1.1" viewBox="0 0 100 100" xmlns="http://www.w3.org/2000/svg">
 <path d="m71.273 10.234 0.33203-2.6641c0.0625-0.49219 0.46094-0.875 0.95703-0.91016l5.7305-0.40625c0.75781-0.054687 1.3164 0.69141 1.0469 1.4023l-0.69531 1.8633 0.54688 1.9219 1.4258 0.28516c0.33984 0.066407 0.625 0.30078 0.75781 0.625l2.1836 5.3164c0.050781 0.12891 0.078125 0.26172 0.078125 0.39844v1.8984l1.9531 0.82422c0.26172 0.10938 0.46484 0.32031 0.56641 0.58594l0.42578 1.1055h2.0117c0.28516 0 0.55859 0.11328 0.75391 0.32031l2.7266 2.8633c0.17578 0.18359 0.27734 0.42188 0.28906 0.67578l0.12109 2.8242 4.3203 6.0234c0.21484 0.29688 0.25391 0.6875 0.10937 1.0234l-0.84766 1.9336 0.51953 5.4609c0.007812 0.089843 0.003906 0.17969-0.007813 0.26953l-0.89062 5.3281 4.1445 6.3398c0.19141 0.29297 0.22266 0.66406 0.082031 0.98438l-2.4883 5.7656 0.39062 5.1992c0.023438 0.31641-0.097656 0.625-0.33203 0.83984l-3.8164 3.5469c-0.33594 0.3125-0.83594 0.36719-1.2305 0.13672l-2.2539-1.3008-0.55469 0.10938-1.3945 2.0977c-0.24609 0.36719-0.70312 0.53906-1.1328 0.42578l-2.3008-0.60547-1.8984 0.59375c-0.19922 0.0625-0.41797 0.0625-0.62109 0l-2.1797-0.67969c-0.15234-0.050781-0.29297-0.13281-0.41016-0.24219l-2.8633-2.7266c-0.070313-0.070312-0.13672-0.14844-0.18359-0.23828l-0.30859-0.53516-0.99609-0.1875-0.85547 1.4258c-0.16406 0.27344-0.44531 0.45703-0.76562 0.49609l-5.5898 0.68359c-0.19141 0.023438-0.38281-0.007812-0.55859-0.085937l-0.60156-0.27344-1.3164 2.5312c-0.16406 0.31641-0.48047 0.52734-0.83594 0.55859l-3.2734 0.27344c-0.32031 0.027343-0.63281-0.09375-0.84766-0.32813l-3.625-3.8828-2.4883-0.73828-0.22656 0.58594 1.1641 5.4258c0.10156 0.48047-0.14453 0.96875-0.59766 1.168l-0.8125 0.36328-0.87109 2.5039 0.39062 5.1016c0.015625 0.21484-0.03125 0.42578-0.14062 0.61328l-2.1836 3.6797c-0.10938 0.18359-0.26953 0.32812-0.46484 0.41797l-3 1.3633c-0.37109 0.16797-0.80859 0.10547-1.1172-0.16406l-0.67188-0.58594-0.39453 0.10547-0.38281 1.3477c-0.10156 0.36328-0.39453 0.64062-0.76172 0.72656l-2.3203 0.54688c-0.23438 0.054687-0.48438 0.027343-0.70312-0.082032l-2.3984-1.1992-0.97656 0.80078c-0.12891 0.10547-0.28516 0.17969-0.44922 0.21484l-4.6367 0.95313c-0.30859 0.0625-0.62891-0.015626-0.87109-0.21484l-1.2617-1.0352-1.707-0.19922-2.9961 1.4961c-0.53516 0.26953-1.1836 0.03125-1.4219-0.51562l-1.7734-4.0938c-0.13281-0.30859-0.10938-0.66016 0.0625-0.94922l0.55859-0.92969-1-2.5977-6.9531-2.1602-0.81641 0.54297c-0.29297 0.19531-0.66406 0.23047-0.98828 0.09375l-1.4453-0.62109-0.51172 0.28125v4.0195c0 0.17188-0.042969 0.34375-0.12891 0.49609l-0.81641 1.5c-0.30469 0.55859-1.0312 0.71484-1.5391 0.33594l-2.5938-1.9453-3.5195-1.1719c-0.39063-0.13281-0.66797-0.47656-0.70703-0.88281l-0.50391-4.9102-1.7344-1.5c-0.46875-0.40625-0.48047-1.1289-0.027344-1.5508l1.4062-1.3125-1.0273-1.5859c-0.19922-0.30859-0.21875-0.70312-0.054688-1.0312l1.0898-2.1836c0.089844-0.17578 0.22656-0.32422 0.39453-0.42578l1.3672-0.82031c0.16016-0.097656 0.34375-0.14844 0.53516-0.14844h1.5273l1.625-3.3633c0.15234-0.3125 0.44531-0.53125 0.78906-0.58203l4.207-0.59766 3.1641-7.0586-2.5039-10.016c-0.070312-0.27344-0.023437-0.5625 0.125-0.80078l5.707-9.1562v-1.3398c0-0.21094 0.0625-0.41797 0.18359-0.59375l1.2305-1.7734c0.074219-0.10547 0.16797-0.19922 0.27734-0.27344l1.832-1.2227 2.1953-4.0039c0.17578-0.32031 0.51172-0.52734 0.87891-0.53906l3.5547-0.11719 1.6133-2.418c0.058593-0.089844 0.13281-0.16797 0.21484-0.23438l3.543-2.8633c0.1875-0.14844 0.41797-0.23047 0.65625-0.23047h4.9062l1.8828-1.7656c0.19141-0.17969 0.44531-0.28125 0.71094-0.28125h1.9102c0.25781 0 0.51172 0.097656 0.70312 0.27344l0.29297 0.26953 0.03125-0.12891c0.039063-0.19531 0.13672-0.375 0.28125-0.51953l1.0898-1.0898c0.38281-0.38281 1-0.40625 1.4102-0.054687l2.7305 2.3164c0.21094 0.17969 0.33984 0.43359 0.36328 0.71094l0.25 3.1406 0.97656 1.4648 2.4766-1.2383 0.9375-1.4062c0.30469-0.46094 0.91406-0.60156 1.3906-0.32422l0.070313 0.042969c0.015625-0.39844 0.25781-0.75391 0.625-0.91406l2.1641-0.94922 2.6914-1.2344 0.11328-2.6328c0.023437-0.55859 0.48047-1 1.0391-1h1.7188l3.1836-3.5391 0.35156-1.6367c0.074219-0.33984 0.30859-0.62109 0.63281-0.75zm2.293-1.5547-0.30469 2.4219c-0.046875 0.37891-0.29297 0.69922-0.64453 0.83984l-1.5312 0.61328-0.29297 1.3633c-0.039063 0.17969-0.12109 0.34375-0.24609 0.48047l-3.6797 4.0898c-0.19922 0.21875-0.48047 0.34766-0.77344 0.34766h-1.1836l-0.09375 2.2734c-0.019531 0.39062-0.25391 0.73828-0.60938 0.90234l-3.2891 1.5078-1.5586 0.68359v1.0898c0 0.80469-0.87109 1.3047-1.5664 0.89844l-0.78906-0.45703-0.54688 0.82031c-0.097656 0.14844-0.23828 0.26953-0.39844 0.35156l-3.5469 1.7734c-0.46875 0.23437-1.043 0.082031-1.332-0.35547l-1.6367-2.4531c-0.097657-0.14844-0.15625-0.31641-0.17188-0.49609l-0.23828-2.9766-1.668-1.418-0.19141 0.19531-0.34766 1.6094c-0.16797 0.78516-1.1289 1.0938-1.7227 0.54688l-1.3359-1.2266h-1.0938l-1.8789 1.7656c-0.19531 0.17969-0.44922 0.28125-0.71484 0.28125h-4.9492l-3.1367 2.5312-1.8203 2.7344c-0.1875 0.27734-0.49609 0.44922-0.83203 0.46094l-3.4961 0.11719-2.0352 3.707c-0.078125 0.14844-0.19531 0.27344-0.33594 0.36719l-1.8789 1.2539-0.92969 1.3398v1.3125c0 0.19531-0.054687 0.38672-0.15625 0.55078l-5.6289 9.0352 2.4805 9.9336c0.058593 0.22656 0.035156 0.46875-0.058594 0.67969l-3.5469 7.9102c-0.14453 0.32422-0.44922 0.55469-0.80078 0.60547l-4.2266 0.60156-1.668 3.457c-0.17188 0.35938-0.53516 0.58984-0.9375 0.58984h-1.8906l-0.85938 0.51172-0.6875 1.3789 1.1758 1.8203c0.27344 0.42188 0.20703 0.98047-0.16406 1.3242l-1.1992 1.1211 1.1719 1.0156c0.19922 0.17188 0.32812 0.41406 0.35547 0.67969l0.47656 4.6484 3.043 1.0156c0.10547 0.035156 0.20703 0.085937 0.29688 0.15625l1.7617 1.3203 0.11719-0.20703v-4.3711c0-0.38281 0.20703-0.73438 0.54297-0.91797l1.5-0.81641c0.27734-0.15234 0.61328-0.16797 0.90625-0.042969l1.3906 0.59375 0.75781-0.50391c0.26172-0.17188 0.58984-0.21875 0.88672-0.12891l7.9102 2.457c0.30469 0.09375 0.55078 0.32422 0.66406 0.62109l1.3633 3.543c0.11719 0.30078 0.085937 0.63672-0.078126 0.91016l-0.54297 0.90625 1.1211 2.5898 2.2891-1.1445c0.18359-0.089843 0.38672-0.125 0.58984-0.10156l2.3164 0.27344c0.19922 0.023437 0.38672 0.10156 0.53906 0.22656l1.1172 0.91406 3.8984-0.80469 1.3008-1.0625c0.32031-0.26172 0.75781-0.30859 1.125-0.125l2.6641 1.3281 1.3555-0.31641 0.37891-1.3242c0.10156-0.34766 0.375-0.62109 0.72656-0.71875l1.5-0.40625c0.33594-0.09375 0.69922-0.011719 0.96094 0.21875l0.58594 0.51172 2.0898-0.94922 1.8477-3.1172-0.38281-4.9883c-0.011719-0.14453 0.007813-0.28906 0.054688-0.42578l1.0898-3.1328c0.09375-0.27344 0.29688-0.49609 0.5625-0.61328l0.45313-0.19922-1.0508-4.9023c-0.042968-0.19922-0.027344-0.40234 0.046875-0.59375l0.68359-1.7695c0.19141-0.50781 0.74609-0.78125 1.2656-0.625l3.6836 1.0898c0.17578 0.050781 0.33984 0.15234 0.46484 0.28906l3.4727 3.7188 2.1992-0.17969 1.5078-2.9023c0.25391-0.48828 0.85156-0.69531 1.3555-0.46484l1.2305 0.55859 4.7969-0.58594 0.96484-1.6094c0.22656-0.37109 0.65625-0.56641 1.0859-0.48438l2.1836 0.40625c0.30078 0.058594 0.55859 0.24219 0.71094 0.50781l0.46875 0.82422 2.5781 2.4531 1.6406 0.51172 1.8711-0.58203c0.1875-0.058594 0.38672-0.066407 0.57422-0.015625l1.875 0.49219 1.2227-1.8359c0.15234-0.23047 0.39062-0.38672 0.66016-0.44141l1.3672-0.27344c0.24609-0.050781 0.50391-0.007812 0.72656 0.12109l1.9219 1.1133 2.8867-2.6797-0.37109-4.957c-0.011719-0.16797 0.015625-0.33594 0.082031-0.49219l2.3711-5.4844-4.0586-6.2148c-0.14453-0.21875-0.19922-0.48047-0.15625-0.73828l0.93359-5.5938-0.53516-5.5938c-0.015625-0.17578 0.011718-0.35547 0.085937-0.51562l0.71484-1.6406-4.1523-5.7891c-0.12109-0.16406-0.1875-0.35938-0.19531-0.5625l-0.12109-2.7461-2.1484-2.2578h-2.2812c-0.43359 0-0.81641-0.26562-0.97266-0.66797l-0.52344-1.3594-2.1836-0.91797c-0.38281-0.16406-0.63672-0.54297-0.63672-0.96094v-2.3867l-1.8906-4.6094-1.5-0.30078c-0.38281-0.078125-0.6875-0.35938-0.79688-0.73438l-0.81641-2.8633c-0.0625-0.21484-0.054687-0.44531 0.023437-0.65234l0.25-0.66406z" fill-rule="evenodd"/>
</svg>
