<?xml version="1.0" encoding="UTF-8"?>
<svg width="100pt" height="100pt" version="1.1" viewBox="0 0 100 100" xmlns="http://www.w3.org/2000/svg">
 <path d="m48.695 74.133c0.46094 0.72266-0.10547 1.668-0.96484 1.5977l-3.6523-0.29688c-0.40625-0.035156-0.75391-0.29688-0.89453-0.67969l-1.0742-2.9141-2.0938-3.3711h-0.94922l-1.0352 1.3164c-0.33594 0.42578-0.94141 0.52344-1.3945 0.22266l-2.5859-1.7109c-0.23828-0.16016-0.39844-0.40625-0.44922-0.6875l-0.23047-1.3086-1.9844-1.6367h-1.3516c0 0.57422-0.46484 1.043-1.0391 1.043h-5.1367c-0.13281 0-0.26172-0.027343-0.38281-0.074219l-5.7188-2.2617c-0.32031-0.12891-0.55078-0.40234-0.62891-0.72656h-3.2461c-0.37891 0-0.73047-0.20703-0.91016-0.53906l-1.0352-1.875-2.2109-0.48438-2.332-0.89453c-0.39844-0.15625-0.66016-0.54297-0.66016-0.97266v-1.25l-1.5234-1.3047c-0.23047-0.19922-0.36328-0.48828-0.36328-0.78906v-1.668l-0.53906-1.2539-1.0938-0.40625c-0.25-0.09375-0.45312-0.28125-0.57031-0.51953l-2.3711-4.8516c-0.17969-0.36719-0.12891-0.80078 0.12891-1.1172l0.75781-0.92578v-1.4844l-0.82812-1.2773c-0.14844-0.23047-0.19922-0.51562-0.14062-0.78516l0.96875-4.5156v-3.4375l-0.96094-3.8594c-0.023438-0.082032-0.03125-0.16406-0.03125-0.25v-1.7852c0-0.66016 0.60938-1.1562 1.2578-1.0156l1.1133 0.23438v-0.6875c0-0.57813 0.46484-1.043 1.0391-1.043h46.355l0.21094-0.55078c0.25-0.65234 1.0625-0.87891 1.6172-0.44922l0.67578 0.53125c0.17188 0.13672 0.30078 0.32422 0.35938 0.53906l0.23438 0.82422h1.7539c0.36719 0 0.70703 0.19141 0.89453 0.50781l0.34375 0.57422h0.34375c0.16406 0 0.32812 0.039063 0.47266 0.11328l0.41797 0.21094 0.55859-0.23828c0.19922-0.085938 0.41797-0.10547 0.62891-0.0625l1.9297 0.41016h3.0547c0.19141 0 0.38281 0.054687 0.54687 0.15625l4.8438 3.0156c0.097657 0.058594 0.17969 0.13281 0.25 0.21875l0.92969 1.1133 1.6602 1.5195 1.2891 1c0.19141 0.15234 0.32812 0.36328 0.37891 0.60156l0.82031 3.793c0.042968 0.20312 0.027343 0.41016-0.046876 0.60156l-0.82422 2.0898-0.3125 0.55469 4.2617-1.2695v-1.1602c0-0.51562 0.375-0.95312 0.88281-1.0312l3.4531-0.53906 2.2773-2.3906c0.18359-0.19141 0.4375-0.30859 0.70312-0.32031l5.4102-0.25c0.058594-0.41797 0.36328-0.76562 0.78516-0.86719l1.1719-0.28516 2.0078-4.2852c0.25781-0.55469 0.9375-0.76562 1.4648-0.45703l0.53125 0.30859h1.0156c0.49609 0 0.92578 0.35156 1.0234 0.84375l0.69922 3.582 1.082 2.5977c0.20703 0.5 0 1.0703-0.47656 1.3242l-5.6523 2.9844-0.4375 3.3086c-0.050781 0.41016-0.33984 0.74609-0.73438 0.86328l-2.4141 0.71094-2.1445 0.78516v1.2734c0 0.14453-0.03125 0.28906-0.089844 0.42188l-0.86719 1.9453c-0.042969 0.09375-0.097657 0.17969-0.16406 0.25781l-1.3711 1.5977c-0.13281 0.15234-0.30859 0.26562-0.50391 0.32031l-0.91016 0.25781 0.76172 2.082c0.039062 0.11719 0.0625 0.23828 0.0625 0.35938v2.2188c0 0.36328-0.19141 0.69922-0.5 0.89062l-2.0273 1.2383-1.2266 1.1992-2.5586 1.8789-2.1719 1.6523-0.67578 2.7617 0.75 4.0625 1.1875 2.375c0.074219 0.14453 0.10938 0.30469 0.10938 0.46484v3.0742c0 0.43359-0.26563 0.82031-0.66797 0.97266l-1.5547 0.59375c-0.42578 0.16406-0.91406 0.027344-1.1953-0.33594l-3.0742-3.9648c-0.14062-0.17969-0.21875-0.40625-0.21875-0.63672v-2.9141l-1.0195-1.5156-1.3359 0.46484c-0.27734 0.097656-0.58594 0.070313-0.84375-0.070312l-2.75-1.5039-3.7109 0.72266v0.26562c0 0.35547-0.17969 0.68359-0.47656 0.875l-2.0391 1.3164c-0.39844 0.25781-0.92188 0.21484-1.2734-0.10938l-1.4922-1.3789-4.0742 0.58203-3.2344 2.8633-0.47656 1.4453zm25.758-3.5c-0.042969-0.089843-0.074219-0.18359-0.09375-0.28125l-0.8125-4.4219c-0.027344-0.14453-0.023437-0.29297 0.011719-0.4375l0.8125-3.3359c0.058594-0.23438 0.19141-0.4375 0.38281-0.58203l2.4844-1.8906 2.3984-1.75 1.2578-1.2266c0.054688-0.054687 0.11719-0.10547 0.18359-0.14453l1.6289-0.99609v-1.4531l-1.0781-2.9609c-0.20703-0.57031 0.10938-1.1953 0.69141-1.3594l1.6875-0.48047 1.0664-1.2422 0.71484-1.6055v-1.7773c0-0.4375 0.27344-0.82812 0.68359-0.97656l2.8945-1.0586 1.8242-0.53906 0.41797-3.1719c0.042969-0.33594 0.24609-0.62891 0.54688-0.78516l5.2891-2.793-0.75781-1.8203-0.0625-0.19922-0.55469-2.8477h-0.4375c-0.10156 0-0.20312-0.015625-0.30078-0.042969l-1.7461 3.7305c-0.13281 0.28516-0.39063 0.49609-0.69922 0.57031l-0.86328 0.21094c0 0.58594-0.4375 1.043-0.99219 1.0703l-5.9727 0.27734-2.2305 2.3438c-0.16016 0.16406-0.36719 0.27344-0.59375 0.30859l-2.9258 0.45703v1.043c0 0.46094-0.30078 0.86719-0.74219 1l-5.2383 1.5586-1.5234 0.29687c-0.64453 0.125-1.2422-0.36719-1.2422-1.0234v-1.0742c0-0.18359 0.050781-0.36719 0.14453-0.52734l0.66406-1.1289 0.67578-1.7188-0.67578-3.1133-1.0508-0.82031-1.7773-1.6211-0.96484-1.1445-4.4492-2.7695h-2.8633l-1.9297-0.38672-0.70313 0.30469c-0.28516 0.12109-0.60547 0.10938-0.88281-0.03125l-0.62891-0.31641h-0.6875c-0.36719 0-0.70703-0.19531-0.89453-0.50781l-0.34766-0.57812h-1.9492c-0.46875 0-0.87891-0.3125-1.0039-0.75781l-0.074219-0.26953c-0.15234 0.085937-0.32812 0.13281-0.51172 0.13281h-46.031v0.9375c0 0.66406-0.60938 1.1562-1.2578 1.0195l-1.1133-0.23828v0.36719l0.96094 3.8594c0.019531 0.082032 0.03125 0.16406 0.03125 0.25v3.6758l-0.023438 0.21875-0.90234 4.2031 0.75781 1.1719c0.10938 0.16797 0.16797 0.36719 0.16797 0.56641v2.1641c0 0.23828-0.082032 0.47266-0.23438 0.65625l-0.57031 0.69922 1.8945 3.8789 1.1211 0.42187c0.26562 0.097657 0.48047 0.30078 0.59375 0.5625l0.79688 1.8594c0.058594 0.12891 0.085938 0.26953 0.085938 0.41016v1.4023l1.5234 1.3047c0.23047 0.19531 0.36328 0.48438 0.36328 0.78906v1.0195l1.4336 0.5625 2.5938 0.56641c0.29297 0.0625 0.54297 0.25 0.6875 0.51562l0.96875 1.75h3.6445c0.57422 0 1.0391 0.46484 1.0391 1.043l4.875 2.0156h3.8945c0-0.57422 0.46875-1.043 1.043-1.043h2.7656c0.24219 0 0.47656 0.085937 0.66406 0.23828l2.5664 2.1211c0.19141 0.15625 0.32031 0.37891 0.36328 0.62109l0.21875 1.2461 1.4141 0.9375 0.75391-0.95703c0.19531-0.25391 0.49609-0.39844 0.81641-0.39844h2.0352c0.35938 0 0.69531 0.18359 0.88281 0.49219l2.4609 3.9492 0.089844 0.19141 0.88281 2.3906 1.1445 0.09375c0.007812-0.089844 0.023437-0.17969 0.050781-0.26953l0.72266-2.1797c0.058594-0.17578 0.16016-0.33203 0.29688-0.45313l3.6797-3.2578c0.15625-0.13672 0.34375-0.22266 0.54687-0.25391l4.8711-0.69531c0.30859-0.042969 0.62109 0.054688 0.85156 0.26562l1.2656 1.168 0.88672-0.57031v-0.55859c0-0.49609 0.35156-0.92578 0.83984-1.0234l4.9219-0.95703c0.23828-0.046875 0.48438-0.007812 0.69922 0.10938l2.6797 1.4648 1.6602-0.57812c0.44531-0.15234 0.94141 0.011718 1.2031 0.40234l1.6445 2.4414c0.11719 0.17188 0.17969 0.375 0.17969 0.58203v2.8789l2.8555 3.6797-1.1953-0.33203 1.5547-0.59375-0.67188 0.97266v-2.8281z" fill-rule="evenodd"/>
</svg>
