<?xml version="1.0" encoding="UTF-8"?>
<svg width="100pt" height="100pt" version="1.1" viewBox="0 0 100 100" xmlns="http://www.w3.org/2000/svg">
 <defs>
  <clipPath id="a">
   <path d="m22 18.512h56v62.977h-56z"/>
  </clipPath>
 </defs>
 <g clip-path="url(#a)">
  <path d="m75.582 60.836c0.21875-0.42578 0.80078-0.47656 1.0938-0.10547l1.0508 1.3398c0.125 0.16016 0.16797 0.37109 0.11719 0.57031l-2.1914 8.5078c-0.039063 0.14844-0.12891 0.28125-0.25391 0.37109l-2.0039 1.4336c-0.22266 0.16016-0.52344 0.16406-0.75 0.003906l-1.2422-0.85938c-0.13672-0.09375-0.23047-0.23828-0.26562-0.40234l-0.57422-2.6758c-0.039062-0.19531 0.007812-0.39844 0.13281-0.55078l1.0078-1.2461-0.54297-1.5664c-0.066406-0.17969-0.046875-0.38281 0.050782-0.54688l0.66797-1.1484c0.074219-0.12891 0.19531-0.23047 0.33594-0.28516l2.3398-0.86719zm-45.125-39.047 0.59375-1.2734c0.074219-0.16406 0.21484-0.28906 0.38672-0.34375l0.57031-0.19141c0.11719-0.039063 0.24609-0.046875 0.36719-0.015625l2.3828 0.59766 2.1445-1.4609c0.10547-0.074218 0.23438-0.11328 0.36719-0.11328h3.1992c2.4727-0.32422 3.7148-0.47656 3.9531-0.47656 0.72266 0 0.95312 0.64844 1.8555 4.3281l1.3242 0.070312c0.10156 0.003906 0.20313 0.035156 0.28906 0.085938l3.1875 1.8242h0.41406v-0.67969c0-0.29297 0.19141-0.55078 0.46875-0.63281l2.2891-0.66797c0.24609-0.070313 0.51172 0.007812 0.67969 0.20312l0.44531 0.51953 4.043 1.1836 0.58984-0.52344c0.11719-0.10547 0.27344-0.16406 0.43359-0.16406h1.4297c0.28906 0 0.54297 0.1875 0.625 0.46484l1.3203 4.3398 2.6562 5.1367 1.0469 2.293 0.039063 0.11719 0.42188 1.6875 3.1602 2.4453c0.066406 0.050781 0.12109 0.11328 0.16406 0.18359l0.73437 1.2578 5.1055-0.61719c0.5-0.0625 0.87891 0.44141 0.68359 0.90625l-2.4805 5.832c-0.042968 0.097656-0.10547 0.18359-0.1875 0.25l-5.2344 4.3125-1.8086 3.543 1.2344 3.3633c0.027344 0.070312 0.039063 0.14844 0.039063 0.22656v4.1094c0 0.19922-0.085937 0.38281-0.24219 0.50781l-4.3008 3.5078 0.34375 3.4727c0.03125 0.29297-0.14062 0.57031-0.41797 0.67578l-1.5781 0.60547v1.9375c0 0.16406-0.0625 0.32031-0.17187 0.44141l-4.8633 5.3555c-0.125 0.13672-0.30078 0.21484-0.48438 0.21484h-2.9414l-2.375 0.82422c-0.26562 0.089844-0.5625 0-0.73438-0.22266l-1.2383-1.625c-0.089844-0.11328-0.13672-0.25391-0.13672-0.39844v-0.98047l-2.4961-4.6367c-0.039062-0.074219-0.0625-0.15625-0.074218-0.23828l-0.36719-3.3164-2.1328-4c-0.066407-0.125-0.09375-0.26562-0.070313-0.40625l0.57031-3.8242c0.019531-0.12891 0.078124-0.24609 0.16406-0.34375l0.73438-0.80859-0.85938-4.5703-2.7422-3.1133c-0.14844-0.16797-0.19922-0.39844-0.14062-0.60938l0.86719-3.1289-0.55859-0.72656h-1.7734c-0.18359 0-0.35547-0.074218-0.47656-0.20703l-1.332-1.418h-1.625l-3.3398 1.0234-0.09375 0.023437-3.9102 0.57031c-0.15234 0.023437-0.30469-0.007813-0.43359-0.085938l-4.1016-2.4844c-0.058594-0.039062-0.11328-0.085937-0.16016-0.14062l-3.1484-3.7266c-0.066406-0.078125-0.11328-0.17188-0.13672-0.27344l-0.47656-2.0078c-0.023438-0.10547-0.023438-0.21875 0.007812-0.32812l0.80469-2.8711-0.80078-2.5898c-0.054688-0.17188-0.03125-0.36328 0.058593-0.51953l3.2422-5.6406c0.046875-0.085937 0.11328-0.15625 0.19531-0.21484l2.2617-1.5664 0.51953-2.6094c0.035157-0.16797 0.12891-0.3125 0.26562-0.41016z"/>
 </g>
</svg>
