<?xml version="1.0" encoding="UTF-8"?>
<svg width="100pt" height="100pt" version="1.1" viewBox="0 0 100 100" xmlns="http://www.w3.org/2000/svg">
 <path d="m87.195 48.098c0.69531 0 1.1914 0.66406 1.0039 1.3281l-1.1602 4.0625 0.98047 2.9492 2.3164 0.77344c0.25781 0.085937 0.47266 0.26953 0.59766 0.51172l2.8125 5.4648c0.12109 0.23828 0.14844 0.51172 0.074218 0.76562l-1.4062 4.8438-0.042968 0.12109-2.7148 6.2852 1.1523 1.3828c0.39062 0.46484 0.29688 1.168-0.20312 1.5195l-1.5625 1.0938c-0.5625 0.39453-1.3516 0.14062-1.5781-0.50781l-0.82422-2.3398-5.0781-3.5234h-6.2812l-11.793 2.5039-0.75391 2.3906c-0.03125 0.10156-0.082031 0.19922-0.14453 0.28516l-2.4609 3.4805v3.8828c0 0.10156-0.015625 0.19922-0.042968 0.29297l-2.6562 9.0586c-0.19141 0.66016-0.96484 0.95703-1.5508 0.58984l-1.25-0.78125c-0.30469-0.19141-0.48828-0.52344-0.48828-0.88281v-0.20703h-6.3906l-2.543 5.9258c-0.36719 0.86328-1.5977 0.83594-1.9297-0.039063l-1.5625-4.1172-2.6758-1.1445h-5.0938c-0.22266 0-0.44141-0.070312-0.62109-0.20312l-1.7578-1.2969-0.21094 0.74219c-0.082031 0.28125-0.27734 0.51562-0.53906 0.64844l-2.6172 1.3086-3.1406 3.7383c-0.17188 0.20312-0.41016 0.33203-0.67578 0.36328l-5.3086 0.625c-0.62109 0.074218-1.1641-0.41016-1.1641-1.0352v-2.9922l-2.125-8.5-1.0508-1.9883h-0.46875c-0.57422 0-1.0391-0.46484-1.0391-1.043v-1.8555l-0.98828-0.49219c-0.35156-0.17578-0.57422-0.53516-0.57422-0.92969v-3.75c0-0.53516 0.40625-0.98047 0.9375-1.0352l0.058594-0.007813-0.26172-0.51953c-0.17969-0.35547-0.13672-0.78125 0.10547-1.0977l1.4141-1.8516-3.2734-2.6406c-0.19922-0.16016-0.33203-0.39062-0.375-0.64453l-0.89453-5.5391-1.4219-1.9883c-0.046875-0.066406-0.085937-0.13672-0.11719-0.21094l-2.0312-5c-0.12891-0.3125-0.09375-0.67188 0.09375-0.95703l4-6.1406-1.3398-0.84375c-0.22266-0.14063-0.38672-0.36328-0.45312-0.61719l-0.9375-3.5938c-0.082031-0.32422-0.007813-0.66797 0.20312-0.92578l1.6914-2.0508-1.5898-2.3203c-0.25781-0.375-0.24219-0.87109 0.039063-1.2305l3.5078-4.4883-1.4414-3.0078c-0.11719-0.24609-0.13281-0.52734-0.046875-0.78516l2.8125-8.2852-6.4648-10.672c-0.41797-0.69531 0.082032-1.582 0.89062-1.582h5.625c0.32812 0 0.63672 0.15234 0.83203 0.41406l0.47266 0.63281 2.2383-0.8125 0.46484-1.3984c0.14062-0.42578 0.53906-0.71094 0.98828-0.71094h2.5352l2.3516-2.3516c0.054687-0.054687 0.11719-0.10547 0.1875-0.14844l5.3086-3.2773c0.14062-0.085938 0.29687-0.14062 0.45703-0.15234l6.7539-0.58984 0.5-0.60156c0.42188-0.50781 1.2031-0.5 1.6172 0.015625l1.2461 1.5625c0.17578 0.21875 0.25391 0.49609 0.22266 0.77344l-0.59375 5.0469 0.83984 2.0938c0.058594 0.14844 0.082032 0.30469 0.070313 0.46094l-0.28125 3.9414 3.7812 4.3438 4.1172 1.8438h2.1211c0.13672 0 0.27734 0.027344 0.40625 0.082031l11.398 4.8438c0.21484 0.089844 0.39453 0.25 0.50781 0.45703l1.4219 2.582h5.3164c0.14844 0 0.29297 0.03125 0.42969 0.09375l4.8398 2.1836c0.53906 0.24609 0.76953 0.88672 0.50391 1.418l-0.84375 1.6914 1.7539 3.1055c0.089844 0.16016 0.13672 0.33594 0.13672 0.51563v2.8086c0 0.55078-0.42578 1.0039-0.97266 1.0391l-0.36719 0.027344 1.1172 1.4141c0.125 0.16016 0.20312 0.35547 0.21875 0.55859l0.39062 4.8203zm-13.273 2.0859c-0.54297 0-0.99219-0.41797-1.0391-0.95703l-0.44141-5.4648-2.1484-2.7188c-0.51953-0.66016-0.085938-1.6289 0.75-1.6875l1.3711-0.089844v-1.5625l-1.8984-3.3555c-0.16797-0.30078-0.17969-0.66797-0.023437-0.97656l0.60937-1.2188-3.6484-1.6484h-5.7109c-0.37891 0-0.73047-0.20312-0.91406-0.53906l-1.543-2.8047-10.875-4.6172h-2.1289c-0.14844 0-0.29297-0.03125-0.42578-0.09375l-4.5312-2.0312c-0.13672-0.058594-0.25781-0.15234-0.35938-0.26562l-4.2148-4.8398c-0.18359-0.21094-0.27344-0.48047-0.25391-0.75781l0.29688-4.1328-0.84766-2.1211c-0.066406-0.16406-0.089843-0.33594-0.070312-0.50781l0.57422-4.8789-0.17969-0.22656c-0.17578 0.1875-0.41406 0.30469-0.67188 0.32812l-6.9375 0.60547-4.9961 3.0859-2.5703 2.5664c-0.19531 0.19531-0.46094 0.30469-0.73828 0.30469h-2.2148l-0.38672 1.1641c-0.10156 0.30078-0.33203 0.53906-0.63281 0.64844l-3.4336 1.25c-0.43359 0.15625-0.91406 0.011719-1.1914-0.35547l-0.625-0.83203h-3.25l5.7578 9.5078c0.15625 0.26172 0.19141 0.58203 0.09375 0.875l-2.832 8.3438 1.5352 3.207c0.17188 0.35547 0.125 0.78125-0.11719 1.0898l-3.4375 4.3984 1.6016 2.3398c0.26172 0.38281 0.23828 0.89062-0.054687 1.25l-1.8477 2.2422 0.69531 2.6797 1.8906 1.1836c0.49219 0.3125 0.63672 0.96484 0.31641 1.4531l-4.2812 6.5703 1.7773 4.3789 1.4922 2.0859c0.09375 0.13281 0.15625 0.28125 0.17969 0.4375l0.875 5.3867 3.75 3.0273c0.4375 0.35547 0.51562 0.99609 0.17188 1.4453l-1.6367 2.1367 0.64844 1.293c0.32422 0.65234-0.10156 1.4297-0.82812 1.5039l-0.625 0.0625v2.1602l0.98828 0.49219c0.35156 0.17578 0.57422 0.53906 0.57422 0.93359v1.457h0.050781c0.38672 0 0.74219 0.21094 0.92188 0.55469l1.4062 2.6523c0.039062 0.074219 0.066406 0.15234 0.089844 0.23438l2.1836 8.7461c0.023437 0.082031 0.03125 0.16797 0.03125 0.25391v1.9492l3.7383-0.4375 3.0117-3.5898c0.09375-0.10547 0.20703-0.19531 0.33203-0.26172l2.4023-1.1992 0.5-1.7461c0.19922-0.69922 1.0352-0.98438 1.6172-0.55078l2.6914 1.9805h4.9688c0.14062 0 0.28125 0.03125 0.41016 0.085937l3.2812 1.4062c0.25781 0.10938 0.46094 0.32422 0.5625 0.58594l0.80078 2.1172 1.7969-4.1875c0.16406-0.38281 0.53906-0.62891 0.95703-0.62891h8.1211c0.39062 0 0.73047 0.21094 0.90625 0.53125l1.957-6.668v-4.0664c0-0.21484 0.066406-0.42578 0.19141-0.60156l2.5586-3.6172 0.88672-2.8125c0.11328-0.35547 0.41016-0.625 0.77734-0.70312l12.496-2.6562 0.21484-0.023437h6.7148c0.21094 0 0.42188 0.066406 0.59375 0.1875l5.1953 3.6055 2.7539-6.3828 1.2734-4.3789-2.4258-4.7227-2.4102-0.80078c-0.3125-0.10547-0.55469-0.34766-0.66016-0.66016l-1.2461-3.7461c-0.066407-0.19922-0.074219-0.41406-0.015626-0.61719l0.87109-3.043z" fill-rule="evenodd"/>
</svg>
