<?xml version="1.0" encoding="UTF-8"?>
<svg width="100pt" height="100pt" version="1.1" viewBox="0 0 100 100" xmlns="http://www.w3.org/2000/svg">
 <defs>
  <clipPath id="a">
   <path d="m18.512 27h62.977v46h-62.977z"/>
  </clipPath>
 </defs>
 <g clip-path="url(#a)">
  <path d="m40.395 34.887 0.5-0.91016c0.11328-0.21094 0.33594-0.33984 0.57422-0.33984h1.8164c0.20703 0 0.40234 0.097656 0.52344 0.26562l2.6992 3.6484 0.070313 0.12109 0.86719 1.9219 2.7578 0.89844c0.38281 0.125 0.5625 0.5625 0.38281 0.92187l-0.74219 1.4922-0.19531 3.4141 0.61719 2.5703 1.4062 1.707c0.042969 0.050782 0.074219 0.10547 0.10156 0.16797l0.76562 1.8516 1.6836 0.53516 3.6523-0.625 1.3711-0.87891 0.5625-2.5938c0.054687-0.24609 0.23828-0.4375 0.47656-0.5l3.6328-0.9375c0.12109-0.03125 0.24609-0.027344 0.36719 0.011718l2.0742 0.67969c0.40234 0.12891 0.57812 0.60547 0.35547 0.96875l-1.0742 1.7656-0.44531 2.6875c-0.011718 0.0625-0.03125 0.12109-0.058593 0.17969l-0.80078 1.6484 0.25 0.29688c0.21875 0.26562 0.19922 0.65625-0.050782 0.89844l-0.33594 0.32422 1.3906 0.15234 3.1484-0.30469c0.11328-0.011719 0.23047 0.007813 0.33594 0.058594l2.8008 1.3008c0.23438 0.10938 0.38281 0.33984 0.38281 0.59766v1.3008c0 0.058594-0.007812 0.11328-0.023437 0.16406l-1.0664 4.1797 1.2266 1.8672 1.9219 0.72266 2.6328-0.61328c0.078125-0.015625 0.15625-0.019531 0.23438-0.011718l1.9688 0.26172c0.13672 0.015625 0.26172 0.078125 0.36328 0.16797l1.3984 1.3047c0.097657 0.089844 0.16406 0.20703 0.19531 0.33594l0.36328 1.5781c0.050782 0.22656-0.019531 0.46484-0.1875 0.625l-1.1914 1.1484c-0.27734 0.26172-0.71484 0.23828-0.95703-0.054687l-0.78125-0.9375c-0.097657-0.12109-0.15234-0.26953-0.14844-0.42578v-0.0625l-0.91016-0.46875-0.33984 0.45703 0.14844 0.52344c0.09375 0.32031-0.070313 0.66016-0.37891 0.78516l-1.2422 0.52344c-0.24609 0.10156-0.53125 0.046875-0.71875-0.14453l-0.82812-0.83203-0.046875-0.054688-0.45703-0.57031-1.543-0.17578c-0.15625-0.019531-0.29688-0.089843-0.40234-0.19922l-0.98438-1.0391-1.1211-0.73828h-0.58203c-0.13281 0-0.26172-0.039062-0.37109-0.11328l-1.2969-0.88672c-0.17969-0.12109-0.28516-0.32422-0.28516-0.54297v-1.2109l-2.5977-2.9766h-1.1562c-0.089844 0-0.18359-0.019531-0.26562-0.054687l-2.3438-1.0547-2.2344-0.24609c-0.14844-0.019531-0.28906-0.085937-0.39453-0.19531l-3-3.0625-1.375-0.44531-2.418 1.0469c-0.15625 0.066407-0.33203 0.074219-0.49219 0.011719l-6.5859-2.5c-0.066406-0.027343-0.12891-0.0625-0.18359-0.10547l-1.3203-1.0898-1.543-0.28516c-0.078125-0.011718-0.15625-0.042968-0.22266-0.082031l-2.75-1.668c-0.074219-0.046874-0.14062-0.10547-0.19141-0.17969l-1.4531-2.0312c-0.13672-0.19141-0.16016-0.44141-0.066406-0.65234l0.57031-1.2773-0.55859-1.6797-3.1445-3.9961-2.082-1.8359c-0.18359-0.16406-0.26172-0.42188-0.19922-0.66406l0.15625-0.59375-2.1836-1.918-0.0625-0.0625-2.6445-3.0195-0.0625-0.089844-1.4062-2.2695-1.2734-0.44531 0.39062 1.1172 0.47656 0.29297c0.070312 0.042969 0.12891 0.097656 0.17969 0.16406l1.8164 2.3945c0.046876 0.066406 0.085938 0.14062 0.10938 0.22266l0.21875 0.79688 1.4609 1.7109c0.035156 0.042968 0.066406 0.089843 0.089844 0.14062l1.0117 2.082 1.0703 1.7773 1.4844 1.5469c0.11719 0.12109 0.18359 0.28516 0.18359 0.45703v0.72656c0 0.26562-0.15625 0.50391-0.39453 0.60547l-1.8281 0.79297c-0.35937 0.15625-0.76953-0.03125-0.88672-0.40234l-0.30078-0.94922-2.5625-1.9688c-0.23437-0.17969-0.32031-0.49609-0.20703-0.77344l0.36719-0.90234-0.27344-0.69922-1.6211-0.72266c-0.050782-0.023437-0.097657-0.054687-0.14453-0.089844l-2.7109-2.1875c-0.44531-0.35938-0.25391-1.082 0.3125-1.168l0.9375-0.14062-1.9219-2.4453c-0.039063-0.046875-0.070313-0.10547-0.09375-0.16406l-1.9688-4.9492c-0.14453-0.36719 0.0625-0.78125 0.44531-0.87891l3.7852-0.99219c0.14453-0.039062 0.30078-0.027344 0.4375 0.035156l5.5078 2.5117 3.5195 0.43359v-0.050781c0-0.36328 0.29688-0.65625 0.65625-0.65625h2.9062c0.17188 0 0.33594 0.066406 0.45703 0.1875l2.125 2.082c0.070312 0.066406 0.12109 0.14453 0.15625 0.23438l0.64453 1.6641z"/>
 </g>
</svg>
