<?xml version="1.0" encoding="UTF-8"?>
<svg width="100pt" height="100pt" version="1.1" viewBox="0 0 100 100" xmlns="http://www.w3.org/2000/svg">
 <path d="m66.91 65.691 0.88672 1.8281c0.23047 0.47266 0.074219 1.043-0.36719 1.3281l-2.207 1.4336c-0.16797 0.10938-0.36719 0.16797-0.56641 0.16797h-3.1953c-0.76172 0-1.2656-0.78906-0.94531-1.4805l1.3672-2.9531c0.14453-0.3125 0.42969-0.53125 0.76953-0.58984l1.832-0.30859 0.17188-0.011719h1.3164c0.39844 0 0.76172 0.22656 0.9375 0.58594zm-1.7148 1.4961-1.2031 0.20312-0.44922 0.97266h1.2578l1.1719-0.76172-0.19922-0.41406zm-9.0312 5.1055-3.3359-0.92969c-0.24609-0.070312-0.45703-0.22266-0.59375-0.4375l-2.0664-3.168c-0.44922-0.69531 0.046875-1.6133 0.875-1.6133h3.9609c0.16797 0 0.33203 0.042969 0.48047 0.12109l1.4414 0.75c0.34375 0.17969 0.55859 0.53516 0.55859 0.92188v3.3516c0 0.69141-0.65625 1.1914-1.3203 1.0039zm-0.76172-3.7227-0.65234-0.33984h-1.7852l0.80078 1.2305 1.6367 0.45703zm14.375-12.801-0.19531 0.054688-1.9727 0.34766c-0.50781 0.089844-1.0039-0.20312-1.168-0.69141l-0.91016-2.7031c-0.039062-0.10547-0.054688-0.21875-0.054688-0.33203v-0.97266c0-0.64062 0.57031-1.1289 1.2031-1.0273l2.6172 0.41797 2.0078-0.73828c0.11328-0.039062 0.23437-0.0625 0.35937-0.0625h3.3359c0.23438 0 0.46094 0.078125 0.64453 0.22266l1.7148 1.3398c0.32812 0.25391 0.46875 0.68359 0.36328 1.0859l-0.70703 2.6992c-0.16016 0.61328-0.82422 0.94141-1.4062 0.69922l-2.0391-0.84375h-2.4922zm-1.6484-1.8047 0.98828-0.17188 1.3867-0.54297c0.12109-0.046875 0.25-0.070312 0.37891-0.070312h2.8945c0.13672 0 0.27344 0.027343 0.40234 0.082031l1.125 0.46484 0.23047-0.88281-0.89062-0.69922h-2.7969l-2.0898 0.76953c-0.16797 0.0625-0.34766 0.078126-0.52344 0.050782l-1.5273-0.24609zm31.051-3.8633c0.46094 0.11719 0.78125 0.53516 0.78125 1.0078v14.016c0 0.57812-0.46484 1.043-1.0391 1.043h-1.3984c-0.22656 0-0.44531-0.074219-0.625-0.20703l-1.0625-0.80078h-4.5547c-0.75391 0-1.2578-0.77734-0.94922-1.4648l0.91797-2.0586c0.082031-0.18359 0.21094-0.33594 0.375-0.44531l0.76953-0.50781v-0.4375l-1.4141-2.4883-3.4766-1.6758-2.7578-0.80078-0.17578-0.070312-1.8477-0.92188-0.29688 0.51172c-0.18359 0.32422-0.52734 0.51953-0.89844 0.51953h-0.71875c-0.37891 0-0.73047-0.20703-0.91406-0.53906l-0.64453-1.1836-1.0234-0.82812c-0.17578-0.14453-0.30078-0.34375-0.35547-0.56641l-0.20312-0.85156c-0.082031-0.33203 0.011719-0.67578 0.22266-0.92187-0.003906-0.011719-0.10938-0.42188-0.31641-1.2305l-1.1445-0.48438c-0.38672-0.16406-0.63672-0.53906-0.63672-0.95703v-1.1797c0-0.48438 0.33203-0.90234 0.80078-1.0117l3.2305-0.76562c0.16016-0.035156 0.32422-0.035156 0.48047 0l3.207 0.76562c0.36328 0.085938 0.65234 0.35938 0.75781 0.71875l0.43359 1.4766c0.027344 0.097656 0.042969 0.19531 0.042969 0.29297v1.332l1.6172 0.59375 1.6211-0.80078c0.14453-0.070313 0.30078-0.10547 0.46094-0.10547h0.64063l1.9336-1.7852c0.34375-0.31641 0.85547-0.36328 1.2539-0.12109l3.207 1.9766zm-1.3008 1.8164-3.0703-0.79688c-0.10156-0.023438-0.19922-0.066406-0.28516-0.12109l-2.6719-1.6445-1.6523 1.5234c-0.19141 0.17969-0.44531 0.27734-0.70703 0.27734h-0.80469l-1.8047 0.88672c-0.25391 0.12891-0.55078 0.14453-0.81641 0.046875l-2.7227-0.99609c-0.41016-0.15234-0.68359-0.54297-0.68359-0.98047v-1.9062l-0.21875-0.75391-2.3789-0.56641-1.6758 0.39453 0.47656 0.20312c0.29688 0.125 0.51953 0.38281 0.60156 0.69922l0.13281 0.52344 0.82422-0.32812c0.6875-0.27344 1.4297 0.23047 1.4297 0.96875v0.76562c0 0.40625-0.23437 0.77344-0.60156 0.94531l-1.1562 0.54297 0.62891 0.50781c0.10156 0.085937 0.19141 0.19141 0.25391 0.30859l0.20703 0.375 0.22656-0.39453c0.27734-0.47656 0.875-0.65625 1.3672-0.41016l2.6406 1.3164 2.75 0.80078 0.16016 0.0625 3.8516 1.8555c0.19141 0.09375 0.34766 0.23828 0.45312 0.42578l1.707 3.0039c0.089844 0.15625 0.13672 0.33594 0.13672 0.51562v1.2734c0 0.34766-0.17578 0.67578-0.46484 0.86719l-0.98438 0.65234-0.14062 0.31641h3.293c0.22656 0 0.44531 0.074219 0.625 0.20703l1.0664 0.80078zm-24.258-7.2969c0 0.16797-0.039063 0.33203-0.11719 0.48047l-1.1016 2.125c-0.16016 0.30859-0.46484 0.51563-0.80859 0.55469l-2.8398 0.32031c-0.33984 0.039063-0.67188-0.089843-0.89844-0.34375l-1.1758-1.3242c-0.44531-0.5-0.30859-1.2852 0.28125-1.6055l0.63281-0.34375v-0.80078c0-0.09375 0.011719-0.1875 0.039062-0.27734l0.44141-1.6094c0.058593-0.21484 0.18359-0.40625 0.35938-0.54297l2.832-2.2305c0.44531-0.34766 1.082-0.28125 1.4453 0.15234l1.2266 1.4688c0.25391 0.30469 0.31641 0.72266 0.15625 1.0859l-0.47266 1.082zm-2.8125 1.1523 0.73047-1.4062v-1.7734c0-0.14062 0.027344-0.28516 0.085938-0.41406l0.30078-0.69141-0.16406-0.19922-1.7695 1.3906-0.31641 1.1445v1.2812c0 0.33594-0.16016 0.65234-0.43359 0.84375zm-19.602 3.6719 0.50391-2.4258 1.5078-6.6992c0.078125-0.34766 0.32422-0.62891 0.65625-0.75l1.8867-0.69141c0.17578-0.066406 0.36719-0.082031 0.55469-0.046875l5.7812 1.1055 1.6602-1.5547c0.42188-0.39062 1.0781-0.37109 1.4688 0.046876l1.8086 1.9141c0.40625 0.42969 0.37109 1.1094-0.070312 1.5l-3.2188 2.8242c-0.21094 0.17969-0.48438 0.27344-0.76172 0.25391l-5.4883-0.38672-0.12891 1.3594c0.5-0.25 0.85547-0.35938 1.1445-0.35938h2.5234c0.57812 0 1.043 0.46484 1.043 1.0391v0.67578c0 0.30078-0.13281 0.58984-0.35938 0.78516l-2.4023 2.0781 1.5195 2.0703c0.13281 0.17969 0.20312 0.39453 0.20312 0.61719v0.30078l0.78125 0.89063c0.29297 0.33203 0.33984 0.81641 0.12109 1.2031l-0.46875 0.82031-0.50781 1.2656c-0.23438 0.58594-0.92969 0.82812-1.4805 0.51953l-0.37109-0.21094c-0.43359-0.24609-0.43359-0.24609-1.0664-0.60547l-0.98828-0.48828c-0.21094-0.10547-0.37891-0.28125-0.48047-0.49219l-0.49219-1.0547v1.9453c0 0.57422-0.46484 1.0391-1.0391 1.0391h-3.3594c-0.66016 0-1.1562-0.60547-1.0234-1.25l0.61719-2.9883-0.17188-0.27344h-1.3242c-0.92578 0-1.3906-1.1133-0.74609-1.7734zm3.918-8.1133-1.3789 6.1289-0.5625 2.707c-0.039063 0.19531-0.13672 0.375-0.27734 0.51953l-0.75 0.76172c0.16797 0.085937 0.3125 0.21484 0.41406 0.37891l0.69531 1.1172c0.14453 0.22656 0.19141 0.49609 0.13672 0.76172l-0.4375 2.1445h1.0391v-4.8594c0-0.71875 0.71094-1.2188 1.3906-0.98047l1.0898 0.38672c0.34375 0.125 0.60156 0.41797 0.67188 0.77734l0.39844 1.9922 0.75781 1.625 0.71094 0.35547 0.44922 0.25 0.089844-0.22266 0.0625-0.13281 0.13672-0.23438-0.54688-0.625c-0.16797-0.19141-0.25781-0.43359-0.25781-0.6875v-0.35156l-1.8906-2.5703c-0.32031-0.4375-0.25-1.0508 0.16016-1.4062l1.793-1.5508h-0.41016c-0.097656 0.039062-0.23047 0.10547-0.40234 0.19141-0.36719 0.19141-0.875 0.49219-1.5195 0.89453-0.73438 0.45703-1.6719-0.125-1.5898-0.98438l0.42188-4.3945c0.054688-0.5625 0.54688-0.97656 1.1133-0.9375l6.0664 0.42578 2.0781-1.8242-0.35156-0.375-1.2891 1.207c-0.24609 0.22656-0.58203 0.32422-0.91016 0.26172l-6.0195-1.1484zm-25.602 5.832c-0.23828-0.12109-0.41797-0.32812-0.50781-0.57812l-1.332-3.7539c-0.085938-0.25-0.078125-0.52344 0.03125-0.76562l0.94141-2.1445c0.25391-0.58203 0.97266-0.80078 1.5117-0.45703l2.4766 1.5742h2.7383l1.1797-1.0078c0.30469-0.26562 0.73438-0.32812 1.1055-0.16016l1.6172 0.72656 1.1484-0.3125 1.8984-2.0625 1.1719-3.0039c0.17969-0.46094 0.65625-0.73047 1.1406-0.64844l3.6172 0.60156c0.50391 0.082031 0.87109 0.51953 0.87109 1.0273v2.5039l0.63281 2.375 1.5625 1.1484c0.54688 0.40234 0.56641 1.2109 0.042969 1.6445l-0.55078 0.45312c-0.1875 0.15234-0.42187 0.23438-0.66406 0.23438h-1.2852l-0.74609 2.5234c-0.074219 0.25391-0.24219 0.47266-0.47266 0.60547l-1.9336 1.1211 0.21094 0.66016c0.074218 0.24219 0.0625 0.50391-0.042969 0.73438l-1.1406 2.5781c-0.10547 0.23828-0.29297 0.42578-0.53125 0.53125l-2.8008 1.2266c-0.52344 0.22656-1.1289-0.003906-1.3672-0.51953l-0.55469-1.2148h-1.8164l-0.15234-0.011719-2.5195-0.375c-0.32031-0.050781-0.60156-0.24219-0.75781-0.52734l-0.25391-0.45703h-2.4414c-0.48438 0-0.90625-0.33594-1.0156-0.80469l-0.47656-2.0664c-0.019532-0.074219-0.027344-0.15625-0.027344-0.23438v-0.90234zm0.26172-4.6367 1.0547 2.9727 0.70703 0.35938c0.34766 0.17578 0.56641 0.53516 0.56641 0.92578v1.4219l0.26562 1.1445h2.2305c0.37891 0 0.73047 0.20313 0.91016 0.53906l0.30078 0.54297 1.9336 0.28906h2.4062c0.40625 0 0.77734 0.23438 0.94531 0.60547l0.41016 0.89062 1.4922-0.65234 0.81641-1.8438-0.34375-1.0781c-0.14844-0.46484 0.046875-0.97266 0.46875-1.2188l2.2969-1.332 0.84375-2.8711c0.13281-0.44141 0.53906-0.74609 1-0.74609h0.070312c-0.15234-0.13672-0.26172-0.3125-0.31641-0.51172l-0.75781-2.8555c-0.023438-0.089844-0.035157-0.17969-0.035157-0.26953v-1.7578l-1.9141-0.32031-0.93359 2.3984c-0.046875 0.12109-0.11719 0.23047-0.20312 0.32812l-2.2383 2.4297c-0.13281 0.14453-0.30469 0.25-0.49609 0.30078l-1.7969 0.48438c-0.23438 0.0625-0.48047 0.042969-0.69922-0.054687l-1.3516-0.60547-0.96875 0.82812c-0.19141 0.16406-0.42969 0.25391-0.67969 0.25391h-3.4297c-0.19531 0-0.39062-0.058594-0.55859-0.16406l-1.707-1.0859zm14.266 22.086c-0.24219 0.19922-0.57812 0.28516-0.91016 0.20312l-4.4531-1.1133h-3.6523c-0.14844 0-0.29297-0.03125-0.42969-0.09375l-3.7227-1.6914h-2.9297c-0.11719 0-0.23828-0.023438-0.34766-0.0625l-3.3086-1.1719c-0.21094-0.074219-0.39453-0.21484-0.51562-0.40234l-0.46094-0.68359h-0.95703c-0.84375 0-1.3359-0.94922-0.85156-1.6406l0.41406-0.59375h-1.3633c-0.26172 0-0.50781-0.097656-0.69922-0.26953l-4.5312-4.0977c-0.125-0.11328-0.21875-0.25391-0.27734-0.41016l-0.39063-1.043-2.5391-2.9609c-0.070312-0.078125-0.125-0.16797-0.16797-0.26172l-1.8477-4.2266-1.3555-1.4023c-0.125-0.12891-0.21484-0.28516-0.26172-0.46094l-0.83594-3.2148-1.9805-1.3359c-0.125-0.085938-0.23047-0.19531-0.30859-0.32422l-1.6094-2.6445-2.1406-1.8242c-0.14453-0.12109-0.25-0.27734-0.3125-0.45312l-1.1445-3.3516c-0.3125-0.91016 0.66797-1.7188 1.5039-1.2383l1.9258 1.1055 2.793 0.33984c0.21484 0.027344 0.41797 0.12109 0.57813 0.26563l1.3984 1.2773c0.14062 0.12891 0.24219 0.28906 0.29688 0.46875l0.26953 0.90234 1.2383 1.0195 0.078126 0.070313 2.6953 2.7188 3.6797 2.5 0.097656 0.074219 3.6328 3.1602c0.32812 0.28906 0.44531 0.75391 0.28516 1.1641l-0.48437 1.2539 1.2773 0.53516c0.33594 0.14062 0.57422 0.44531 0.62891 0.80469l0.035156 0.25781c0.14062-0.22656 0.36328-0.39062 0.62891-0.46094l2.2344-0.57422c0.40234-0.10547 0.82812 0.042969 1.0859 0.375l2.2656 2.9414c0.14062 0.18359 0.21484 0.40625 0.21484 0.63672v1.9062c0 0.67578-0.62891 1.1719-1.2852 1.0117l-2.0977-0.50781-0.60547 4.2656h2.6211c0.3125 0 0.60547 0.13672 0.80469 0.37891l1.3633 1.6484 3.7852-0.97656 0.51172-0.35547c0.25391-0.17578 0.57422-0.23047 0.875-0.14453l4.0977 1.1445c0.30078 0.085938 0.55078 0.30078 0.67578 0.58984l0.23438 0.54688h1.8438c0.15625 0 0.3125 0.035156 0.45312 0.10156l2.8047 1.3516c0.125 0.058594 0.23438 0.14453 0.32422 0.24609 0.13281-0.0625 0.28125-0.097657 0.4375-0.097657h2.6094l0.73828-0.37109c0.25391-0.125 0.54687-0.14453 0.8125-0.054688l2.5312 0.88281 2.6328-0.44531 3.5547-0.48438c0.20312-0.027344 0.41016 0.003906 0.59766 0.097656l5.2539 2.5664c0.87891 0.42578 0.73828 1.7188-0.21484 1.9492l-2.0312 0.48437-0.13672 0.023438-4.5273 0.46484-5.1055 0.21875-4.0117 0.71094c-0.14453 0.023438-0.28906 0.019531-0.42969-0.015625l-2.9375-0.72266c-0.28125-0.070312-0.50781-0.25-0.64844-0.48047zm-40.867-33.125 2.0508 1.7422c0.085937 0.074219 0.15625 0.15625 0.21484 0.25391l1.5781 2.5938 2.1211 1.4297c0.21094 0.14063 0.36328 0.35547 0.42578 0.60156l0.86719 3.332 1.2969 1.3359c0.085938 0.089844 0.15625 0.19141 0.20703 0.30859l1.8594 4.2578 2.5625 2.9805c0.082031 0.09375 0.14453 0.19922 0.1875 0.31641l0.36328 0.98047 4.043 3.6602h1.4805l0.69922-4.9531-0.55859-0.94141-1.8398-1.1055c-0.26563-0.16406-0.44922-0.43359-0.49219-0.74219l-0.17188-1.1445-1.6719-0.69922c-0.51953-0.21875-0.77344-0.8125-0.57031-1.3398l0.58984-1.5156-3.0312-2.6406-3.7109-2.5234-0.15234-0.12891-2.7344-2.75-1.4375-1.1875c-0.16016-0.12891-0.27734-0.30469-0.33594-0.50391l-0.28125-0.92578-0.94141-0.86328-2.6758-0.32422c-0.039062-0.003907-0.078125-0.011719-0.11719-0.023438zm21.559 26.488 0.57422 0.85938 2.8164 0.99609h2.9766c0.14844 0 0.29688 0.035157 0.43359 0.09375l3.7188 1.6953h3.5547c0.085938 0 0.16797 0.007812 0.25391 0.03125l3.5508 0.88672 0.32422-1.3828-1.8398-0.88672h-2.2891c-0.41406 0-0.79297-0.24609-0.95703-0.62891l-0.30859-0.71875-3.1484-0.87891-0.26172 0.17969c-0.10156 0.070313-0.21484 0.12109-0.33594 0.15234l-4.6055 1.1875c-0.39453 0.10156-0.80859-0.03125-1.0664-0.34375l-1.4688-1.7812h-2.2461l-0.11719 0.16797c0.17578 0.078125 0.32812 0.20703 0.44141 0.37109zm-0.66406-10.102c0.082031 0.066406 0.15234 0.14844 0.21094 0.23828l0.48828 0.74609 1.6602 0.40234v-0.22656l-1.6328-2.1211-1.043 0.26953-0.125 0.33203zm22.02 15.418 1.8203 0.44922 3.8633-0.6875 0.14062-0.011719 5.1094-0.21875 3.3438-0.34375-2.168-1.0586-3.2031 0.4375-2.8633 0.48438c-0.17578 0.03125-0.35156 0.015625-0.51953-0.042969l-2.3672-0.82422-0.5625 0.28516c-0.14844 0.074219-0.30859 0.11328-0.46875 0.11328h-1.9414z" fill-rule="evenodd"/>
</svg>
