<?xml version="1.0" encoding="UTF-8"?>
<svg width="100pt" height="100pt" version="1.1" viewBox="0 0 100 100" xmlns="http://www.w3.org/2000/svg">
 <path d="m74.117 2.0352 2.6719-1.8516c0.4375-0.30078 1.0352-0.22656 1.3828 0.17578l1.3672 1.5781c0.27734 0.32031 0.33203 0.77344 0.14453 1.1484l-1.5273 3.0547 0.77734 3.9648 0.015625 0.15234 0.21484 4.5781v5.832l0.59375 1.7852 0.83984 3.0547c0.046875 0.16797 0.050782 0.35156 0.007813 0.52344l-0.83984 3.4727c-0.035156 0.13672-0.09375 0.26562-0.17969 0.37891l-4.4219 5.8984c-0.050781 0.0625-0.10547 0.125-0.17187 0.17578l-4.8398 4c-0.13281 0.10938-0.28906 0.18359-0.45312 0.21875l-2.9258 0.60547-7.1523 3.5234-3.9648 4.8633-0.57422 1.4297c-0.15625 0.39453-0.53906 0.65625-0.96875 0.65625h-1.8594l-4.6367 5.0312c-0.085938 0.09375-0.1875 0.17188-0.30078 0.22656l-0.98828 0.49609-0.36719 2.4883 1.8008 1.6289c0.20703 0.1875 0.33203 0.45312 0.33984 0.73438l0.097657 2.7461 0.86328 1.918c0.035156 0.070312 0.058594 0.14844 0.074219 0.22266l0.35547 1.793c0.50781 0.007813 0.98437 0.39063 1.0273 0.96094l0.42188 5.2656c0.007813 0.097656 0.003906 0.19531-0.019531 0.29297l-0.89844 4.3359c0.68359 0.074219 1.1211 0.80078 0.83203 1.4531l-1.5781 3.582c-0.082032 0.1875-0.21875 0.34766-0.39453 0.45703l-3.4727 2.2109-0.17969 0.089844-7.8984 3.1172-2.2031 1.4688-0.69531 1.3945c0.64453-0.48828 1.7266-0.050781 1.6641 0.91016l-0.31641 4.9453c-0.035156 0.55078-0.48828 0.97656-1.0391 0.97656h-4.1055c-0.57422 0-1.043-0.46484-1.043-1.043v-1.8047l-0.48047-2.7969-0.65625-1.2188c-0.09375-0.17578-0.13672-0.37109-0.125-0.57031l0.41797-5.9023-0.39844-3.4609-1.8789-4.9219-1.7891-6.5273c-0.097656-0.35938 0.003906-0.74609 0.26562-1.0117l6.1641-6.1641-0.19141-0.53516c-0.070313-0.18359-0.082031-0.38672-0.039063-0.57812l0.73438-3.3711c0.0625-0.27344 0.23047-0.51172 0.46875-0.66016l1.3594-0.84766 0.64063-2.0117 0.28516-0.73438-0.78516-0.78516c-0.23828-0.23828-0.34766-0.57813-0.29297-0.91016l0.35547-2.1211-0.82422-1.2344c-0.26172-0.39062-0.23047-0.90625 0.078125-1.2617l1.1133-1.2852 0.003906-3.7617-0.31641-5.2617c-0.003906-0.085938 0-0.17188 0.015625-0.25391l0.12109-0.64062-0.21484-0.035157c-0.19922-0.035156-0.38281-0.125-0.53125-0.25781l-0.92578-0.83984-3.1602-0.48047c-0.23828-0.035157-0.45703-0.15234-0.61719-0.32813l-0.89844-0.98828-2.8555-1.1992h-3.793c-0.55078 0-1.0039-0.42969-1.0391-0.97656l-0.19922-3.3164-0.78906-2.0625c-0.21094-0.55469 0.082032-1.1719 0.64453-1.3594l17.059-5.6836c0.4375-0.14844 0.92188 0.011719 1.1875 0.39453l1.6914 2.457 3.4023-0.875c0.45312-0.11328 0.92578 0.085937 1.1602 0.48828l1.1602 2c0.089844 0.16016 0.14062 0.33984 0.14062 0.52344v3.4727c0 0.17578-0.046875 0.35156-0.13281 0.50781l-1.3555 2.4414 0.62109 1.8672 2.1523 2.2188c0.003906-0.15234 0.039063-0.30469 0.10938-0.44531l1.1562-2.3164c0.14062-0.28125 0.40234-0.48438 0.71094-0.55078l1.6445-0.35938 0.35938-6.6133-5.0312-6.5508h-1.1719c-0.53906 0-0.98828-0.41406-1.0391-0.94922l-0.41016-4.5234-0.8125-2.6328c-0.070312-0.23047-0.058594-0.48047 0.035156-0.70312l1.4727-3.582c0.16016-0.39062 0.54297-0.64453 0.96484-0.64453h5.0195l0.98828-0.73828c0.33203-0.25 0.78125-0.27734 1.1406-0.070313l2.707 1.5469h1.5039l0.43359-0.43359c0.25391-0.25391 0.625-0.35937 0.98047-0.27344l2.7461 0.66016 1.2422-0.45703 0.46875-1.3281c0.14844-0.41797 0.54297-0.69531 0.98438-0.69531h2.1055c0.17188 0 0.33984 0.042969 0.49219 0.125l0.81641 0.44141 1.375-0.91797c0.17188-0.11328 0.375-0.17578 0.57813-0.17578h1.7617zm3.0898 0.39453-1.9688 1.3633-0.13672 0.078125-4.5273 2.2109c-0.14062 0.070313-0.29688 0.10938-0.45703 0.10938h-1.6836l-1.6328 1.0859c-0.32031 0.21484-0.73438 0.23438-1.0703 0.050781l-1.1406-0.61328h-1.1055l-0.38672 1.0977c-0.10156 0.28906-0.32812 0.52344-0.62109 0.62891l-2 0.73828c-0.19531 0.070312-0.40234 0.082031-0.60547 0.035156l-2.4844-0.60156-0.32422 0.32422c-0.19531 0.19531-0.46094 0.30469-0.73828 0.30469h-2.2109c-0.17969 0-0.35938-0.046876-0.51562-0.13672l-2.3516-1.3438-0.71875 0.53516c-0.17969 0.13672-0.39844 0.20703-0.625 0.20703h-4.6719l-1.0664 2.5898 0.73438 2.3828 0.042968 0.21094 0.33203 3.6836h0.73437c0.32422 0 0.62891 0.15234 0.82813 0.41016l5.5781 7.2617c0.15234 0.19922 0.22656 0.44531 0.21484 0.69141l-0.42188 7.793c-0.023437 0.46875-0.35938 0.85938-0.82031 0.96094l-1.9336 0.42188-0.65234 1.3008 0.47266 0.64844c0.12891 0.17578 0.19922 0.39062 0.19922 0.61328v2.3164c0 0.57422-0.46875 1.0391-1.043 1.0391h-1.2617c-0.50391 0-0.93359-0.35547-1.0273-0.84766l-0.25781-1.3789-3.1484-3.25c-0.10938-0.10937-0.19141-0.24609-0.24219-0.39453l-0.83984-2.5273c-0.09375-0.27734-0.066406-0.57813 0.074218-0.83594l1.4492-2.6055v-2.9258l-0.62109-1.0742-3.3438 0.85547c-0.42188 0.10938-0.86719-0.054688-1.1133-0.41406l-1.6641-2.4102-15.281 5.0938 0.45312 1.1953c0.039062 0.097656 0.0625 0.20312 0.066406 0.30859l0.15234 2.4961h3.0195c0.14062 0 0.27734 0.027344 0.40625 0.082031l3.2617 1.3672c0.14062 0.058594 0.26562 0.14844 0.36719 0.25781l0.80469 0.88672 3.1094 0.46875c0.20312 0.03125 0.39062 0.12109 0.54297 0.26172l0.93359 0.84766 0.96094 0.16016c0.57422 0.09375 0.96094 0.64453 0.85156 1.2188l-0.29297 1.5586 0.3125 5.1953v4.2148c0 0.25-0.09375 0.49219-0.25781 0.67969l-0.84766 0.98047 0.61328 0.91797c0.14844 0.22266 0.20312 0.48828 0.16016 0.75l-0.33203 2 0.88281 0.88281c0.29297 0.28906 0.38281 0.72656 0.23828 1.1094l-0.50781 1.3125-0.73828 2.3164c-0.074219 0.23438-0.23047 0.4375-0.4375 0.56641l-1.3125 0.82031-0.58203 2.6445 0.32031 0.875c0.13672 0.38281 0.042969 0.80859-0.24219 1.0938l-6.207 6.207 1.5977 5.8438 1.8945 4.9492c0.03125 0.082031 0.054688 0.16797 0.0625 0.25391l0.42188 3.6875 0.003906 0.1875-0.39844 5.7031 0.59375 1.1016c0.054687 0.097656 0.089844 0.20703 0.10938 0.31641l0.52734 3.0547 0.015626 0.17578v0.85547h2.0859l0.089844-1.3945c-0.1875-0.09375-0.34766-0.24219-0.45703-0.44922l-1.1562-2.2109c-0.15625-0.29688-0.16016-0.65234-0.011719-0.94922l1.1602-2.3164c0.078125-0.16406 0.20312-0.30078 0.35156-0.40234l2.5273-1.6836 0.19531-0.10156 7.9102-3.125 3.125-1.9883 0.83984-1.9102c-0.44141-0.18359-0.71875-0.66406-0.61328-1.1719l1.125-5.4336-0.28906-3.6445c-0.39844-0.074219-0.75-0.375-0.83984-0.82422l-0.60547-3.043-0.90234-1.9961c-0.054688-0.125-0.085938-0.25781-0.089844-0.39063l-0.089844-2.5078-1.8828-1.707c-0.25781-0.23047-0.38281-0.57812-0.33203-0.92188l0.52734-3.582c0.046875-0.33594 0.25781-0.625 0.5625-0.77734l1.3047-0.65234 4.8164-5.2305c0.19922-0.21484 0.47656-0.33594 0.76953-0.33594h1.6094l0.37109-0.92188c0.039062-0.10156 0.089844-0.19141 0.16016-0.27344l4.2109-5.1602c0.09375-0.11328 0.21094-0.20703 0.34375-0.27344l7.4766-3.6875c0.078125-0.039062 0.16406-0.066406 0.25-0.085937l2.8008-0.57812 4.5469-3.7578 4.2188-5.625 0.73047-3.0039-0.75391-2.7422-0.63281-1.8945c-0.035156-0.10547-0.054687-0.21484-0.054687-0.32812v-5.9531l-0.20703-4.4531-0.82422-4.2383c-0.046875-0.22656-0.015625-0.46094 0.089844-0.66797l1.3711-2.7461z" fill-rule="evenodd"/>
</svg>
