<?xml version="1.0" encoding="UTF-8"?>
<svg width="100pt" height="100pt" version="1.1" viewBox="0 0 100 100" xmlns="http://www.w3.org/2000/svg">
 <path d="m5.1289 41.188-2.4141-1.5039c-0.30469-0.19141-0.49219-0.52344-0.49219-0.88672v-6.2266c0-0.42578 0.25781-0.80469 0.64844-0.96484l0.22656-0.09375c-0.21875-0.33594-0.22266-0.77344-0.011718-1.1172l0.70703-1.1406c0.32422-0.51953 1.0273-0.65234 1.5156-0.28125l2.3711 1.7969h0.46484l0.82812-0.64453c0.37891-0.29688 0.91406-0.29688 1.2891 0.003906l3.375 2.6758c0.085937 0.070312 0.16016 0.15234 0.22266 0.24609l1.6484 2.5156h1.4688c0.53906 0 0.98828 0.41016 1.0352 0.94922l0.11719 1.3164c0.054688 0.60938-0.42578 1.1328-1.0391 1.1328h-1.1016v0.28906l1.3086 0.71875 2.543-0.32031c0.054687-0.007813-0.16016-0.35547-0.65625-1.043-0.46875-0.53516-0.27344-1.3711 0.38281-1.6484l2.0078-0.83594c0.43359-0.17969 0.9375-0.046875 1.2266 0.32812l2.1953 2.8594 1.8984 3.0039 4.8047 0.53906 4.4922-1.6523c0.054688-0.019531 0.59375-0.085937 1.6172-0.20312l2.3711-1.9375 3.4023-2.0352c0.10547-0.0625 0.22266-0.10547 0.34375-0.12891l5.4062-1.0039 2.8359-2.8281c0.054687-0.058594 0.11719-0.10938 0.1875-0.14844l1.9961-1.2344 2.2031-0.85547 0.81641-1.5195c0.18359-0.33594 0.53516-0.54688 0.91797-0.54688h1.457c0.33594 0 0.65625 0.16406 0.85156 0.44141l0.28516 0.41016 3.457 0.46875 4.5859-0.17969c1.0352-0.039063 1.4727 1.2734 0.66797 1.875l1.0195 0.25781 1.7266-0.47266c0.125-0.03125 0.25391-0.042969 0.38672-0.027344l3.2891 0.35938c0.089844 0.011719 0.17969 0.03125 0.26172 0.066407l5.6484 2.2031 3.4102 1.4883c0.09375 0.039062 0.17969 0.09375 0.25781 0.15625l3.4375 2.9023c0.09375 0.078124 0.17188 0.17187 0.23438 0.27734l1.3047 2.2812 2.6641 1.7812c0.28906 0.19141 0.46484 0.51562 0.46484 0.86719v0.33984l0.42969 0.31641h1.6055c0.75781 0 1.2617 0.78516 0.94531 1.4727l-1.0703 2.3555c0.31641 0.1875 0.47656 0.37891 0.55859 0.60547l0.67578 1.8945c0.51562 0.03125 0.86719 0.28906 1.0156 0.66797l0.96094 2.4492c0.050782 0.12109 0.074219 0.25 0.074219 0.38281v1.6602l0.89453 1.2188c0.44531 0.60156 0.12891 1.4609-0.60156 1.6289l-2.0469 0.47656v1.3008c0 0.27344-0.10938 0.53516-0.30078 0.73047l-3.5156 3.5859c-0.40625 0.41406-1.0781 0.41406-1.4844 0l-0.5-0.50781-0.55078 1.8359c-0.16406 0.53516-0.71484 0.84766-1.2539 0.71094l-0.53906-0.13672-1.2227 3.1328c-0.27734 0.70703-1.1914 0.89063-1.7188 0.34766l-4.6562-4.8047c-0.066407-0.066406-0.12109-0.14453-0.16406-0.22656l-3.4492-6.293-0.074218-0.17578-0.94922-2.8672c-0.25-0.75391 0.40234-1.5 1.1836-1.3516l0.53516 0.10156 1.0156-0.65625-0.44531-0.64453c-0.29688-0.42969-0.23047-1.0117 0.15625-1.3633l0.87109-0.79297c0.10156-0.09375 0.21875-0.16406 0.34766-0.21094l0.50781-0.17969 0.078125-0.26172-0.67188-0.14453-0.80859 1.0742c-0.38281 0.50781-1.125 0.55859-1.5742 0.10547l-2.1211-2.1406c-0.19531-0.19531-0.30078-0.46094-0.30078-0.73438v-1.8359l-5.3906-2.7578c-0.21484-0.11328-0.38281-0.29297-0.48047-0.51562l-0.54687-1.2656-3.7656-1.5352h-4.4688l-1.0742 1.8047c-0.1875 0.31641-0.52734 0.50781-0.89453 0.50781h-1.5391l-0.58203 1.0508-0.26172 1.4062 0.26953 0.60547c0.20703 0.45312 0.058594 0.99219-0.35156 1.2773l-7.4141 5.1914c-0.16016 0.11328-0.34766 0.17969-0.54297 0.1875l-2.9258 0.15234-0.55469 0.83984c0.070312 0.57812 0.11328 1.0391 0.13281 1.3867 0.36328 0.18359 0.89844 0.37891 1.6289 0.58594 0.41016 0.11719 0.71094 0.47266 0.75391 0.89844l0.125 1.2773 1.2695 0.67188c0.10938 0.054688 0.21094 0.13281 0.29297 0.22656l1.9102 2.1445 1.832 2.543c0.12891 0.17578 0.19531 0.38672 0.19531 0.60547v1.3984c0 0.44922-0.28906 0.84766-0.71484 0.98828l-3.1289 1.0234c-0.16016 0.054687-0.33203 0.066406-0.49609 0.039062l-1.1484-0.19141-1.8164 2.6172c-0.17188 0.25-0.44531 0.41406-0.75 0.44531l-6.9453 0.70703c-0.19141 0.019531-0.38281-0.011719-0.55469-0.09375l-1.8594-0.89062c-0.56641-0.27344-0.76953-0.98047-0.42578-1.5078l0.65625-1.0117-2.6992-6.2109-0.42578 1.8555c-0.13672 0.58594-0.73438 0.93359-1.3086 0.76562l-4.7344-1.3906c-0.26953-0.078125-0.49219-0.25781-0.625-0.50391l-3.7891-6.9883-4.3594-0.90234-0.49219 0.31641c-0.19922 0.125-0.43359 0.17969-0.66797 0.15625l-5.2617-0.53906c-0.15234-0.015625-0.29297-0.0625-0.42188-0.14062l-1.9102-1.1172-3.5508-0.27734v3.5859c0 0.57422-0.46875 1.043-1.043 1.043h-0.70703c-0.48438 0-0.90625-0.33594-1.0156-0.8125l-0.64453-2.8047-0.73828-0.77344-1.1094-0.9375c-0.47656-0.40625-0.49219-1.1367-0.03125-1.5625l2.125-1.9609c0.16406-0.15234 0.37109-0.24609 0.58984-0.26953l0.67187-0.078125v-1.4336l-1.1094-1.8633c-0.1875-0.31641-0.19531-0.70703-0.019532-1.0273l0.70703-1.3047c0.070312-0.12891 0.16797-0.24219 0.28516-0.33203zm0.58984-9.2891c0.039062 0.4375-0.20312 0.87891-0.64453 1.0586l-0.76562 0.3125v4.9492l3.2031 1.9961c0.62109 0.38672 0.66406 1.2695 0.082031 1.7109l-2.4688 1.8828-0.32031 0.58984 0.95312 1.5977c0.09375 0.16016 0.14453 0.34766 0.14453 0.53516v2.6484c0 0.53125-0.39844 0.97656-0.92188 1.0352l-1.2578 0.14453-1.0156 0.93359 0.28906 0.24609 0.64062 0.66406v-0.12109c0-0.44141 0.28125-0.83594 0.69531-0.98047l1.0234-0.36328c0.14453-0.050781 0.29297-0.066406 0.44531-0.054687l3.9102 0.36328c0.15234 0.011719 0.30078 0.058594 0.43359 0.13672l2.0938 1.2383-0.42188-0.14062 4.9023 0.50391 0.53906-0.34375c0.23047-0.14844 0.50781-0.19922 0.77344-0.14453l5.2539 1.0859c0.30078 0.058594 0.55859 0.25391 0.70312 0.52344l3.8125 7.0352 3.2617 0.95703 0.5625-2.457c0.074219-0.32031 0.29297-0.58594 0.59375-0.71875l1.6836-0.75391c0.72266-0.32031 1.5312 0.25391 1.4609 1.043l-0.16016 1.7969 2.8984 6.6719c0.13672 0.32031 0.10547 0.6875-0.082031 0.98047l-0.31641 0.48828 0.52734 0.25 6.1797-0.62891 1.9219-2.7695c0.22656-0.33203 0.62891-0.5 1.0273-0.43359l1.543 0.25781 2.168-0.6875-0.007812-0.33984-1.5273-2.1289-1.75-1.9609-1.6016-0.84375c-0.30859-0.16406-0.51562-0.47266-0.55078-0.82031l-0.10937-1.1367c-1.6875-0.53125-2.4492-1.0312-2.4492-2.0156 0-0.30469-0.058594-0.94531-0.17578-1.8828-0.03125-0.24609 0.027343-0.49609 0.16406-0.70312l1.0586-1.5977c0.17969-0.27344 0.48438-0.44922 0.8125-0.46484l3.1484-0.16406 6.4688-4.5273-0.054687-0.11719c-0.085938-0.19531-0.11328-0.41016-0.074219-0.61719l0.35547-1.8945c0.019531-0.10938 0.058594-0.21484 0.11328-0.3125l0.96094-1.7344c0.18359-0.32812 0.53125-0.53516 0.91016-0.53516h1.5586l1.0781-1.8047c0.1875-0.31641 0.52734-0.50781 0.89453-0.50781h5.2617c0.13672 0 0.26953 0.023437 0.39453 0.078125l4.3516 1.7695c0.25 0.10156 0.45312 0.30078 0.5625 0.55078l0.56641 1.3164 5.6211 2.8789c0.34766 0.17969 0.56641 0.53516 0.56641 0.92578v2.043l0.97656 0.98438 0.48438-0.64062c0.24219-0.32422 0.64844-0.47656 1.043-0.39062l2.4219 0.50781c0.59766 0.125 0.95703 0.73438 0.78516 1.3164l-0.54688 1.8477c-0.09375 0.32031-0.33594 0.57422-0.64453 0.6875l-0.88281 0.28516 0.5625 0.82031c0.33594 0.48438 0.20312 1.1445-0.28906 1.4648l-2.2617 1.4727c-0.011719 0.007812 0.11719 0.47266 0.39062 1.3984l3.3359 6.0898 3.4297 3.5391 0.96875-2.4805c0.19141-0.48828 0.71484-0.76172 1.2266-0.63281l0.46094 0.11719 0.77344-2.5664c0.23047-0.75781 1.1875-0.99219 1.7422-0.42969l0.98828 1.0039 2.4727-2.5234v-1.6992c0-0.48828 0.33594-0.90625 0.80859-1.0156l1.3086-0.30469-0.16016-0.21875c-0.12891-0.17969-0.20312-0.39453-0.20312-0.61719v-1.8086l-0.64453-1.6484c-0.54297-0.03125-0.90625-0.30078-1.0469-0.69531l-0.78516-2.1875-0.58984-0.35156c-0.45703-0.26953-0.63281-0.84375-0.41406-1.3281l0.78516-1.7266h-0.32812c-0.22266 0-0.4375-0.074218-0.61719-0.20703l-1.1289-0.83203c-0.26562-0.19922-0.42187-0.50781-0.42187-0.83984v-0.30859l-2.4062-1.6055c-0.13281-0.089844-0.24609-0.20703-0.32422-0.34766l-1.3398-2.332-3.1836-2.6875-3.2344-1.4141-5.4805-2.1367-2.9531-0.32422-1.8008 0.49219c-0.17188 0.046874-0.35547 0.046874-0.53125 0.003906l-2.1328-0.54297c-0.15625-0.039063-0.30469-0.11719-0.42969-0.22656l-0.86328-0.75391c-0.16406-0.14453-0.26953-0.32812-0.32031-0.51953l-2.2891 0.085937-4.1758-0.54687c-0.28906-0.039063-0.54688-0.19922-0.71484-0.4375l-0.23438-0.33594h-0.29297l-0.70312 1.3164c-0.12109 0.22266-0.31641 0.39062-0.55078 0.48047l-2.293 0.86719-1.8125 1.1172-2.9766 2.9727c-0.14844 0.14844-0.33984 0.24609-0.54297 0.28516l-5.543 1.0312-3.0508 1.8125-2.5508 2.082c-0.15625 0.12891-0.34766 0.20703-0.54688 0.23047l-1.5508 0.16406-4.6016 1.6914c-0.15234 0.054688-0.3125 0.074219-0.47266 0.058594l-5.5508-0.62109c-0.3125-0.035156-0.59766-0.21094-0.76562-0.47656l-2.1094-3.3516-0.40234-0.5 0.28125 0.60156c0.35938 0.75391-0.27734 1.6016-1.1055 1.4727l-2.1133-0.33984-2.7266 0.34375c-0.21875 0.027344-0.44141-0.015625-0.63281-0.12109l-2.1445-1.1797c-0.33594-0.18359-0.54297-0.53125-0.54297-0.91406v-1.9453c0-0.24609 0.089844-0.47656 0.23438-0.65625-0.015625-0.019531-0.65625-0.99609-1.9258-2.9336l-2.6016-2.0625-0.46094 0.36328c-0.18359 0.14453-0.41016 0.22266-0.64453 0.22266h-1.1758c-0.22656 0-0.44922-0.074219-0.62891-0.21484z" fill-rule="evenodd"/>
</svg>
