<?xml version="1.0" encoding="UTF-8"?>
<svg width="100pt" height="100pt" version="1.1" viewBox="0 0 100 100" xmlns="http://www.w3.org/2000/svg">
 <path d="m47.492 4.3008-1.4492-2.0234c-0.44141-0.62109-0.089844-1.4961 0.66406-1.6289l3.4609-0.63281c0.38281-0.070312 0.77344 0.082031 1.0117 0.39062l4.1641 5.3984 4.457 3.3789c0.14453 0.10938 0.25781 0.25391 0.32812 0.42188l1.0977 2.5664 5.5039-0.82422 0.15234-0.011718h3.7812c0.17188 0 0.34766 0.042968 0.5 0.125l4.8789 2.6797c0.53516 0.28906 0.70312 0.97656 0.37109 1.4844l-2.0859 3.168h0.26953c0.35938 0 0.69141 0.18359 0.88281 0.48828l2.0469 3.2422c0.37891 0.60937 0.050781 1.4102-0.64844 1.5742l-2.0469 0.46875c-0.089843 0.023438-0.18359 0.03125-0.27734 0.027344l-3.7266-0.14844-6.9141 2.5547-1.8516 1.3203-1.7812 4.2461 0.66406 1.9922c0.16016 0.47266-0.042968 0.99219-0.47656 1.2344l-3.1328 1.7734-0.25 3.6484 4.3633 6.4727c0.11719 0.17188 0.17969 0.375 0.17969 0.58203v1.1289l2.7148 0.35547c0.40234 0.054688 0.73828 0.33594 0.85938 0.72266l0.55859 1.7891h3.3008l3.8203-2.793c0.71484-0.52344 1.7188 0.035156 1.6523 0.92188l-0.57031 7.5547 0.61719 0.22266 1.2031-0.48047c0.125-0.050781 0.25391-0.074218 0.38672-0.074218h2.2031c0.37109 0 0.71484 0.19531 0.89844 0.51562l4.8828 8.3438c0.13672 0.23438 0.17578 0.51172 0.10938 0.77734l-1.6641 6.6562 0.55469 1.9375c0.089844 0.3125 0.027344 0.65625-0.17188 0.91406l-2.1641 2.8359 0.72656 1.8164c0.10938 0.27344 0.097656 0.58594-0.035156 0.85156l-0.83594 1.668v1.7031l2.3125 0.85156c0.67578 0.25 0.89844 1.0977 0.43359 1.6484l-3.7812 4.4844 0.26953 0.46875c0.23438 0.40625 0.16406 0.92188-0.16797 1.2539l-1.582 1.582v1.6172c0 0.40234-0.23438 0.76953-0.59766 0.94141l-2.9922 1.4141c-0.35937 0.17187-0.78906 0.12109-1.0977-0.12891l-4.8789-3.9375c-0.14453-0.11328-0.25391-0.26562-0.32031-0.43359l-0.64844-1.6836-14.805-7.8672-4.3281-2.5195c-0.085938-0.050781-0.16797-0.11328-0.23438-0.1875l-5.9023-6.2969c-0.21875-0.23047-0.32031-0.55078-0.27344-0.86328l0.57031-3.8438-4.4844-6.4297c-0.078125-0.10938-0.13281-0.23438-0.16406-0.36719l-0.54688-2.457-2.2109-1.6602c-0.18359-0.13672-0.31641-0.33594-0.37891-0.55859l-0.92188-3.375-5.7344-12.246-2.2852-2.8984-0.10938-0.16406-1.9297-3.7148-6.8789-4.8906c-0.27344-0.19531-0.4375-0.51172-0.4375-0.84766v-1.418c0-0.44922 0.28516-0.84766 0.71094-0.98828l0.21875-0.074219-0.79688-1.418-0.082031-0.17969-0.94141-2.8359c-0.058594-0.17578-0.070313-0.36328-0.03125-0.54688l0.47266-2.2031c0.039062-0.1875 0.12891-0.35938 0.25781-0.49609l2.5195-2.6758c0.058593-0.0625 0.12109-0.11719 0.19531-0.16016l2.6758-1.7344c0.58594-0.37891 1.375-0.082031 1.5664 0.58984l0.62891 2.2031c0.078125 0.26953 0.042968 0.55859-0.097656 0.80469l-0.58984 1.0352 0.4375 0.12109 2.832 0.78516c0.28516 0.078124 0.52344 0.27344 0.65234 0.53906l0.90625 1.8047 0.33984-0.066407 1.582-2.6367 1.2227-4.2734c0.046875-0.17188 0.14062-0.32812 0.26562-0.45312l2.2031-2.2031c0.11328-0.11328 0.25391-0.19922 0.40625-0.25l6.4219-2.1406 3.8242-3.2344 1.5508-2.4023 0.58984-2.3516c0.10547-0.41797 0.45703-0.73047 0.88672-0.78125l0.21094-0.023438zm1.2031-1.8984 0.61719 0.86719c0.085938 0.11719 0.14453 0.25 0.17188 0.39453l0.39453 1.8867c0.125 0.60156-0.28906 1.1758-0.89844 1.25l-0.62109 0.070313-0.45703 1.8203c-0.027344 0.11328-0.074219 0.21875-0.13672 0.31641l-1.7305 2.6758c-0.054687 0.085937-0.125 0.16406-0.20312 0.22656l-4.0938 3.4648c-0.097656 0.085938-0.21484 0.15234-0.33984 0.19141l-6.3789 2.1289-1.8398 1.8398-1.1875 4.1484c-0.023438 0.085937-0.058594 0.16797-0.10547 0.24609l-1.8906 3.1484c-0.15234 0.25391-0.40234 0.42969-0.6875 0.48828l-1.5742 0.3125c-0.46094 0.09375-0.92578-0.13281-1.1367-0.55469l-1.0547-2.1055-2.3828-0.66016-1.7305-0.47266c-0.65625-0.17969-0.96875-0.92969-0.62891-1.5234l1.0391-1.8203-0.12109-0.42969-1.3906 0.89844-2.2305 2.3711-0.35156 1.6445 0.82031 2.4688 1.3711 2.4297c0.32031 0.57031 0.039062 1.293-0.58203 1.5l-0.70312 0.23438v0.12891l6.6484 4.7266c0.13281 0.09375 0.24219 0.22266 0.32031 0.36719l2 3.8477 2.3008 2.9141c0.046875 0.0625 0.089844 0.13281 0.125 0.20312l5.8242 12.438 0.0625 0.16797 0.84766 3.1172 2.2344 1.6758c0.19922 0.14844 0.33984 0.36328 0.39062 0.60938l0.58594 2.6289 4.6055 6.6016c0.15234 0.21875 0.21484 0.48438 0.17578 0.75l-0.55469 3.75 5.4531 5.8203 4.1641 2.4219 15.113 8.0273c0.21875 0.12109 0.39062 0.3125 0.48047 0.54687l0.6875 1.7852 4.1523 3.3516 1.8047-0.85547v-1.3867c0-0.27734 0.10938-0.54297 0.30469-0.73828l1.3281-1.3242-0.23438-0.41406c-0.21875-0.37891-0.17578-0.85156 0.10547-1.1875l3.293-3.9023-1.5938-0.58594c-0.41016-0.15234-0.68359-0.54297-0.68359-0.98047v-2.6758c0-0.16016 0.039062-0.32031 0.10938-0.46484l0.73438-1.4727-0.76953-1.9258c-0.13672-0.33984-0.082031-0.72656 0.14062-1.0156l2.1992-2.8906-0.48437-1.7031c-0.050782-0.17578-0.054688-0.36328-0.007813-0.53906l1.6289-6.5156-4.3672-7.4609h-1.4062l-1.3867 0.55469c-0.23828 0.097656-0.5 0.10156-0.74219 0.011719l-1.7305-0.62891c-0.44141-0.16016-0.71875-0.58984-0.68359-1.0586l0.46094-6.0898-2.2695 1.6602c-0.17969 0.12891-0.39453 0.19922-0.61719 0.19922h-4.4062c-0.45703 0-0.85938-0.29688-0.99609-0.73047l-0.58594-1.8828-2.9609-0.38672c-0.51953-0.066406-0.90625-0.50781-0.90625-1.0312v-1.7305l-4.3867-6.5039c-0.13281-0.19141-0.19141-0.42188-0.17578-0.65625l0.3125-4.5625c0.023437-0.35156 0.22266-0.66406 0.52734-0.83594l2.875-1.625-0.51562-1.5469c-0.082032-0.23828-0.070313-0.5 0.027344-0.73047l2.0469-4.8828c0.074219-0.17578 0.19531-0.33203 0.35547-0.44531l2.2031-1.5742c0.074219-0.050781 0.15625-0.097656 0.24219-0.12891l7.2422-2.6758c0.12891-0.046875 0.26562-0.070313 0.40234-0.0625l3.7969 0.15234 0.48047-0.11328-0.95703-1.5195h-1.6289c-0.82812 0-1.3281-0.91797-0.87109-1.6133l2.5273-3.8398-3.6562-2.0039h-3.4336l-6.2188 0.93359c-0.46875 0.070313-0.92578-0.18359-1.1133-0.62109l-1.3086-3.0508-4.3438-3.2969c-0.074218-0.058593-0.14062-0.12109-0.19531-0.19531l-3.8633-5.0078z" fill-rule="evenodd"/>
</svg>
