<?xml version="1.0" encoding="UTF-8"?>
<svg width="100pt" height="100pt" version="1.1" viewBox="0 0 100 100" xmlns="http://www.w3.org/2000/svg">
 <path d="m74.262 68.004c-0.15234-0.65234 0.34375-1.2773 1.0117-1.2773h1.2891c0.24609 0 0.48438 0.085938 0.67188 0.24219l5.1445 4.3438c0.17578 0.14844 0.29688 0.34766 0.34375 0.57031l2.5742 11.738c0.039063 0.17969 0.03125 0.36328-0.023437 0.53516l-2.5742 8.1992c-0.25391 0.81641-1.3281 0.99219-1.832 0.30469l-2.2578-3.0898-0.85547 1.0508 1.8672 4.7383c0.14062 0.35938 0.074218 0.76562-0.17578 1.0586l-2.7344 3.2148c-0.31641 0.37109-0.84766 0.47266-1.2773 0.24609l-6.1602-3.2422-4.0195-2.4141c-0.3125-0.1875-0.50781-0.52734-0.50781-0.89062v-5.4688c0-0.15234 0.035156-0.30078 0.097656-0.44141l0.76953-1.6445-2.8828-2.1602-1.3438 2.3516c-0.18359 0.32422-0.53125 0.52734-0.90234 0.52734h-3.2148c-0.34375 0-0.66406-0.16797-0.85938-0.44922l-0.55469-0.80078-2.5312 3.9805c-0.25781 0.40234-0.75781 0.58203-1.2109 0.42969l-2.4102-0.80469c-0.54297-0.17969-0.83984-0.76562-0.66016-1.3086l2.4102-7.3984c0.11328-0.34375 0.39844-0.60938 0.75391-0.69141l4.2734-0.99609 1.0938-3.0078c0.15234-0.41016 0.54297-0.68359 0.98047-0.68359h5.4648c0.50391 0 0.9375 0.35938 1.0273 0.85547l0.48438 2.6797h0.64062l1.207-3.4805c0.11719-0.33594 0.39844-0.58984 0.74609-0.67187l7.1836-1.6914zm3.3125 4.9922c0.13281 0.55859-0.21484 1.1211-0.77344 1.25l-7.6406 1.8008-1.2617 3.6367c-0.14453 0.41797-0.53906 0.69922-0.98438 0.69922h-2.25c-0.50391 0-0.93359-0.35937-1.0234-0.85547l-0.48828-2.6797h-3.8672l-1.0391 2.8516c-0.12109 0.33203-0.39844 0.57812-0.74219 0.65625l-4.25 0.99219-1.9102 5.8555 0.66016 0.21875 2.9375-4.6172c0.40234-0.62891 1.3125-0.64844 1.7344-0.035157l1.1367 1.6406h2.0664l1.6289-2.8516c0.3125-0.54297 1.0273-0.69141 1.5312-0.31641l4.5 3.3789c0.39453 0.29297 0.52734 0.82422 0.32031 1.2734l-1.0273 2.1992v4.6484l3.4609 2.0781 5.3711 2.8281 1.7891-2.1055-1.8594-4.7227c-0.14062-0.35156-0.078125-0.75 0.16016-1.0391l2.0898-2.5742c0.42969-0.53125 1.2461-0.50781 1.6484 0.042969l1.8398 2.5156 1.8711-5.9688-2.4375-11.121-4.0742-3.4375zm-24.469-3.4297c-0.3125-0.23438-0.46484-0.62109-0.40234-1.0078l0.48047-2.8945c0.070312-0.41797 0.39062-0.75 0.80469-0.84375l1.4648-0.32422 0.29688-2.1211h-2.9922l-2.1484 1.4336c-0.72266 0.48438-1.6875-0.082032-1.6133-0.95312l0.80078-9.6406 0.23828-3.0547c0.074219-0.92969 1.2383-1.3047 1.8359-0.58984l3.4688 4.1328h3.8555c0.57813 0 1.043 0.46484 1.043 1.0391v3.0078l0.79297 0.33203 4.0742 0.78125c0.48828 0.097657 0.84375 0.52734 0.84375 1.0234v3.293l2.7422 1.7852c0.49219 0.32031 0.625 0.98438 0.28906 1.4648l-2.0117 2.8945c-0.23828 0.34375-0.66016 0.51172-1.0703 0.42578l-3.6875-0.77734-1.6289 4.6094c-0.1875 0.52344-0.75391 0.80859-1.2852 0.64844l-2.6523-0.80469c-0.44141-0.13281-0.73828-0.53906-0.73828-0.99609v-0.76563zm4.4648 0.74219c0.26172 0.19922 0.41797 0.50781 0.41797 0.83594v0.51172l0.96094 0.29297 1.6016-4.5312c0.17188-0.49219 0.68359-0.77734 1.1953-0.67188l3.9062 0.82422 1.0039-1.4453-2.3164-1.5039c-0.29297-0.19141-0.47266-0.52344-0.47266-0.875v-2.9961l-3.3359-0.64453-0.20703-0.0625-1.5312-0.64062c-0.38672-0.16406-0.63672-0.54297-0.63672-0.96094v-2.6562h-3.3008c-0.30859 0-0.59766-0.13672-0.79688-0.37109l-2.1445-2.5508-0.039062 0.51953-0.625 7.4961 0.61719-0.41016c0.17187-0.11328 0.37109-0.17578 0.57812-0.17578h4.5c0.63281 0 1.1211 0.55859 1.0312 1.1875l-0.5625 4.0195c-0.058593 0.42969-0.37891 0.77734-0.80469 0.87109l-1.4844 0.33203-0.26172 1.5742zm-18.609-29.301 7.2344 1.2891c0.40234 0.070313 0.72266 0.36719 0.82422 0.76172l1.6094 6.1953c0.12109 0.46875-0.097656 0.95703-0.52344 1.1836l-3.3789 1.7695c-0.48828 0.25391-1.0977 0.082031-1.3789-0.39453l-5.4648-9.2461c-0.45312-0.76953 0.19922-1.7148 1.0781-1.5586zm5.6758 8.8945 1.7695-0.92578-1.2344-4.7461-4.3438-0.77344zm-6.7734-31.465 0.83594-8.875v-6.5898c0-0.32812 0.15625-0.63672 0.41797-0.83594l2.5742-1.9297c0.23047-0.17578 0.52734-0.24219 0.81641-0.1875l10.289 1.9258c0.49219 0.09375 0.85156 0.52344 0.85156 1.0273v6.2812l1.9219 2.957c0.16406 0.25391 0.21094 0.57031 0.125 0.86328l-2.0898 7.0742c-0.082031 0.27344-0.27344 0.50391-0.52734 0.63281l-3.2891 1.6797-0.54687 4.3594 1.2891 3.793 0.042969 0.15625 0.57422 3.3164h1.0234l1.7852-1.7852c0.32031-0.31641 0.80469-0.39453 1.2031-0.19531l4.1094 2.0547 5.3438 1.7344 1.9727-1.582c0.48437-0.38672 1.2031-0.26562 1.5352 0.26172l1.6055 2.5742c0.28125 0.44922 0.17969 1.0352-0.23047 1.3633l-3.375 2.7031 1.2109 2.5469 1.2461 1.7383h5.5703c0.3125 0 0.60937 0.14062 0.80469 0.38281l2.25 2.7305c0.15625 0.1875 0.23828 0.42188 0.23828 0.66406v5.2695l2.0312 2.6133c0.48047 0.61328 0.13672 1.5195-0.62891 1.6602l-4.0117 0.75391 1.2812 4.3594c0.16016 0.54688-0.14453 1.1172-0.68359 1.2891l-3.5352 1.125c-0.58594 0.18359-1.2031-0.16797-1.3359-0.76562l-1.1016-4.9727h-1.418c-0.57422 0-1.0391-0.46875-1.0391-1.043v-5.6289c0-0.1875 0.050781-0.37109 0.14844-0.53516l0.71094-1.1875-0.77734-0.55469-1.5508 1.4336c-0.35938 0.33594-0.90234 0.37109-1.3047 0.089844l-2.8047-1.9609-2.2539 0.66016c-0.82031 0.24219-1.5664-0.55469-1.2695-1.3594l1.6094-4.3438c0.035157-0.10156 0.089844-0.19531 0.15625-0.28125l1.0977-1.3945-4.0586-2.9258v1.8281c0 0.91797-1.1016 1.3867-1.7656 0.75l-3.8633-3.7109-3.1641-1.1875-1.6484 1.082c-0.30859 0.20312-0.70312 0.22656-1.0352 0.0625l-4.8242-2.4141c-0.35156-0.17578-0.57422-0.53516-0.57422-0.92969v-3.5195l-3.6289-2.9023c-0.18359-0.14844-0.3125-0.34766-0.36328-0.57422l-2.7344-11.578c-0.1875-0.79688 0.57813-1.4922 1.3516-1.2227zm4.7109-16.289-1.7891 1.3438-0.003906 6.168-0.96484 10.289c-0.066406 0.67188-0.73828 1.1094-1.3789 0.89062l-2.875-0.99219 2.2188 9.3867 3.7383 2.9883c0.24609 0.19922 0.39062 0.5 0.39062 0.81641v3.375l3.7109 1.8555 1.5898-1.043c0.27734-0.17969 0.625-0.21875 0.9375-0.10156l3.8594 1.4453c0.12891 0.050782 0.25 0.125 0.35547 0.22266l2.2539 2.168v-1.4141c0-0.85156 0.96094-1.3438 1.6523-0.84766l6.5898 4.7461c0.48047 0.34766 0.57812 1.0234 0.21094 1.4922l-1.668 2.1211-0.82812 2.2422 0.74219-0.21875c0.30078-0.089843 0.62891-0.035156 0.89062 0.14453l2.5273 1.7695 1.5547-1.4414c0.36328-0.33594 0.91406-0.37109 1.3164-0.085938l2.25 1.6094c0.44141 0.31641 0.56641 0.91797 0.28516 1.3828l-1.0586 1.7656v4.2969h1.2109c0.48828 0 0.91016 0.33984 1.0156 0.81641l1.0391 4.6758 1.4805-0.46875-1.3203-4.4922c-0.17578-0.58984 0.19922-1.2031 0.80859-1.3164l3.4648-0.64844-1.2031-1.5469c-0.14062-0.18359-0.21875-0.40625-0.21875-0.64062v-5.2539l-1.6992-2.0625h-5.6211c-0.33594 0-0.65234-0.16406-0.84766-0.4375l-1.6055-2.25-0.09375-0.16016-1.6094-3.375c-0.20703-0.4375-0.085937-0.95703 0.28906-1.2617l3.2969-2.6367-0.49609-0.79297-1.4961 1.1992c-0.27344 0.21875-0.64062 0.28516-0.97266 0.17578l-5.9492-1.9297-0.14453-0.058594-3.5078-1.7539-1.5625 1.5586c-0.19531 0.19531-0.45703 0.30469-0.73438 0.30469h-2.3359c-0.50781 0-0.9375-0.36328-1.0273-0.86328l-0.70703-4.0977-1.3398-3.9453c-0.050781-0.14844-0.070312-0.30859-0.050781-0.46484l0.64453-5.1445c0.042969-0.33984 0.25391-0.64062 0.5625-0.79688l3.3828-1.7266 1.8242-6.1836-1.8281-2.8164c-0.10938-0.16797-0.16797-0.36328-0.16797-0.56641v-5.7266zm-11.066 52.301c0.16406-0.55078 0.74219-0.86719 1.293-0.70703l2.7344 0.80469c0.39062 0.11719 0.67578 0.44531 0.73438 0.84766l1.043 7.0742c0.046875 0.32812-0.0625 0.65625-0.29297 0.89062l-8.7461 8.7383-9.4844 8.0391c-0.29297 0.24609-0.69531 0.31641-1.0508 0.17578l-2.4883-0.96484c-0.67969-0.26172-0.88672-1.1211-0.40234-1.6641l8.1992-9.1641 6.4375-7.2227zm-13.594 23.699 8.9492-7.582 8.3125-8.3125-0.86719-5.8945-1.0977-0.32422-1.7969 6.0781c-0.042968 0.14844-0.11719 0.28125-0.21875 0.39844l-6.5938 7.3945-7.1953 8.043z" fill-rule="evenodd"/>
</svg>
