<?xml version="1.0" encoding="UTF-8"?>
<svg width="100pt" height="100pt" version="1.1" viewBox="0 0 100 100" xmlns="http://www.w3.org/2000/svg">
 <path d="m71.457 12.648 0.78125-1.2305c0.19141-0.29688 0.52344-0.48047 0.87891-0.48047h15.723c0.43359 0 0.82031 0.26562 0.97266 0.66797l2.0234 5.293c0.046874 0.12109 0.070312 0.24609 0.070312 0.375v6.9023l1.3711 7h0.54297c0.25391 0 0.5 0.089844 0.69141 0.25781l2.6133 2.3086 2.4883 2.0234c0.40234 0.32812 0.50391 0.90234 0.23828 1.3438l-1.8672 3.1133c-0.14453 0.24609-0.38281 0.41797-0.66016 0.48047l-3.4766 0.80469-0.4375 1.3125c-0.14453 0.42578-0.54297 0.71094-0.98828 0.71094h-1.6094l-0.46484 2.7812v1.3164c0 0.13281-0.023437 0.26562-0.074218 0.39062l-2.5547 6.3047 0.44531 5.1992c0.007813 0.089843 0.003907 0.17578-0.007812 0.26172l-0.46875 2.8008-0.03125 0.13672-2.0234 6.5391c-0.12109 0.39062-0.46094 0.67578-0.86719 0.72656l-1.9492 0.24219-1.7695 3.4062c-0.058594 0.10938-0.13281 0.20703-0.22266 0.29297l-1.4258 1.293-0.57813 4.7539c-0.023437 0.19922-0.10547 0.38672-0.23437 0.54297l-0.77734 0.93359c-0.33984 0.40625-0.93359 0.49609-1.3789 0.19922l-0.58984-0.39453-0.74609 0.97266v2.293c0 0.089843-0.011719 0.18359-0.039062 0.27344l-0.93359 3.4219c-0.12109 0.45312-0.53516 0.76953-1.0039 0.76953h-1.5586c-0.62891 0-1.1172-0.55859-1.0312-1.1836l0.39844-2.9258-3.6953-3.8398c-0.14844-0.15234-0.24609-0.34375-0.27734-0.55469l-0.78125-4.8242c-0.019531-0.13281-0.015625-0.26953 0.015625-0.39844l0.51562-2.2812-0.75-0.078125-0.050781 0.51562c-0.050782 0.53125-0.5 0.9375-1.0352 0.9375h-1.0469c0.042969 0.11328 0.0625 0.23438 0.0625 0.35938v3.0469l0.53906 0.64453c0.37891 0.45703 0.30078 1.1367-0.16797 1.4961l-3.1523 2.4023-3.4922 4.707c-0.19922 0.26172-0.50781 0.41797-0.83594 0.41797h-3.2695c-0.1875 0-0.37109-0.050782-0.53125-0.14453l-4.4766-2.6562-1.1016 0.58984-0.35547 1.4219c-0.11328 0.46484-0.53125 0.78906-1.0078 0.78906h-2.8047c-0.51562 0-0.95703-0.37891-1.0312-0.89453l-0.18359-1.2852h-4.6406l-0.10938 2.125c-0.027344 0.55469-0.48438 0.99219-1.0391 0.99219h-4.0742l-2.3672 0.58984c-0.082031 0.019531-0.16797 0.03125-0.25 0.03125h-2.0273c-0.43359 0-0.82031-0.26953-0.97266-0.67578l-0.83594-2.2227-1.332-1.0664c-0.24609-0.19922-0.39062-0.49609-0.39062-0.8125v-0.33984l-2.8984 0.45312v1.1328c0 0.36328-0.19141 0.70312-0.50391 0.89062l-1.5586 0.93359c-0.14062 0.085938-0.29688 0.13672-0.45703 0.14844l-6.3828 0.46484c-0.40625 0.03125-0.79297-0.17578-0.98828-0.53125l-2.2695-4.0898-2.5586-2.707c-0.25-0.26562-0.34375-0.64062-0.24609-0.99219l0.57031-2.0547-1.832-1.1445c-0.38672-0.24219-0.57031-0.70703-0.45312-1.1523l0.27344-1.0234h-0.046875c-0.57422 0-1.0391-0.46484-1.0391-1.043v-3.168l-0.22656-0.085937-1.0508 0.35156c-0.375 0.125-0.78516 0.027344-1.0664-0.25l-0.93359-0.93359c-0.33984-0.34375-0.40234-0.875-0.14844-1.2852l1.2422-2.0234c0.097656-0.15234 0.23047-0.28125 0.39062-0.36719l0.89844-0.49219-0.90234-2.2539c-0.16797-0.42188-0.042968-0.90234 0.30859-1.1914l2.082-1.7148-0.69141-1.9609c-0.1875-0.52734 0.078125-1.1055 0.59375-1.3125l1.1992-0.48047 1.3633-2.6016-0.23828-1.1953c-0.0625-0.31641 0.023437-0.64844 0.23828-0.89062l1.0898-1.2461c0.16797-0.19141 0.39844-0.3125 0.64844-0.34766l3.582-0.46484c0.13672-0.019532 0.27344-0.007813 0.40625 0.027343l0.39844 0.10938v-24.789c0-0.55469 0.43359-1.0117 0.98438-1.043l4.7891-0.25781 0.14063-11.324c0.007812-0.57031 0.47266-1.0273 1.043-1.0273h48.258c0.27734 0 0.53906 0.10938 0.73438 0.30469l1.4102 1.4062zm16.664 0.37109h-14.434l-0.78125 1.2305c-0.19141 0.30078-0.52344 0.48438-0.87891 0.48438h-2.3359c-0.27344 0-0.53906-0.10938-0.73438-0.30469l-1.4102-1.4102h-46.797l-0.14062 11.27c-0.007813 0.55078-0.4375 1-0.98828 1.0273l-4.7734 0.25781v25.168c0 0.6875-0.65234 1.1836-1.3164 1.0039l-1.5078-0.41016-2.9844 0.38672-0.49219 0.5625 0.21094 1.0547c0.046876 0.23438 0.011719 0.47656-0.097656 0.6875l-1.7148 3.2695c-0.11328 0.21875-0.30469 0.39062-0.53516 0.48438l-0.62891 0.25 0.60156 1.7031c0.14453 0.41406 0.019532 0.87109-0.32031 1.1523l-2.0586 1.6953 0.96094 2.4062c0.19922 0.48828-0.003906 1.0469-0.46484 1.3008l-1.4727 0.80078-0.5625 0.91406 0.58203-0.19141c0.22656-0.078125 0.47266-0.074219 0.69531 0.011719l1.2461 0.46484c0.40625 0.15234 0.67578 0.54297 0.67578 0.97656v2.8516h0.35938c0.68359 0 1.1836 0.64844 1.0078 1.3086l-0.42578 1.5898 1.8359 1.1523c0.39453 0.24219 0.57812 0.71484 0.45312 1.1602l-0.62109 2.2344 2.2422 2.375c0.058594 0.0625 0.11328 0.13281 0.15234 0.21094l2.0156 3.6211 5.4688-0.40234 0.83984-0.5v-1.4336c0-0.51562 0.375-0.95312 0.87891-1.0312l4.9844-0.77734c0.62891-0.097656 1.1992 0.39062 1.1992 1.0273v1.0586l1.168 0.92969c0.14453 0.11719 0.25781 0.27344 0.32422 0.44922l0.67969 1.8164h1.1758l2.3633-0.59375c0.085937-0.019531 0.16797-0.03125 0.25391-0.03125h3.2109l0.10938-2.125c0.027344-0.55078 0.48438-0.98828 1.0391-0.98828h6.5391c0.51562 0 0.95703 0.38281 1.0312 0.89453l0.18359 1.2852h1.0859l0.26953-1.0781c0.070313-0.28516 0.25781-0.52734 0.51562-0.66406l2.0234-1.0898c0.32031-0.17578 0.71094-0.16797 1.0273 0.019531l4.7344 2.8125h2.457l3.2695-4.4062c0.058594-0.078125 0.12891-0.14844 0.20703-0.20703l2.4023-1.832-0.082031-0.097656c-0.15625-0.1875-0.24219-0.42188-0.24219-0.66406v-2.9609l-1.2109-1.0938c-0.71094-0.63672-0.25781-1.8125 0.69531-1.8125h2.6367l0.0625-0.62109c0.058594-0.57422 0.57422-0.99219 1.1484-0.93359l2.957 0.3125c0.62109 0.066406 1.043 0.66016 0.90625 1.2656l-0.73438 3.2305 0.69531 4.3047 3.8203 3.9688c0.10547 0.10547 0.18359 0.23438 0.23047 0.375v-2.3008c0-0.23047 0.078126-0.45312 0.21875-0.63672l1.5547-2.0234c0.33594-0.43359 0.94922-0.53516 1.4062-0.23047l0.60547 0.40625 0.58203-4.8008c0.03125-0.25 0.14844-0.47656 0.33594-0.64453l1.5742-1.4336 1.9375-3.7266c0.15625-0.30469 0.45312-0.51172 0.79297-0.55469l1.8242-0.22656 1.8047-5.8281 0.43359-2.6016-0.45703-5.3203c-0.011719-0.16406 0.011718-0.32812 0.074218-0.48047l2.5703-6.3477v-1.1992l0.011719-0.17187 0.625-3.7344c0.082031-0.50391 0.51953-0.87109 1.0273-0.87109h1.7383l0.38672-1.1562c0.11328-0.34375 0.39844-0.60547 0.75391-0.68359l3.6172-0.83594 1.1758-1.9609-1.8242-1.4805-2.3516-2.0742h-1.0039c-0.5 0-0.92969-0.35156-1.0234-0.83984l-1.5586-7.9414-0.019532-0.19922v-6.8125z" fill-rule="evenodd"/>
</svg>
