<?xml version="1.0" encoding="UTF-8"?>
<svg width="100pt" height="100pt" version="1.1" viewBox="0 0 100 100" xmlns="http://www.w3.org/2000/svg">
 <path d="m84.387 17.766c0.45703 0.074219 0.80859 0.44141 0.86328 0.90234l1.1445 9.3516c0.015625 0.11328 0.007813 0.22656-0.015625 0.33984l-1.6953 8.1016v6.5352l3.1523 6.8555c0.0625 0.13672 0.09375 0.28516 0.09375 0.43359v19.277c0 0.57812-0.46484 1.043-1.043 1.043h-1.5273c-0.36328 0-0.70312-0.19141-0.89062-0.50391l-0.84375-1.4062h-2.1836v0.86719l-0.011718 0.14062-2.2812 17.109v12.145c0 0.57812-0.46484 1.043-1.0391 1.043h-26.531c-0.12109 0-0.24219-0.019531-0.35547-0.0625l-18.898-6.8711c-0.19922-0.074218-0.36719-0.20312-0.49219-0.375l-4.6992-6.5781-4.2969-3.7383c-0.09375-0.082031-0.17188-0.17969-0.23047-0.28516l-1.1445-2.1016c-0.15625-0.28125-0.17188-0.61719-0.042969-0.91016l1.0586-2.4727v-1.9805l-3.6445-3.125c-0.17188-0.14844-0.29297-0.34766-0.33984-0.57031l-0.44922-2.0625-2.918 1.9453c-0.55859 0.37109-1.3164 0.12891-1.5508-0.5l-0.57422-1.5273-0.054688-0.21484-0.95312-6.4883-0.011719-0.15234v-8.3984l0.007812-0.13672 0.95312-7.2539c0.015625-0.11328 0.050782-0.22656 0.10156-0.32812l1.5273-3.0547 0.10547-0.16797 1.832-2.3828 1.2852-2.9375c0.058593-0.13672 0.14844-0.25781 0.25781-0.35547l3.4766-3.1094 8.4453-17.266 0.73828-3.3164c0.042968-0.19922 0.14453-0.37891 0.28906-0.51953l7.7617-7.5742 2.4258-3.3594c0.14844-0.20312 0.35938-0.34766 0.60156-0.40625l5.5352-1.3359c0.28906-0.066406 0.59375-0.011719 0.83594 0.15625l24.137 16.652 5.3828-2.4297c0.48828-0.21875 1.0664-0.03125 1.332 0.43359l1.2812 2.2422zm-1.1094 1.9258-3.8125-0.63281c-0.30859-0.054688-0.57812-0.24219-0.73438-0.51172l-1.0586-1.8516-5.0508 2.2812c-0.33594 0.15234-0.72266 0.11719-1.0234-0.089843l-24.238-16.723-4.707 1.1367-2.2578 3.1211-0.11719 0.13672-7.6016 7.418-0.69531 3.1328c-0.019531 0.082031-0.046875 0.16016-0.082031 0.23047l-8.5898 17.562c-0.058594 0.12109-0.14062 0.22656-0.24219 0.31641l-3.457 3.0938-1.2461 2.8477c-0.03125 0.078125-0.074219 0.15234-0.125 0.21875l-1.8477 2.4023-1.4062 2.8047-0.92188 7.0117v8.2539l0.92578 6.3047 0.074219 0.19531 2.4531-1.6367v-0.39453c0-1.25 1.793-1.4414 2.0586-0.22266l0.87891 4.0469 3.7422 3.2109c0.23047 0.19531 0.36328 0.48438 0.36328 0.78906v2.6719c0 0.14062-0.027344 0.28125-0.082032 0.41016l-0.94531 2.207 0.8125 1.4922 4.25 3.6953c0.058594 0.054687 0.11328 0.11328 0.16406 0.17969l4.582 6.418 18.422 6.6992h25.305v-11.176l0.007813-0.13672 2.2812-17.109v-1.8398c0-0.57422 0.46875-1.043 1.043-1.043h3.8164c0.36719 0 0.70703 0.19141 0.89453 0.50781l0.73828 1.2266v-17.832l-3.1523-6.8555c-0.0625-0.13672-0.09375-0.28516-0.09375-0.4375v-6.8711l0.023438-0.21094 1.6797-8.0391z" fill-rule="evenodd"/>
</svg>
