<?xml version="1.0" encoding="UTF-8"?>
<svg width="100pt" height="100pt" version="1.1" viewBox="0 0 100 100" xmlns="http://www.w3.org/2000/svg">
 <path d="m9.7227 60.727 2.0547-1.1055c0.22656-0.12109 0.49219-0.15625 0.74609-0.09375l1.9805 0.49609c0.52734 0.13281 0.86328 0.64844 0.77344 1.1836l-0.66016 3.9609c-0.050782 0.3125-0.24219 0.58203-0.51563 0.73828l-2.2344 1.2578-0.72656 3.3398c-0.070313 0.33203-0.30078 0.60938-0.61719 0.73828l-1.9805 0.82812c-0.60547 0.25-1.293-0.11328-1.4219-0.75781l-0.58984-2.9492-0.22266-0.19141-1.1406 0.93359c-0.25 0.20703-0.57812 0.28125-0.89453 0.21094l-2.1445-0.49609c-0.23828-0.054687-0.44922-0.19141-0.59375-0.38281l-1.3203-1.7344c-0.35938-0.47266-0.25391-1.1445 0.23047-1.4844l4.1289-2.8906c0.089843-0.0625 0.19141-0.11328 0.29688-0.14453zm2.6875 0.92188-1.793 0.96484-0.19531 0.078125-4.793 1.4414-3.1016 2.168 0.4375 0.57422 1.2812 0.29688 1.418-1.1641c0.39063-0.32031 0.95703-0.3125 1.3398 0.015626l1.1562 0.99219c0.17578 0.14844 0.29688 0.35547 0.34375 0.58594l0.41016 2.0547 0.30859-0.12891 0.70703-3.2656c0.066406-0.28906 0.25-0.53906 0.50781-0.6875l2.207-1.2383 0.42188-2.5234zm35.922-34.219 2.1133 2.3633c0.30078 0.33594 0.35156 0.82812 0.125 1.2188l-2.3945 4.125c-0.29688 0.51562-0.96484 0.67578-1.4609 0.35547l-3.6836-2.3633c-0.55469-0.35156-0.64453-1.125-0.19141-1.5977l3.9648-4.1289c0.41797-0.4375 1.1211-0.42578 1.5273 0.027344zm-3.1094 4.6289 1.6992 1.0938 1.4688-2.5352-0.86328-0.96094zm49.715 2.5c0.31641-0.19531 0.70703-0.21094 1.0352-0.039063l3.4688 1.8164c0.34375 0.17969 0.55859 0.53516 0.55859 0.92187v1.1562c0 0.30078-0.13281 0.58984-0.35938 0.78516l-8.75 7.5977c-0.19141 0.16406-0.43359 0.25391-0.68359 0.25391h-1.5078l-3.043 1.9766c-0.16797 0.11328-0.36719 0.16797-0.56641 0.16797h-2.5l-4.7734 1.3438-2.7578 4.1367c-0.17188 0.25781-0.44531 0.42578-0.75 0.46094l-8.5 0.96094-6.8867 4.6445c-0.21484 0.14453-0.46875 0.20312-0.72266 0.16797l-3.3164-0.44922-4.3359 2.168c-0.20312 0.10156-0.43359 0.13281-0.65625 0.089844l-2.3359-0.4375-5.8398 2.4609-5.1602 4.3555c-0.1875 0.15625-0.42578 0.24609-0.67188 0.24609h-1.5508l-1.0156 1.0156c-0.54297 0.54297-1.4688 0.32812-1.7188-0.39453l-1.2695-3.6484-2.2188-3.0117c-0.26172-0.35547-0.27344-0.83203-0.027344-1.1953l1.3203-1.9844c0.27734-0.41406 0.81641-0.57422 1.2773-0.37891l1.9258 0.82812 1.5742-0.58984v-2.9531l-1.1289-1.043-2.7656 2.3711c-0.31641 0.27344-0.76953 0.32812-1.1445 0.14062l-1.9805-0.99219c-0.46484-0.23047-0.6875-0.76953-0.52344-1.2617l0.82812-2.4766c0.023437-0.074219 0.054687-0.14453 0.097656-0.21094l2.3125-3.7969c0.12109-0.20312 0.30859-0.35938 0.53125-0.4375l1.2031-0.4375 0.42969-4.3008c0.042969-0.42578 0.33984-0.78516 0.75391-0.89844l8.75-2.4805c0.16016-0.042969 0.32422-0.050781 0.48828-0.015625l2.2109 0.44141 3.8711-1.2383c0.10156-0.035156 0.21094-0.050781 0.31641-0.050781h3.3672l3.0664-1.6875c0.20312-0.10938 0.43359-0.15234 0.66016-0.11719l4.293 0.66016c0.09375 0.015625 0.18359 0.042969 0.26562 0.078125l1.1719 0.52344 2.6367-0.58594 0.22656-0.027344h3.0352l3.0664-1.6875c0.074219-0.039062 0.15234-0.070312 0.23047-0.089844l1.8164-0.49609c0.20312-0.058593 0.42188-0.046874 0.625 0.023438l4.1953 1.5 4.0547-2.1055c0.26953-0.13672 0.58594-0.15234 0.86719-0.042969l1.1836 0.47656 5.3438-3.0547c0.35156-0.20313 0.78906-0.17969 1.1211 0.058593l2.0391 1.457h2.1758zm2.9805 3.3281-2.3828-1.2461-0.8125 0.50781c-0.16797 0.10547-0.35938 0.16016-0.55469 0.16016h-2.8047c-0.21875 0-0.42969-0.066406-0.60547-0.19531l-1.7695-1.2617-5.1992 2.9727c-0.27734 0.15625-0.60937 0.17969-0.90234 0.0625l-1.2109-0.48438-4.0352 2.0898c-0.25391 0.13672-0.55469 0.15625-0.82812 0.058593l-4.3164-1.543-1.3789 0.37891-3.1953 1.7539c-0.15234 0.085937-0.32422 0.12891-0.5 0.12891h-3.1914l-2.8594 0.63672c-0.21875 0.050781-0.44531 0.027344-0.64844-0.0625l-1.3594-0.60547-3.8047-0.58594-2.9922 1.6445c-0.15234 0.085937-0.32812 0.12891-0.50391 0.12891h-3.4688l-3.9727 1.2734c-0.16797 0.054687-0.34766 0.0625-0.52344 0.027343l-2.2305-0.44531-7.8242 2.2148-0.42578 4.25c-0.039063 0.39844-0.30469 0.73828-0.67969 0.875l-1.4727 0.53516-2.0625 3.3828-0.50391 1.5117 0.55469 0.27734 2.9453-2.5234c0.39844-0.34375 0.99609-0.33203 1.3828 0.023437l2.1484 1.9844c0.21094 0.19531 0.33203 0.47266 0.33203 0.76562v4.125c0 0.4375-0.26953 0.82422-0.67578 0.97656l-2.6406 0.99219c-0.25 0.09375-0.52734 0.085937-0.77734-0.019531l-1.5156-0.64844-0.43359 0.65234 1.8789 2.5508c0.0625 0.082031 0.10938 0.17578 0.14453 0.27344l0.77734 2.2305 0.14453-0.14844c0.19531-0.19531 0.46094-0.30469 0.73828-0.30469h1.5977l4.9961-4.2109c0.078125-0.070313 0.16797-0.125 0.26562-0.16406l6.2734-2.6445c0.1875-0.078125 0.39844-0.10156 0.59766-0.0625l2.2969 0.42969 4.3086-2.1523c0.1875-0.09375 0.40234-0.12891 0.60938-0.10156l3.2383 0.44141 6.7695-4.5664c0.14062-0.09375 0.30078-0.15234 0.46484-0.17187l8.2734-0.93359 2.7031-4.0586c0.13672-0.20703 0.34375-0.35547 0.58203-0.42188l5.2852-1.4883c0.09375-0.023438 0.1875-0.039063 0.28125-0.039063h2.3359l3.043-1.9766c0.16797-0.10938 0.36328-0.16797 0.56641-0.16797h1.4258l8.1016-7.0312z" fill-rule="evenodd"/>
</svg>
