<svg width="72" height="130" viewBox="0 0 72 130" fill="none" xmlns="http://www.w3.org/2000/svg">
<path d="M1.13354 38.8947L1.13444 38.9044C1.16696 39.2568 1.20982 39.6156 1.25165 39.9454C1.31524 40.5272 1.3902 41.1061 1.48738 41.6841C1.4955 41.734 1.50365 41.7844 1.51186 41.8351C1.57489 42.2248 1.64161 42.6372 1.73004 43.0458C1.76375 43.2083 1.80107 43.3673 1.83505 43.512L1.83637 43.5176C1.87203 43.6695 1.90409 43.8063 1.93219 43.9422L1.93442 43.9529L1.93689 43.9637C3.52065 50.8514 6.9858 57.0258 10.99 63.7004C11.4778 64.5136 11.974 65.3347 12.4765 66.1663C16.1144 72.1865 20.0817 78.7519 23.5934 86.7898C25.9792 92.2635 28.0697 98.1337 29.7859 103.514L34.9787 122.266L35.9425 125.747L36.9061 122.266L42.0988 103.509C43.8154 98.1328 45.9006 92.258 48.2911 86.7852C51.7992 78.7552 55.7621 72.195 59.3959 66.1797C59.9021 65.3416 60.402 64.5142 60.8933 63.6949C64.8931 57.0245 68.3529 50.8536 69.9304 43.9708C70.0136 43.6472 70.0795 43.3333 70.141 43.0358L70.1414 43.0339C70.2334 42.5851 70.3139 42.1338 70.3884 41.6762L70.389 41.6724C70.4767 41.1202 70.5686 40.5376 70.6341 39.9401C70.6756 39.613 70.7192 39.2489 70.747 38.8893C70.8319 37.9168 70.8857 36.9457 70.8857 35.9427C70.8857 16.6505 55.2444 1 35.9427 1C16.6408 1 1 16.6507 1 35.948C1 36.9523 1.054 37.9291 1.13354 38.8947ZM2.12999 38.8126L2.13021 38.8125L2.12999 38.8126ZM35.9375 50.2867C28.0216 50.2867 21.5988 43.8601 21.5988 35.9373C21.5988 28.0154 28.0206 21.5987 35.9375 21.5987C43.8601 21.5987 50.2868 28.0164 50.2868 35.9373C50.2868 43.8594 43.8645 50.2867 35.9375 50.2867Z" fill="#E59C36" stroke="#CF8434" stroke-width="2"/>
</svg>
