<svg width="68" height="120" viewBox="0 0 68 120" fill="none" xmlns="http://www.w3.org/2000/svg">
<path d="M33.9427 0C15.1933 0 0 15.2027 0 33.948C0 34.9167 0.052083 35.8647 0.130208 36.8125C0.161458 37.1511 0.203125 37.5 0.244792 37.8282C0.307293 38.4011 0.380206 38.9636 0.473966 39.5208C0.546882 39.9687 0.614592 40.4062 0.708338 40.8385C0.770838 41.1406 0.848965 41.4375 0.911458 41.7396C3.99999 55.1716 14.4528 65.9476 22.5101 84.3902C24.9164 89.911 27.0205 95.8225 28.7445 101.229L33.9424 120L39.1403 101.224C40.8643 95.8225 42.9632 89.9058 45.3747 84.3849C53.432 65.9422 63.8853 55.1662 66.9587 41.7342C67.0368 41.4322 67.0993 41.1353 67.1618 40.8332C67.2503 40.4009 67.3284 39.9634 67.4014 39.5155C67.4899 38.9582 67.5784 38.3957 67.641 37.8228C67.6826 37.4947 67.7243 37.1457 67.7503 36.8072C67.8337 35.8541 67.8857 34.9113 67.8857 33.9427C67.8857 15.2027 52.692 0 33.9427 0ZM33.9375 49.2867C25.4687 49.2867 18.5988 42.4117 18.5988 33.9373C18.5988 25.4629 25.4685 18.5987 33.9375 18.5987C42.4115 18.5987 49.2868 25.4632 49.2868 33.9373C49.2868 42.4115 42.4171 49.2867 33.9375 49.2867Z" fill="#E59C36"/>
<path d="M53 35C53 44.3888 44.2696 52 33.5 52C22.7304 52 14 44.3888 14 35C14 25.6112 22.7304 18 33.5 18C44.2696 18 53 25.6112 53 35Z" fill="#E59C36"/>
<path fill-rule="evenodd" clip-rule="evenodd" d="M40.565 34.9745L46.1859 29.3676C48.5143 30.1456 51.1871 29.6086 53.042 27.7598C54.8676 25.9402 55.4148 23.3319 54.6911 21.0369L50.8319 24.8846L46.7203 24.6317L46.4678 20.5312L50.327 16.6835C48.0257 15.9617 45.4092 16.5095 43.5836 18.3281C41.7309 20.178 41.1925 22.8436 41.9726 25.1667L36.3116 30.8124L26.9973 21.6897L28.7664 19.9253C30.6473 18.0485 33.2919 17.3969 35.7027 17.9696L35.7916 17.7103C35.9768 17.1657 35.837 16.5627 35.4307 16.1564C32.5467 13.2812 27.8706 13.2812 24.9863 16.1564L23.1835 17.9555L22.7284 17.5103C22.398 17.1861 21.8768 17.1688 21.5659 17.48L18.5181 20.5206C18.2061 20.8308 18.2245 21.3505 18.5474 21.6811L18.9937 22.1339L16.3664 24.7541L15.8929 24.3208C15.5678 23.9978 15.037 23.9978 14.7119 24.3208L12.2438 26.7823C11.9187 27.1065 11.9187 27.6359 12.2438 27.9601L17.0218 32.6809C17.3469 33.005 17.8777 33.005 18.2027 32.6809L20.6709 30.2194C20.997 29.8952 20.997 29.3658 20.6709 29.0416L20.1454 28.5241L22.7402 25.9373L31.8845 35.2274L26.0903 41.0071C23.7609 40.2302 21.088 40.7662 19.2342 42.6161C17.4097 44.4357 16.8615 47.0439 17.5852 49.34L21.4443 45.4923L25.3589 45.9407L25.8096 49.8435L21.9515 53.6934C24.2527 54.4131 26.8681 53.8663 28.6926 52.0477C30.5464 50.199 31.0837 47.5333 30.3048 45.2102L36.0612 39.4694L49.4006 53.0167C49.7256 53.3463 50.2532 53.356 50.5631 53.0459L54.1797 49.4391C54.4907 49.1312 54.4787 48.6039 54.1483 48.2808L40.565 34.9745Z" fill="white"/>
</svg>
