<svg width="70" height="125" viewBox="0 0 70 125" fill="none" xmlns="http://www.w3.org/2000/svg">
<path d="M0.631898 37.8536L0.631874 37.8536L0.632325 37.8585C0.664213 38.204 0.706478 38.5579 0.748221 38.8868C0.811266 39.4641 0.885199 40.0348 0.980675 40.6025C0.988961 40.6534 0.997223 40.7044 1.00551 40.7556C1.0689 41.1474 1.13353 41.5468 1.21919 41.9422C1.25166 42.0989 1.28789 42.2532 1.3224 42.4002L1.32314 42.4033C1.35854 42.5541 1.39215 42.6974 1.42183 42.8409L1.42171 42.8409L1.42417 42.8516C2.98819 49.6535 6.41343 55.7667 10.4187 62.4431C10.9057 63.2548 11.4014 64.0751 11.9037 64.9064C15.5412 70.9258 19.5261 77.52 23.0519 85.5904C25.4479 91.0875 27.5451 96.9782 29.2652 102.372L34.4605 121.133L34.9425 122.873L35.4243 121.133L40.6195 102.366C42.3398 96.9777 44.4319 91.082 46.8329 85.585C50.3551 77.5229 54.3355 70.934 57.9688 64.9195C58.4748 64.0819 58.9741 63.2555 59.4645 62.4377C63.4667 55.7634 66.8875 49.6519 68.4445 42.8524C68.5252 42.5396 68.5894 42.2342 68.6514 41.9345L68.6516 41.9335C68.7418 41.493 68.8212 41.0486 68.8949 40.5958L68.8952 40.5939C68.9833 40.0393 69.0735 39.4668 69.1375 38.8817C69.1791 38.5541 69.2217 38.1974 69.2486 37.8482C69.3328 36.8854 69.3857 35.9285 69.3857 34.9427C69.3857 15.9266 53.9682 0.5 34.9427 0.5C15.9171 0.5 0.5 15.9267 0.5 34.948C0.5 35.9345 0.553041 36.8969 0.631898 37.8536ZM34.9375 49.7867C26.7451 49.7867 20.0988 43.1359 20.0988 34.9373C20.0988 26.7392 26.7446 20.0987 34.9375 20.0987C43.1358 20.0987 49.7868 26.7398 49.7868 34.9373C49.7868 43.1354 43.1408 49.7867 34.9375 49.7867Z" fill="#E59C36" stroke="#CF8434"/>
</svg>
