<svg width="74" height="135" viewBox="0 0 74 135" fill="none" xmlns="http://www.w3.org/2000/svg">
<path d="M1.63528 39.9358L1.63588 39.9431L1.63656 39.9504C1.66971 40.3095 1.71316 40.6733 1.75508 41.004C1.81922 41.5904 1.89519 42.1773 1.99407 42.7656C2.00203 42.8146 2.01007 42.8642 2.0182 42.9146C2.08089 43.3022 2.1497 43.7277 2.24092 44.1495C2.27584 44.3177 2.31424 44.4813 2.34774 44.6239L2.34961 44.6319C2.38551 44.7848 2.41603 44.9152 2.44256 45.0435L2.44591 45.0596L2.44961 45.0757C4.05311 52.0493 7.55817 58.2849 11.5612 64.9576C12.05 65.7723 12.5467 66.5944 13.0494 67.4263C16.6877 73.4474 20.6374 79.984 24.1351 87.9896C26.5106 93.4398 28.5942 99.2893 30.3067 104.657L35.4968 123.4L36.9426 128.621L38.388 123.4L43.5781 104.652C45.291 99.288 47.3693 93.4342 49.7492 87.9854C53.2433 79.9876 57.1888 73.456 60.823 67.4396C61.3295 66.6013 61.8298 65.7729 62.3221 64.952C66.3196 58.2855 69.8184 52.0551 71.4163 45.0888C71.5021 44.7547 71.5696 44.4325 71.6307 44.1371L71.6313 44.1342C71.7249 43.6772 71.8066 43.219 71.8819 42.7565L71.8828 42.7509C71.9701 42.2011 72.0637 41.6088 72.1306 40.999C72.1721 40.672 72.2166 40.3004 72.2453 39.9303C72.331 38.9481 72.3857 37.9628 72.3857 36.9427C72.3857 17.3745 56.5207 1.5 36.9427 1.5C17.3645 1.5 1.5 17.3747 1.5 36.948C1.5 37.9701 1.55496 38.9613 1.63528 39.9358ZM36.9375 50.7867C29.2981 50.7867 23.0988 44.5843 23.0988 36.9373C23.0988 29.2917 29.2966 23.0987 36.9375 23.0987C44.5844 23.0987 50.7868 29.293 50.7868 36.9373C50.7868 44.5834 44.5883 50.7867 36.9375 50.7867Z" fill="#E59C36" stroke="white" stroke-width="3"/>
</svg>
